<svg width="258" height="236" viewBox="0 0 258 236" fill="none" xmlns="http://www.w3.org/2000/svg">
<path d="M0 235.98V228.045L5.52 227.355C12.19 226.435 17.25 225.4 20.7 224.25C24.38 222.87 26.91 219.995 28.29 215.625C29.67 211.025 30.36 203.55 30.36 193.2V118.68C30.36 109.94 29.21 103.615 26.91 99.705C24.61 95.565 21.275 92.92 16.905 91.77C12.765 90.39 7.59 89.815 1.38 90.045V79.695C6.44 79.925 11.5 79.81 16.56 79.35C21.85 78.89 26.91 78.315 31.74 77.625C36.34 76.705 40.595 75.785 44.505 74.865C48.415 73.715 51.75 72.45 54.51 71.07V193.2C54.51 203.55 55.2 211.025 56.58 215.625C57.96 219.995 60.375 222.87 63.825 224.25C67.505 225.4 72.68 226.435 79.35 227.355L84.87 228.045V235.98L42.435 234.945L0 235.98Z" fill="white"/>
<path d="M248.974 235.98L206.539 234.945L164.104 235.635V227.7L169.624 227.355C176.294 226.435 181.354 225.4 184.804 224.25C188.484 222.87 191.014 219.995 192.394 215.625C194.004 211.025 194.809 203.55 194.809 193.2L195.154 161.805H93.3791V151.8L211.024 0H218.614V150.42H257.254V161.805H218.614V193.2C218.614 203.55 219.304 211.025 220.684 215.625C222.064 219.995 224.479 222.87 227.929 224.25C231.609 225.4 236.784 226.435 243.454 227.355L248.974 228.045V235.98ZM105.799 150.42H195.154L195.844 36.915L105.799 150.42Z" fill="white"/>
</svg>
