<svg width="1440" height="187" viewBox="0 0 1440 187" fill="none" xmlns="http://www.w3.org/2000/svg">
<path fill-rule="evenodd" clip-rule="evenodd" d="M0 171.96H1440V178.477H0V171.96ZM0 180.483H1440V187H0V180.483ZM0 155.917H1440V161.432H0V155.917ZM0 163.938H1440V169.954H0V163.938ZM0 147.394H1440V152.909H0V147.394ZM0 139.373H1440V144.587H0V139.373ZM0 131.151H1440V136.164H0V131.151ZM0 122.828H1440V127.441H0V122.828ZM0 114.807H1440V119.219H0V114.807ZM0 106.485H1440V110.696H0V106.485ZM0 98.4633H1440V102.374H0V98.4633ZM0 90.2413H1440V93.9512H0V90.2413ZM0 81.919H1440V85.3282H0V81.919ZM0 73.8976H1440V76.9056H0V73.8976ZM0 65.5753H1440V68.3828H0V65.5753ZM0 57.5539H1440V60.0606H0V57.5539ZM0 49.2316H1440V51.5378H0V49.2316ZM0 40.9094H1440V43.015H0V40.9094ZM0 32.8879H1440V34.793H0V32.8879ZM0 24.5657H1440V26.17H0V24.5657ZM0 16.5442H1440V17.948H0V16.5442ZM0 8.32225H1440V9.52547H0V8.32225ZM0 0H1440V1.00268H0V0Z" fill="#070E2E"/>
</svg>
