<?xml version="1.0" encoding="utf-8"?>
<!-- Generator: Adobe Illustrator 25.4.1, SVG Export Plug-In . SVG Version: 6.00 Build 0)  -->
<svg version="1.1" id="Layer_1" xmlns="http://www.w3.org/2000/svg" xmlns:xlink="http://www.w3.org/1999/xlink" x="0px" y="0px"
	 viewBox="0 0 838.7 173.6" style="enable-background:new 0 0 838.7 173.6;" xml:space="preserve">
<style type="text/css">
	.st0{fill:#0D439B;}
	.st1{fill:#545454;}
</style>
<g>
	<g>
		<g>
			<path class="st0" d="M74.8,72.6l1.1-2.6c9-20.2,15.5-33.3,19.5-39.4c0.6-0.8,1.2-1.5,1.7-2s1-0.9,1.6-1.3s1.4-0.8,2.3-1.1
				c2.7-1.2,6.3-1.8,10.6-1.8c2.2,0,3.7,0.2,4.2,0.6c0.6,0.4,0.9,1.2,0.9,2.6c0,1,0,2.1-0.1,3.3c-0.3,6.8-0.5,11.7-0.5,14.6
				c0,7.3,0.5,14.2,1.5,20.7c0.6,3.6,1.6,7.3,2.8,11.1c1.3,3.3,2.6,5.9,3.8,7.7c1.4,2,2.7,3.4,3.6,4.3c1.2,1.2,1.8,2.1,1.8,2.8
				c0,1.2-1,2.8-3,4.8c-3.4,3.3-6.8,4.9-10.1,4.9c-4.7,0-9.1-2-12.9-6.1c-2-2-3.5-4.2-4.7-6.6s-2-5.4-2.6-8.9s-0.9-8.1-1.1-13.5
				c-0.3-5.9-0.4-9.3-0.5-10h-0.2c-2.4,4.6-4.4,8.4-6,11.5s-2.9,5.6-3.9,7.6S82.4,80.2,81,83c-4.3,9-7.2,14.4-8.5,16.2
				c-0.1,0.1-0.2,0.2-0.5,0.5c-0.2,0.3-0.4,0.5-0.6,0.6c-0.6,0.6-1.4,1.1-2.2,1.4s-1.5,0.5-2.1,0.5c-1.6,0-3.4-1-5.3-3
				c-1.9-2-3.6-4.6-5-7.7c-1.5-3.3-2.7-6.8-3.6-10.2c-0.9-3.5-1.8-7.6-2.5-12.4s-1.3-10.6-1.9-17.5h-0.2c-1.1,2.5-2,4.4-2.6,5.6
				c-0.6,1.3-1.4,3.2-2.6,5.8c-1.2,2.6-1.9,4.1-2.1,4.6c-1.6,3.5-3.2,6.9-4.9,10.5c-1.7,3.5-3.1,6.2-4.1,8.1s-2.2,3.8-3.4,5.6
				c-0.6,0.9-1.6,2.1-3,3.7c-2.2,2.1-4.7,3.8-7.3,5c-2.7,1.2-5.2,1.8-7.6,1.8c-0.9,0-1.7-0.2-2.4-0.7s-1-1-1-1.8
				c0-0.6,0.5-1.5,1.5-2.6c0.6-0.7,1.8-2.4,3.7-5.2l3.3-5.1c2.1-3,5.1-8.5,9.3-16.3l2.7-5.1C34.5,53.1,38.8,44.7,41,40.2
				c2.2-4.5,3.4-7.1,3.4-7.8c0-0.8-0.6-1.7-1.7-2.7c-0.9-0.7-1.3-1.3-1.3-1.9c0-0.8,1.1-1.6,3.3-2.4c2.2-0.7,4.6-1.1,7.2-1.1
				c5.2,0,8.9,1.2,11.1,3.5c1.4,1.4,2.6,4.3,3.8,8.5s2.4,10.4,3.5,18.4c0.1,0.5,0.1,0.8,0.2,1.1s0.1,0.5,0.1,0.7s0.1,0.4,0.1,0.7
				c0.2,1.1,0.3,1.8,0.3,2.1c0.8,4.9,1.4,8,1.8,9.5C73.4,70.3,74,71.6,74.8,72.6z"/>
			<path class="st0" d="M151.2,41.8l1.5-3.9c-1.1,0.1-2.3,0.3-3.5,0.5c-0.8,0.2-1.8,0.2-3.1,0.2c-1.9,0-2.8-0.9-2.8-2.8
				c0-0.8,0.2-1.7,0.7-2.8c0.5-1.1,1-1.9,1.6-2.5c1.3-1.3,4.1-2.3,8.3-3.1c4.2-0.8,9.2-1.2,14.9-1.2c4.4,0,8.5,0.6,12.5,1.8
				c4,1.2,7.4,2.8,10.3,4.9c2.9,2.1,5.1,4.4,6.7,7.1c1.6,2.7,2.4,5.6,2.4,8.7c0,3.4-0.7,6.5-2.1,9.4c-1.4,2.9-3.4,5.4-6,7.6
				c-1.7,1.4-3.3,2.5-4.8,3.3s-3.6,1.6-6.4,2.4c0.7,1.3,1.4,2.4,1.9,3.1s1.5,1.7,2.8,3c3.4,3.1,8.3,5.9,14.7,8.4
				c0.3,0.2,0.7,0.3,1.1,0.5c-0.7,3.2-1.3,5.6-1.9,7.1c-0.6,1.5-1.6,3.1-2.8,4.8c-2.4,3.1-5.2,4.7-8.5,4.7c-1.8,0-4.1-0.7-6.7-2
				c-2.7-1.3-4.9-2.9-6.6-4.8c-1.3-1.6-2.6-3.2-3.7-5c-1.1-1.7-2.2-3.7-3.4-6c-1.1-2.2-2.1-4.4-2.9-6.5c-0.8-2.1-1.4-4-1.8-5.6
				c-0.1-0.3-0.1-0.7-0.1-1.3c0-0.8,0.2-1.4,0.7-1.9s1.3-0.9,2.5-1.3c1.7-0.6,3.1-1.3,4.2-2c1.1-0.7,2.5-1.9,4.2-3.4
				c1.9-2.1,3.4-4.5,4.5-7.3s1.6-5.6,1.6-8.5c0-3.4-0.8-6-2.3-7.9c-1.6-1.9-4-3.2-7.4-4c-3.3,11.9-6.5,23.1-9.7,33.5l-1.2,4.3
				c-2,6.8-3.6,11.9-5,15.2s-2.7,5.6-4,6.9s-3.4,2.6-6.2,3.9s-5,1.9-6.6,1.9c-3.1,0-4.7-1.7-4.7-5.2c0-1.4,0.4-3.9,1.3-7.4
				c0.9-3.5,2.2-8.1,4-13.8c1.8-5.7,3.7-11.2,5.6-16.7C146.9,53.1,149,47.5,151.2,41.8z"/>
			<path class="st0" d="M217.8,75.4l3.9-10.8l5.4-13.7c1.9-5,3.5-8.9,5-11.8c1.1-2,1.6-3.5,1.6-4.3c0-1.1-0.9-2.3-2.7-3.6
				c-1.2-0.8-1.8-1.5-1.8-2.1c0-0.8,1.2-1.6,3.5-2.4c2-0.8,4.3-1.6,6.9-2.2c2.6-0.6,4.7-0.9,6.3-0.9c3.2,0,5.6,0.9,7.3,2.6
				c1.9,1.9,4.2,8,7,18.1c1.1,4.1,2.4,8.1,3.8,11.9c1.4,3.8,2.5,6.6,3.4,8.3c0.3,0.6,1,1.8,2.1,3.5c1.2-4,2.7-9.2,4.4-15.7
				c2.5-10.2,4.8-17,6.9-20.6c0.6-1.1,1.4-2.1,2.2-3c1.6-1.4,3.2-2.5,5-3.3s3.6-1.1,5.4-1.1c1.1,0,1.9,0.3,2.3,0.9s0.6,1.6,0.6,3.1
				c0,1.1-0.1,1.9-0.2,2.5c-0.4,2-1,4.5-2,7.7c-0.9,3.1-2.3,7.2-4,12.1s-3.9,10.9-6.5,17.9l-0.9,2.1c-0.3,0.9-0.6,1.7-0.8,2.2
				c-4.6,12.9-8.1,21.2-10.5,25.1c-0.5,0.8-1.1,1.5-1.8,2.2c-1.2,1.2-2.3,1.8-3.5,1.8c-2.9,0-6.1-3.1-9.5-9.3
				c-6.2-11.2-11-22.6-14.4-34.4c-0.7-2.2-1.3-4.3-1.6-6.2h-0.2l-6.9,21.7c-0.1,0.4-0.2,0.9-0.5,1.5c-0.2,0.6-0.4,1.1-0.6,1.7
				c-0.2,0.4-0.3,0.9-0.5,1.4s-0.4,0.9-0.5,1.3c-1.3,3.8-2.3,6.7-3.1,8.6s-1.6,3.5-2.4,4.8c-0.7,1.2-1.7,2.5-3,3.8
				c-1.9,1.8-4.1,3.2-6.4,4.2s-4.7,1.5-7,1.5c-1.9,0-2.9-0.8-2.9-2.3c0-1.2,0.9-3.2,2.6-6.1c2-3.3,4.2-7.8,6.7-13.6
				C216.5,78.6,217.1,77.1,217.8,75.4z"/>
			<path class="st0" d="M319,37.2l0.8-2c-1.3,0-2.3,0.1-3.2,0.3c-0.9,0.2-1.9,0.5-3.1,1c-1.4,0.5-2.4,0.8-3,0.8s-1.2-0.2-1.6-0.7
				s-0.6-1.1-0.6-1.8c0-1.5,0.6-3,1.8-4.6c1.2-1.6,2.7-2.7,4.4-3.3c2.3-0.9,5.2-1.6,8.8-2.2c3.6-0.5,7.1-0.8,10.7-0.8
				c4,0,7.6,0.3,10.7,0.9c3.2,0.6,6,1.5,8.5,2.7c2.5,1.3,4.6,2.8,6.5,4.7s3.3,4,4.3,6.5s1.5,5.1,1.5,7.9c0,2.5-0.5,5.3-1.5,8.4
				s-2.4,6.2-4.2,9.1c-1.8,3-3.7,5.5-5.9,7.5c-2.5,2.4-5.6,4.4-9.4,6.1s-7.2,2.5-10.3,2.5c-1.3,0-2.5-0.2-3.5-0.7s-1.5-1.1-1.5-1.7
				c0-1.1,0.4-2.1,1.2-3c0.8-0.9,2.3-2.1,4.4-3.4c1.8-1.1,3.5-2.3,5.1-3.8c1.9-2.1,3.3-4.3,4.2-6.7c0.9-2.4,1.3-5.2,1.3-8.4
				c0-3.1-0.5-5.8-1.6-7.9c-1.1-2.2-2.8-4.1-5.2-5.8l-7.6,25l-1.4,4.4c-0.6,1.7-1.4,4.7-2.4,9c-1.9,7.3-3.6,12.4-5.2,15.3
				c-0.7,1.3-1.7,2.5-2.8,3.7c-1.8,1.6-4.1,3-6.9,4.2s-5.2,1.8-7.2,1.8c-1.3,0-2.4-0.4-3.2-1.2c-0.8-0.8-1.2-1.9-1.2-3.3
				c0-1.6,0.4-3.8,1.2-6.8c0.8-3,2.4-8.4,4.8-16.1l1-3.2l1.1-3.5L319,37.2z"/>
			<path class="st0" d="M436.4,96.1l-2.9,1.8c-4.1,2.2-7.4,3.8-10,4.6c-2.6,0.9-5.3,1.3-8,1.3c-4.3,0-7.7-1.3-10.5-3.8
				c-2.7-2.5-4.1-5.7-4.1-9.6c0-3.2,1.2-6.5,3.5-9.9c2.4-3.4,6.2-7.5,11.6-12.1c0.8-0.6,1.3-1.1,1.6-1.4c0.3-0.3,0.7-0.5,1-0.9
				c-1-4.8-1.5-9-1.5-12.5c0-5.2,1.1-10.1,3.4-14.7s5.3-8.3,9.1-11c3.8-2.7,7.8-4.1,12-4.1c3.2,0,5.9,0.5,8.4,1.6
				c2.4,1.1,4.3,2.6,5.6,4.6c1.3,2,1.9,4.3,1.9,6.9c0,1.9-0.4,3.8-1.2,5.7c-0.8,1.9-1.9,3.7-3.2,5.3c-2.4,2.8-4.5,5-6.3,6.6
				s-5.5,4.6-11,9c0.9,2.1,2,4.1,3.4,5.9c0.8,1.2,1.7,2.4,2.8,3.6c1.8,2.1,4,4.3,6.8,6.7c0.6-0.2,1.2-0.6,1.9-1.2
				c0.3-0.3,0.5-0.5,0.7-0.5c0.3,0,0.6,0.2,0.9,0.6c0.2,0.3,0.2,0.5,0.2,0.6c0,0.2-0.2,0.6-0.6,1.1c-0.3,0.3-0.6,0.8-0.8,1.3
				c3.3,2.5,6.2,4.4,8.8,5.9c2.1,1,3.2,1.8,3.2,2.6c0,1-0.4,2.2-1.2,3.8c-0.8,1.6-1.9,3-3.1,4.3c-1.3,1.3-2.8,2.3-4.5,3.1
				c-1.7,0.8-3.4,1.2-4.9,1.2c-1.7,0-3.2-0.2-4.5-0.6s-2.6-1.1-3.9-2C439.5,99.1,438,97.8,436.4,96.1z M422.4,76
				c-1.3,1.7-2.3,3.2-2.8,4.5s-0.8,2.8-0.8,4.5c0,2.1,0.7,3.9,2,5.3c1.4,1.4,3.1,2.2,5.2,2.2c1.7,0,3.6-0.6,5.6-1.8
				c-0.6-0.7-1.1-1.3-1.4-1.9c-0.7-1-1.4-2.1-2.2-3.2c-0.7-1.2-2.1-3.4-4-6.8c-0.4-0.7-0.7-1.3-0.9-1.6
				C422.9,76.8,422.6,76.4,422.4,76z M432.3,54.5c1.7-1.4,3.2-3.2,4.4-5.3c1.3-2.1,2.3-4.3,3-6.6s1-4.7,1-7.2c0-2.8-0.6-4.2-1.9-4.2
				s-2.5,0.7-3.7,2.2s-2.2,3.4-3,5.7c-0.7,2.3-1.1,4.8-1.1,7.5c0,1.4,0.1,2.7,0.3,3.8C431.5,51.6,431.8,53,432.3,54.5z"/>
			<path class="st0" d="M541.2,61.1c1.5-3.8,2.7-8.1,3.8-12.8c1-4.7,1.6-8.6,1.6-11.7c0-2-0.5-3-1.4-3s-2.5,1.2-4.8,3.5
				c-3.5,3.7-6.5,8-9.2,12.8s-4.8,9.8-6.2,14.8s-2.2,10-2.2,14.8c0,3.8,0.4,6.4,1.2,7.8s2.4,2.1,4.6,2.1c2,0,4.4-0.5,7.3-1.7
				c6.6-2.6,13.6-6.4,21-11.2c3.3-2.1,5.3-3.1,6.2-3.1c1.3,0,1.9,0.6,1.9,1.9v0.1c-0.2,1.7-0.8,3.6-1.8,5.8c-2,4.2-3.7,6.9-5.1,8.2
				c-2.4,2.2-5.8,4.3-10,6.4s-8.6,3.8-13,5.1s-8.2,2-11.2,2c-3.5,0-6.7-0.7-9.8-2c-3.1-1.3-5.8-3.1-8-5.4s-4.1-4.9-5.4-8
				c-1.3-3-1.9-6.3-1.9-9.7c0-2.6,0.4-5.5,1.3-8.5c0.8-3.1,2-6.3,3.6-9.6s3.4-6.5,5.4-9.4c1.2-1.7,2.4-3.4,3.7-5
				c1.3-1.6,2.7-3.2,4.2-4.7s3.2-3,5-4.4s3.5-2.6,5-3.6c2.7-1.8,5.4-3.3,8.3-4.7c2.8-1.3,5.5-2.3,7.9-3c2.4-0.6,4.7-1,6.7-1
				c5,0,8.9,1.3,11.7,3.9s4.2,6.2,4.2,10.7c0,4.8-1.2,9.8-3.5,15c-2.4,5.2-5.5,9.8-9.4,13.7c-2.7,2.8-5.4,5-8,6.5
				c-2.7,1.6-5,2.4-7.2,2.4c-1.9,0-2.8-0.9-2.8-2.7c0-0.8,0.5-2,1.5-3.5C537.9,68.2,539.5,65.2,541.2,61.1z"/>
			<path class="st0" d="M605.2,40.5c-2.6,2.6-4.5,4.8-5.7,6.5s-2.5,4.1-3.8,7.3c-1,2.3-1.8,4.7-2.2,7.2c-0.6,2.2-0.9,5.1-0.9,8.7
				c0,5,0.5,9.1,1.4,12.4s2.4,5.8,4.2,7.5s4.1,2.5,6.7,2.5c2.1,0,4.3-0.8,6.5-2.3c2.2-1.6,4.2-3.6,6-6.1s3.3-5.3,4.4-8.5
				c1.1-3.1,1.7-6.1,1.7-9c0-5.2-1.8-10.6-5.4-16.3c-1.3-2.3-2-3.8-2-4.7c0-1.6,0.9-3.1,2.6-4.7c1.9-1.9,4.2-3.5,6.7-5
				c2.5-1.4,4.5-2.2,5.9-2.2c0.8,0,1.7,0.2,2.6,0.6c0.9,0.4,1.6,0.9,2.1,1.5c1.2,1.3,2.2,3.6,3,6.9c0.8,3.4,1.2,6.9,1.2,10.7
				c0,9-1.8,17.2-5.5,24.8s-8.6,13.6-14.9,18c-6.3,4.4-13.1,6.6-20.4,6.6c-4.2,0-8.4-0.8-12.5-2.3s-7.5-3.6-10.1-6.3
				c-4.4-4.4-6.5-10.1-6.5-17.1c0-4.1,0.8-8.4,2.4-13c1.6-4.6,3.8-9.1,6.6-13.4s6-8.3,9.7-11.9c3.7-3.6,7.4-6.5,11.3-8.5
				c3.5-1.9,7.3-3.4,11.4-4.6c4.1-1.1,7.6-1.7,10.7-1.7c4.3,0,6.5,0.7,6.5,2c0,0.5-0.5,1.3-1.4,2.4c-1.7,1.6-3.1,2.7-4.4,3.3
				c-1.2,0.6-3.3,1.4-6.1,2.2c-3,0.9-5.2,1.7-6.6,2.5S607.3,38.6,605.2,40.5z"/>
			<path class="st0" d="M708.1,53.6l-1.9,4.6c-2.5,5.8-4.8,11.7-6.9,17.5c-1,2.8-2.6,7.7-4.7,14.7c3.2-0.3,7.4-0.9,12.7-2
				c3.4-0.7,5.5-1,6.2-1c1.3,0,2,0.5,2,1.6c0,1.3-0.7,3-2.2,5.3s-3.1,4.2-4.9,5.8c-1.3,1.2-3.1,2-5.6,2.4c-2.5,0.5-6.3,0.7-11.6,0.7
				c-4.9,0-8.7-0.2-11.3-0.5c0,0-0.7-0.2-1.9-0.6c-2.2-0.9-3.2-2.8-3.2-5.7c0-2.1,0.6-5.9,1.8-11.4s2.9-12.4,5.2-20.7
				c5.2-18.4,9.1-29.7,11.7-34.1c0.8-1.5,1.9-2.6,3.2-3.4s3-1.5,5.2-1.9c2.1-0.5,4.6-0.7,7.3-0.7c2.6,0,4.4,0.3,5.4,1
				s1.6,1.8,1.6,3.4s-0.7,4.5-2,8.7C712.8,41.6,710.8,47,708.1,53.6z"/>
			<path class="st0" d="M753,53.6l-1.9,4.6c-2.5,5.8-4.8,11.7-6.9,17.5c-1,2.8-2.6,7.7-4.7,14.7c3.2-0.3,7.4-0.9,12.7-2
				c3.4-0.7,5.5-1,6.2-1c1.3,0,2,0.5,2,1.6c0,1.3-0.7,3-2.2,5.3s-3.1,4.2-4.9,5.8c-1.3,1.2-3.1,2-5.6,2.4c-2.5,0.5-6.3,0.7-11.6,0.7
				c-4.9,0-8.7-0.2-11.3-0.5c0,0-0.7-0.2-1.9-0.6c-2.2-0.9-3.2-2.8-3.2-5.7c0-2.1,0.6-5.9,1.8-11.4s2.9-12.4,5.2-20.7
				c5.2-18.4,9.1-29.7,11.7-34.1c0.8-1.5,1.9-2.6,3.2-3.4s3-1.5,5.2-1.9c2.1-0.5,4.6-0.7,7.3-0.7c2.6,0,4.4,0.3,5.4,1
				s1.6,1.8,1.6,3.4s-0.7,4.5-2,8.7C757.7,41.6,755.7,47,753,53.6z"/>
			<path class="st0" d="M783.7,37.2l0.8-2c-1.3,0-2.3,0.1-3.2,0.3s-1.9,0.5-3.1,1c-1.4,0.5-2.4,0.8-3,0.8s-1.2-0.2-1.6-0.7
				c-0.4-0.5-0.6-1.1-0.6-1.8c0-1.5,0.6-3,1.8-4.6s2.7-2.7,4.4-3.3c2.3-0.9,5.2-1.6,8.8-2.2c3.6-0.5,7.1-0.8,10.7-0.8
				c4,0,7.6,0.3,10.7,0.9c3.2,0.6,6,1.5,8.5,2.7c2.5,1.3,4.6,2.8,6.5,4.7s3.3,4,4.3,6.5s1.5,5.1,1.5,7.9c0,2.5-0.5,5.3-1.5,8.4
				s-2.4,6.2-4.2,9.1c-1.8,3-3.7,5.5-5.9,7.5c-2.5,2.4-5.6,4.4-9.4,6.1s-7.2,2.5-10.3,2.5c-1.3,0-2.5-0.2-3.5-0.7s-1.5-1.1-1.5-1.7
				c0-1.1,0.4-2.1,1.2-3s2.3-2.1,4.4-3.4c1.8-1.1,3.5-2.3,5.1-3.8c1.9-2.1,3.3-4.3,4.2-6.7s1.3-5.2,1.3-8.4c0-3.1-0.5-5.8-1.6-7.9
				c-1.1-2.2-2.8-4.1-5.2-5.8l-7.8,25.3l-1.4,4.4c-0.6,1.7-1.4,4.7-2.4,9c-1.9,7.3-3.6,12.4-5.2,15.3c-0.7,1.3-1.7,2.5-2.8,3.7
				c-1.8,1.6-4.1,3-6.9,4.2c-2.8,1.2-5.2,1.8-7.2,1.8c-1.3,0-2.4-0.4-3.2-1.2c-0.8-0.8-1.2-1.9-1.2-3.3c0-1.6,0.4-3.8,1.2-6.8
				s2.4-8.4,4.8-16.1l1-3.2l1.1-3.5L783.7,37.2z"/>
		</g>
	</g>
	<g>
		<g>
			<line class="st1" x1="10" y1="119.5" x2="822.6" y2="119.5"/>
			<rect x="10" y="118.5" class="st1" width="812.6" height="2"/>
		</g>
	</g>
	<g>
		<path class="st1" d="M13.7,145.8c-1-0.6-1.8-1.4-2.4-2.4c-0.6-1-0.9-2.2-0.9-3.4s0.3-2.4,0.9-3.4c0.6-1,1.4-1.8,2.4-2.4
			c1-0.6,2.2-0.9,3.4-0.9c1.9,0,3.6,0.7,4.8,2.1l-1.7,1.7c-0.8-1-1.9-1.5-3.1-1.5c-0.8,0-1.5,0.2-2.2,0.5c-0.7,0.4-1.2,0.9-1.6,1.6
			c-0.4,0.7-0.6,1.4-0.6,2.3c0,0.9,0.2,1.7,0.6,2.3c0.4,0.7,0.9,1.2,1.6,1.6c0.7,0.4,1.4,0.5,2.2,0.5c1.4,0,2.5-0.6,3.4-1.7l1.7,1.6
			c-0.6,0.8-1.4,1.4-2.3,1.8c-0.9,0.4-1.8,0.6-2.9,0.6C15.9,146.6,14.8,146.3,13.7,145.8z"/>
		<path class="st1" d="M53,133.5h2.4v5.1h5.4v-5.1h2.4v12.9h-2.4v-5.4h-5.4v5.4H53V133.5z"/>
		<path class="st1" d="M98.2,133.5h2.8l4.8,12.9h-2.7l-1.1-3.1h-4.9l-1.1,3.1h-2.7L98.2,133.5z M101.3,141l-1.1-3.2l-0.5-1.5h-0.1
			l-0.5,1.5l-1.2,3.2H101.3z"/>
		<path class="st1" d="M136,133.5h4.7c0.8,0,1.6,0.2,2.2,0.5c0.7,0.3,1.2,0.8,1.5,1.4c0.4,0.6,0.5,1.3,0.5,2.1
			c0,0.8-0.3,1.6-0.8,2.2c-0.5,0.6-1.2,1.1-2,1.4l0,0.1l3.5,5v0.1h-2.8l-3.3-4.8h-1.1v4.8H136V133.5z M140.6,139.3
			c0.6,0,1-0.2,1.4-0.5s0.5-0.8,0.5-1.3c0-0.5-0.2-0.9-0.5-1.3c-0.3-0.3-0.8-0.5-1.3-0.5h-2.3v3.6H140.6z"/>
		<path class="st1" d="M178.4,135.8h-3.6v-2.3h9.6v2.3h-3.6v10.6h-2.4V135.8z"/>
		<path class="st1" d="M214.7,133.5h8.2v2.3h-5.7v3h5.2v2.3h-5.2v3h5.7v2.3h-8.2V133.5z"/>
		<path class="st1" d="M253.8,133.5h4.7c0.8,0,1.6,0.2,2.2,0.5c0.7,0.3,1.2,0.8,1.5,1.4c0.4,0.6,0.5,1.3,0.5,2.1
			c0,0.8-0.3,1.6-0.8,2.2c-0.5,0.6-1.2,1.1-2,1.4l0,0.1l3.5,5v0.1h-2.8l-3.3-4.8h-1.1v4.8h-2.4V133.5z M258.5,139.3
			c0.6,0,1-0.2,1.4-0.5s0.5-0.8,0.5-1.3c0-0.5-0.2-0.9-0.5-1.3c-0.3-0.3-0.8-0.5-1.3-0.5h-2.3v3.6H258.5z"/>
		<path class="st1" d="M293.6,133.5h8.2v2.3H296v3h5.2v2.3H296v3h5.7v2.3h-8.2V133.5z"/>
		<path class="st1" d="M332.7,133.5h4.4c1.3,0,2.5,0.3,3.5,0.8s1.8,1.3,2.3,2.3c0.5,1,0.8,2.1,0.8,3.4c0,1.3-0.3,2.4-0.8,3.4
			c-0.5,1-1.3,1.7-2.3,2.3s-2.2,0.8-3.5,0.8h-4.4V133.5z M336.9,144c1.4,0,2.5-0.4,3.2-1.1s1.1-1.7,1.1-3c0-1.3-0.4-2.3-1.1-3
			c-0.7-0.7-1.8-1.1-3.2-1.1h-1.8v8.3H336.9z"/>
		<path class="st1" d="M410,133.5h2.8l4.8,12.9H415l-1.1-3.1h-4.9l-1.1,3.1h-2.7L410,133.5z M413.1,141l-1.1-3.2l-0.5-1.5h-0.1
			l-0.5,1.5l-1.2,3.2H413.1z"/>
		<path class="st1" d="M450.1,145.8c-1-0.6-1.8-1.4-2.4-2.4c-0.6-1-0.9-2.2-0.9-3.4s0.3-2.4,0.9-3.4c0.6-1,1.4-1.8,2.4-2.4
			c1-0.6,2.2-0.9,3.4-0.9c1.9,0,3.6,0.7,4.8,2.1l-1.7,1.7c-0.8-1-1.9-1.5-3.1-1.5c-0.8,0-1.5,0.2-2.2,0.5c-0.7,0.4-1.2,0.9-1.6,1.6
			c-0.4,0.7-0.6,1.4-0.6,2.3c0,0.9,0.2,1.7,0.6,2.3c0.4,0.7,0.9,1.2,1.6,1.6c0.7,0.4,1.4,0.5,2.2,0.5c1.4,0,2.5-0.6,3.4-1.7l1.7,1.6
			c-0.6,0.8-1.4,1.4-2.3,1.8c-0.9,0.4-1.8,0.6-2.9,0.6C452.3,146.6,451.1,146.3,450.1,145.8z"/>
		<path class="st1" d="M491.6,145.8c-1-0.6-1.8-1.4-2.4-2.4c-0.6-1-0.9-2.2-0.9-3.4s0.3-2.4,0.9-3.4c0.6-1,1.4-1.8,2.4-2.4
			c1-0.6,2.2-0.9,3.4-0.9c1.9,0,3.6,0.7,4.8,2.1l-1.7,1.7c-0.8-1-1.9-1.5-3.1-1.5c-0.8,0-1.5,0.2-2.2,0.5c-0.7,0.4-1.2,0.9-1.6,1.6
			c-0.4,0.7-0.6,1.4-0.6,2.3c0,0.9,0.2,1.7,0.6,2.3c0.4,0.7,0.9,1.2,1.6,1.6c0.7,0.4,1.4,0.5,2.2,0.5c1.4,0,2.5-0.6,3.4-1.7l1.7,1.6
			c-0.6,0.8-1.4,1.4-2.3,1.8c-0.9,0.4-1.8,0.6-2.9,0.6C493.8,146.6,492.7,146.3,491.6,145.8z"/>
		<path class="st1" d="M533.2,145.8c-1-0.6-1.8-1.4-2.4-2.4c-0.6-1-0.9-2.2-0.9-3.4c0-1.2,0.3-2.4,0.9-3.4c0.6-1,1.4-1.8,2.4-2.4
			c1-0.6,2.2-0.9,3.4-0.9c1.3,0,2.4,0.3,3.4,0.9c1,0.6,1.8,1.4,2.4,2.4c0.6,1,0.9,2.2,0.9,3.4c0,1.2-0.3,2.4-0.9,3.4
			c-0.6,1-1.4,1.8-2.4,2.4c-1,0.6-2.2,0.9-3.4,0.9C535.3,146.6,534.2,146.3,533.2,145.8z M538.8,143.8c0.7-0.4,1.2-0.9,1.6-1.6
			s0.6-1.4,0.6-2.3c0-0.9-0.2-1.6-0.6-2.3s-0.9-1.2-1.6-1.6c-0.7-0.4-1.4-0.6-2.2-0.6c-0.8,0-1.5,0.2-2.2,0.6
			c-0.7,0.4-1.2,0.9-1.5,1.6c-0.4,0.7-0.6,1.4-0.6,2.3c0,0.9,0.2,1.6,0.6,2.3c0.4,0.7,0.9,1.2,1.5,1.6s1.4,0.6,2.2,0.6
			C537.4,144.3,538.1,144.2,538.8,143.8z"/>
		<path class="st1" d="M576.2,146c-0.8-0.4-1.3-1.1-1.7-1.9c-0.4-0.8-0.6-1.8-0.6-2.9v-7.8h2.4v7.9c0,0.9,0.2,1.6,0.7,2.2
			s1.1,0.8,1.9,0.8c0.8,0,1.5-0.3,1.9-0.8s0.7-1.3,0.7-2.2v-7.9h2.4v7.8c0,1.1-0.2,2-0.6,2.8c-0.4,0.8-1,1.5-1.7,1.9
			c-0.8,0.5-1.6,0.7-2.6,0.7S576.9,146.4,576.2,146z"/>
		<path class="st1" d="M614.9,133.5h2.8l5.2,8.6h0.1l-0.1-2.5v-6.2h2.4v12.9h-2.6l-5.5-9.1h-0.1l0.1,2.5v6.6h-2.4V133.5z"/>
		<path class="st1" d="M659.3,135.8h-3.6v-2.3h9.6v2.3h-3.6v10.6h-2.4V135.8z"/>
		<path class="st1" d="M698.1,133.5h2.8l4.8,12.9H703l-1.1-3.1H697l-1.1,3.1h-2.7L698.1,133.5z M701.1,141l-1.1-3.2l-0.5-1.5h-0.1
			l-0.5,1.5l-1.2,3.2H701.1z"/>
		<path class="st1" d="M735.8,133.5h2.8l5.2,8.6h0.1l-0.1-2.5v-6.2h2.4v12.9h-2.6l-5.5-9.1h-0.1l0.1,2.5v6.6h-2.4V133.5z"/>
		<path class="st1" d="M780.2,135.8h-3.6v-2.3h9.6v2.3h-3.6v10.6h-2.4V135.8z"/>
		<path class="st1" d="M817.3,145.7c-0.9-0.6-1.5-1.5-1.8-2.7l2.3-0.9c0.2,0.7,0.5,1.2,0.9,1.6c0.4,0.4,1,0.6,1.6,0.6
			c0.5,0,1-0.1,1.4-0.4c0.4-0.3,0.6-0.6,0.6-1.1c0-0.5-0.2-0.9-0.5-1.2c-0.4-0.3-1-0.6-2-1l-0.8-0.3c-0.8-0.3-1.5-0.7-2.1-1.3
			c-0.6-0.6-0.9-1.3-0.9-2.2c0-0.7,0.2-1.3,0.5-1.8c0.3-0.6,0.8-1,1.5-1.3c0.6-0.3,1.4-0.5,2.2-0.5c1.2,0,2.1,0.3,2.8,0.8
			c0.7,0.5,1.1,1.2,1.4,1.9l-2.1,0.9c-0.1-0.4-0.4-0.7-0.7-1c-0.3-0.3-0.8-0.4-1.3-0.4c-0.5,0-1,0.1-1.3,0.4c-0.3,0.2-0.5,0.6-0.5,1
			c0,0.4,0.2,0.7,0.5,1c0.3,0.3,0.9,0.5,1.6,0.8l0.8,0.3c1.1,0.4,2,0.9,2.6,1.5c0.6,0.6,0.9,1.5,0.9,2.5c0,0.8-0.2,1.6-0.6,2.1
			c-0.4,0.6-1,1-1.7,1.3c-0.7,0.3-1.4,0.4-2.1,0.4C819.1,146.6,818.1,146.3,817.3,145.7z"/>
	</g>
</g>
</svg>
