<svg width="300" height="44" viewBox="0 0 300 44" fill="none" xmlns="http://www.w3.org/2000/svg">
<path d="M24.4971 17.8622L24.8981 16.9144C28.179 9.55066 30.5485 4.77518 32.0066 2.55149C32.2253 2.25985 32.4441 2.00468 32.6263 1.82241C32.8086 1.64014 32.9909 1.49432 33.2096 1.3485C33.4283 1.20269 33.72 1.05687 34.048 0.94751C35.0323 0.510061 36.3447 0.291337 37.9122 0.291337C38.7142 0.291337 39.261 0.364245 39.4432 0.510061C39.662 0.655877 39.7713 0.94751 39.7713 1.45787C39.7713 1.82241 39.7713 2.2234 39.7349 2.66085C39.6255 5.13972 39.5526 6.92597 39.5526 7.98313C39.5526 10.6443 39.7349 13.1596 40.0994 15.5291C40.3181 16.8415 40.6827 18.1903 41.1201 19.5755C41.594 20.7785 42.0679 21.7263 42.5054 22.3825C43.0157 23.1116 43.4896 23.6219 43.8177 23.95C44.2552 24.3874 44.4739 24.7155 44.4739 24.9707C44.4739 25.4082 44.1094 25.9914 43.3803 26.7205C42.1408 27.9235 40.9014 28.5067 39.6984 28.5067C37.9851 28.5067 36.3811 27.7777 34.9959 26.283C34.2668 25.554 33.72 24.752 33.2825 23.8771C32.8451 23.0022 32.5534 21.9086 32.3347 20.6327C32.116 19.3568 32.0066 17.6799 31.9337 15.7114C31.8244 13.5606 31.7879 12.3212 31.7514 12.066H31.6785C30.8036 13.7429 30.0746 15.1281 29.4913 16.2582C28.908 17.3883 28.4341 18.2996 28.0696 19.0287C27.7051 19.7578 27.2676 20.6327 26.7572 21.6534C25.1897 24.9343 24.1326 26.9028 23.6587 27.5589C23.6222 27.5954 23.5857 27.6318 23.4764 27.7412C23.4035 27.8506 23.3306 27.9235 23.2577 27.9599C23.0389 28.1787 22.7473 28.3609 22.4557 28.4703C22.164 28.5797 21.9089 28.6526 21.6901 28.6526C21.1069 28.6526 20.4507 28.288 19.7581 27.5589C19.0655 26.8299 18.4457 25.8821 17.9354 24.752C17.3886 23.549 16.9511 22.2731 16.623 21.0337C16.2949 19.7578 15.9669 18.2632 15.7117 16.5134C15.4565 14.7636 15.2378 12.6492 15.0191 10.1339H14.9461C14.5452 11.0453 14.2171 11.7379 13.9983 12.1753C13.7796 12.6492 13.488 13.3419 13.0505 14.2897C12.6131 15.2375 12.3579 15.7843 12.285 15.9666C11.7017 17.2425 11.1185 18.4819 10.4988 19.7942C9.87904 21.0701 9.36868 22.0544 9.00414 22.747C8.6396 23.4396 8.20215 24.1323 7.76471 24.7884C7.54598 25.1165 7.18144 25.554 6.67108 26.1372C5.8691 26.9028 4.95775 27.5225 4.00994 27.9599C3.02568 28.3974 2.11433 28.6161 1.23944 28.6161C0.91135 28.6161 0.619718 28.5432 0.36454 28.3609C0.109362 28.1787 0 27.9964 0 27.7048C0 27.486 0.18227 27.1579 0.54681 26.757C0.765535 26.5018 1.20298 25.8821 1.89561 24.8613L3.09859 23.0022C3.86413 21.9086 4.95775 19.9036 6.48881 17.0602L7.47307 15.201C9.80613 10.7536 11.3737 7.6915 12.1756 6.05107C12.9776 4.41064 13.4151 3.46284 13.4151 3.20766C13.4151 2.91603 13.1964 2.58794 12.7954 2.2234C12.4673 1.96822 12.3215 1.7495 12.3215 1.53077C12.3215 1.23914 12.7225 0.947509 13.5244 0.655877C14.3264 0.400699 15.2013 0.254883 16.1491 0.254883C18.0447 0.254883 19.3935 0.692331 20.1955 1.53077C20.7059 2.04113 21.1433 3.0983 21.5808 4.62936C22.0182 6.16043 22.4557 8.42058 22.8567 11.3369C22.8931 11.5192 22.8931 11.6285 22.9296 11.7379C22.966 11.8473 22.966 11.9202 22.966 11.9931C22.966 12.066 23.0025 12.1389 23.0025 12.2483C23.0754 12.6492 23.1118 12.9044 23.1118 13.0138C23.4035 14.8 23.6222 15.9301 23.768 16.4769C23.9867 17.0237 24.2055 17.4976 24.4971 17.8622Z" fill="white"/>
<path d="M52.348 6.63458L52.8948 5.21287C52.4938 5.24933 52.0563 5.32224 51.6189 5.39514C51.3272 5.46805 50.9627 5.46805 50.4888 5.46805C49.7962 5.46805 49.4681 5.13997 49.4681 4.44734C49.4681 4.15571 49.541 3.82762 49.7233 3.42663C49.9055 3.02563 50.0878 2.734 50.3065 2.51528C50.7804 2.04137 51.8011 1.67683 53.3322 1.3852C54.8633 1.09357 56.686 0.947754 58.7639 0.947754C60.3678 0.947754 61.8625 1.16648 63.3206 1.60393C64.7788 2.04137 66.0182 2.62464 67.0754 3.39017C68.1325 4.15571 68.9345 4.99415 69.5178 5.97841C70.1011 6.96267 70.3927 8.01983 70.3927 9.14991C70.3927 10.3893 70.1375 11.5194 69.6272 12.5766C69.1168 13.6338 68.3877 14.5451 67.4399 15.3471C66.8202 15.8574 66.2369 16.2584 65.6901 16.5501C65.1433 16.8417 64.3778 17.1333 63.3571 17.425C63.6122 17.8989 63.8674 18.2999 64.0497 18.555C64.232 18.8102 64.5965 19.1748 65.0704 19.6487C66.3098 20.7787 68.0961 21.7995 70.4291 22.7108C70.5385 22.7837 70.6843 22.8202 70.8301 22.8931C70.575 24.0596 70.3562 24.9345 70.1375 25.4813C69.9188 26.0281 69.5542 26.6114 69.1168 27.2311C68.2419 28.3612 67.2212 28.9444 66.0182 28.9444C65.362 28.9444 64.5236 28.6893 63.5758 28.2154C62.5915 27.7415 61.7895 27.1582 61.1698 26.4656C60.6959 25.8823 60.222 25.299 59.821 24.6429C59.42 24.0231 59.019 23.2941 58.5816 22.4556C58.1806 21.6536 57.8161 20.8516 57.5244 20.0861C57.2328 19.3206 57.0141 18.628 56.8683 18.0447C56.8318 17.9353 56.8318 17.7895 56.8318 17.5708C56.8318 17.2792 56.9047 17.0604 57.087 16.8782C57.2692 16.6959 57.5609 16.5501 57.9983 16.4043C58.618 16.1855 59.1284 15.9304 59.5294 15.6752C59.9304 15.42 60.4407 14.9826 61.0605 14.4357C61.7531 13.6702 62.2999 12.7953 62.7009 11.7746C63.1019 10.7539 63.2842 9.73317 63.2842 8.67601C63.2842 7.43657 62.9925 6.48876 62.4457 5.79614C61.8624 5.10351 60.9876 4.62961 59.7481 4.33798C58.5451 8.67601 57.3786 12.7589 56.2121 16.5501L55.7746 18.1176C55.0456 20.5965 54.4623 22.4556 53.9519 23.6586C53.4416 24.8616 52.9677 25.7 52.4938 26.1739C52.0199 26.6478 51.2543 27.1217 50.2336 27.5956C49.2129 28.0695 48.4109 28.2883 47.8277 28.2883C46.6976 28.2883 46.1143 27.6686 46.1143 26.3927C46.1143 25.8823 46.2601 24.971 46.5882 23.6951C46.9163 22.4192 47.3902 20.7423 48.0464 18.6644C48.7025 16.5865 49.3952 14.5816 50.0878 12.5766C50.7804 10.7539 51.546 8.71246 52.348 6.63458Z" fill="white"/>
<path d="M76.6263 18.8832L78.048 14.9461L80.0165 9.95195C80.7092 8.12925 81.2924 6.70754 81.8392 5.65037C82.2402 4.92129 82.4225 4.37448 82.4225 4.08285C82.4225 3.68186 82.0944 3.24441 81.4382 2.77051C81.0008 2.47887 80.7821 2.2237 80.7821 2.00497C80.7821 1.71334 81.2195 1.42171 82.058 1.13007C82.787 0.838443 83.6255 0.54681 84.5733 0.328086C85.5211 0.109362 86.2866 0 86.8699 0C88.0364 0 88.9113 0.328086 89.531 0.947805C90.2237 1.64043 91.0621 3.86413 92.0828 7.54598C92.4838 9.0406 92.9577 10.4988 93.4681 11.884C93.9784 13.2693 94.3794 14.29 94.7075 14.9097C94.8169 15.1284 95.072 15.5659 95.473 16.1856C95.9105 14.7274 96.4573 12.8318 97.077 10.4623C97.9884 6.74399 98.8268 4.26512 99.5923 2.95278C99.8111 2.55178 100.103 2.18724 100.394 1.85915C100.978 1.3488 101.561 0.947804 102.217 0.656172C102.873 0.36454 103.529 0.255178 104.186 0.255178C104.587 0.255178 104.878 0.36454 105.024 0.583264C105.17 0.801988 105.243 1.16653 105.243 1.71334C105.243 2.11433 105.206 2.40596 105.17 2.62469C105.024 3.35377 104.805 4.26512 104.441 5.43165C104.113 6.56172 103.602 8.05634 102.983 9.84258C102.363 11.6288 101.561 13.8161 100.613 16.3679L100.285 17.1334C100.176 17.4615 100.066 17.7531 99.9933 17.9354C98.3164 22.6379 97.0406 25.6636 96.1657 27.0853C95.9834 27.377 95.7647 27.6321 95.5095 27.8873C95.072 28.3248 94.671 28.5435 94.2336 28.5435C93.1764 28.5435 92.0099 27.4134 90.7705 25.1533C88.5103 21.0704 86.7605 16.9147 85.5211 12.6131C85.2659 11.8111 85.0472 11.0456 84.9378 10.3529H84.8649L82.3496 18.2635C82.3131 18.4093 82.2767 18.5915 82.1673 18.8103C82.0944 19.029 82.0215 19.2113 81.9486 19.43C81.8757 19.5758 81.8392 19.7581 81.7663 19.9403C81.6934 20.1226 81.6205 20.2684 81.584 20.4142C81.1101 21.7995 80.7456 22.8567 80.454 23.5493C80.1623 24.2419 79.8707 24.8252 79.5791 25.2991C79.3239 25.7365 78.9594 26.2104 78.4855 26.6843C77.7928 27.3405 76.9908 27.8509 76.1524 28.2154C75.314 28.5799 74.4391 28.7622 73.6006 28.7622C72.908 28.7622 72.5435 28.4706 72.5435 27.9238C72.5435 27.4863 72.8715 26.7572 73.4913 25.7001C74.2203 24.4971 75.0223 22.8567 75.9337 20.7423C76.1524 20.0497 76.3711 19.5029 76.6263 18.8832Z" fill="white"/>
<path d="M113.518 4.95776L113.809 4.22868C113.336 4.22868 112.971 4.26513 112.643 4.33804C112.315 4.41095 111.95 4.52031 111.513 4.70258C111.002 4.88485 110.638 4.99421 110.419 4.99421C110.201 4.99421 109.982 4.9213 109.836 4.73903C109.69 4.55676 109.617 4.33804 109.617 4.08286C109.617 3.53605 109.836 2.98924 110.273 2.40598C110.711 1.82271 111.258 1.42172 111.877 1.203C112.716 0.874909 113.773 0.619732 115.085 0.401008C116.398 0.218737 117.674 0.109375 118.986 0.109375C120.444 0.109375 121.756 0.218737 122.887 0.437461C124.053 0.656185 125.074 0.984272 125.985 1.42172C126.896 1.89562 127.662 2.44243 128.355 3.13506C129.047 3.82769 129.558 4.59322 129.922 5.50457C130.287 6.41592 130.469 7.36372 130.469 8.38444C130.469 9.29579 130.287 10.3165 129.922 11.4466C129.558 12.5766 129.047 13.7067 128.391 14.7639C127.735 15.8575 127.042 16.7689 126.24 17.4979C125.329 18.3728 124.199 19.1019 122.814 19.7216C121.428 20.3414 120.189 20.633 119.059 20.633C118.585 20.633 118.147 20.5601 117.783 20.3778C117.418 20.1955 117.236 19.9768 117.236 19.7581C117.236 19.3571 117.382 18.9926 117.674 18.6645C117.965 18.3364 118.512 17.8989 119.278 17.425C119.934 17.024 120.553 16.5866 121.137 16.0398C121.829 15.2742 122.34 14.4723 122.668 13.5974C122.996 12.7225 123.142 11.7018 123.142 10.5352C123.142 9.40515 122.959 8.42089 122.558 7.65536C122.157 6.85337 121.538 6.16074 120.663 5.54102L117.892 14.6545L117.382 16.2585C117.163 16.8782 116.872 17.9718 116.507 19.5394C115.814 22.2005 115.195 24.0597 114.611 25.1168C114.356 25.5907 113.992 26.0282 113.591 26.4656C112.935 27.0489 112.096 27.5592 111.075 27.9967C110.055 28.4341 109.18 28.6529 108.451 28.6529C107.977 28.6529 107.576 28.5071 107.284 28.2154C106.993 27.9238 106.847 27.5228 106.847 27.0124C106.847 26.4292 106.993 25.6272 107.284 24.5336C107.576 23.4399 108.159 21.4714 109.034 18.6645L109.399 17.4979L109.8 16.222L113.518 4.95776Z" fill="white"/>
<path d="M156.315 26.429L155.258 27.0852C153.763 27.8872 152.56 28.4704 151.612 28.7621C150.664 29.0901 149.68 29.236 148.696 29.236C147.128 29.236 145.889 28.7621 144.868 27.8507C143.884 26.9394 143.374 25.7728 143.374 24.3511C143.374 23.1846 143.811 21.9816 144.65 20.7422C145.524 19.5027 146.91 18.0081 148.878 16.3312C149.17 16.1125 149.352 15.9303 149.461 15.8209C149.571 15.7115 149.717 15.6386 149.826 15.4928C149.461 13.743 149.279 12.2119 149.279 10.9361C149.279 9.04044 149.68 7.2542 150.519 5.57731C151.357 3.90043 152.451 2.55163 153.836 1.56737C155.221 0.58311 156.679 0.0727539 158.21 0.0727539C159.377 0.0727539 160.361 0.255024 161.273 0.656018C162.147 1.05701 162.84 1.60382 163.314 2.3329C163.788 3.06198 164.007 3.90043 164.007 4.84823C164.007 5.54086 163.861 6.23348 163.569 6.92611C163.278 7.61873 162.877 8.27491 162.403 8.85817C161.528 9.87889 160.762 10.6809 160.106 11.2641C159.45 11.8474 158.101 12.941 156.096 14.545C156.424 15.3105 156.825 16.0396 157.336 16.6958C157.627 17.1332 157.955 17.5707 158.356 18.0081C159.012 18.7737 159.814 19.5757 160.835 20.4505C161.054 20.3776 161.273 20.2318 161.528 20.0131C161.637 19.9037 161.71 19.8308 161.783 19.8308C161.892 19.8308 162.002 19.9037 162.111 20.0496C162.184 20.1589 162.184 20.2318 162.184 20.2683C162.184 20.3412 162.111 20.487 161.965 20.6693C161.856 20.7786 161.746 20.9609 161.674 21.1432C162.877 22.0545 163.934 22.7472 164.882 23.294C165.647 23.6585 166.048 23.9501 166.048 24.2418C166.048 24.6063 165.902 25.0438 165.611 25.627C165.319 26.2103 164.918 26.7206 164.481 27.1945C164.007 27.6684 163.46 28.033 162.84 28.3246C162.22 28.6162 161.601 28.7621 161.054 28.7621C160.434 28.7621 159.887 28.6892 159.413 28.5433C158.94 28.3975 158.466 28.1423 157.992 27.8143C157.445 27.5226 156.898 27.0487 156.315 26.429ZM151.211 19.1018C150.737 19.7215 150.373 20.2683 150.191 20.7422C150.008 21.2161 149.899 21.7629 149.899 22.3826C149.899 23.1481 150.154 23.8043 150.628 24.3147C151.138 24.825 151.758 25.1167 152.524 25.1167C153.143 25.1167 153.836 24.8979 154.565 24.4605C154.346 24.2053 154.164 23.9866 154.055 23.7679C153.8 23.4033 153.544 23.0023 153.253 22.6013C152.998 22.1639 152.487 21.3619 151.795 20.1225C151.649 19.8673 151.539 19.6486 151.466 19.5392C151.394 19.3934 151.284 19.2476 151.211 19.1018ZM154.82 11.2641C155.44 10.7538 155.987 10.0976 156.424 9.33207C156.898 8.56654 157.263 7.76455 157.518 6.92611C157.773 6.08767 157.882 5.21277 157.882 4.30142C157.882 3.28071 157.664 2.77035 157.19 2.77035C156.716 2.77035 156.278 3.02553 155.841 3.57234C155.403 4.11915 155.039 4.81178 154.747 5.65022C154.492 6.48866 154.346 7.40001 154.346 8.38427C154.346 8.89463 154.383 9.36853 154.456 9.76952C154.529 10.207 154.638 10.7173 154.82 11.2641Z" fill="white"/>
<path d="M194.519 13.6703C195.065 12.285 195.503 10.7175 195.904 9.00416C196.268 7.29082 196.487 5.86911 196.487 4.73903C196.487 4.00995 196.305 3.64541 195.977 3.64541C195.649 3.64541 195.065 4.08286 194.227 4.9213C192.951 6.2701 191.858 7.83763 190.873 9.58742C189.889 11.3372 189.123 13.1599 188.613 14.9826C188.103 16.8053 187.811 18.628 187.811 20.3778C187.811 21.7631 187.957 22.7109 188.249 23.2212C188.54 23.7316 189.123 23.9868 189.925 23.9868C190.655 23.9868 191.529 23.8045 192.587 23.367C194.993 22.4192 197.544 21.034 200.242 19.2842C201.445 18.5187 202.174 18.1541 202.502 18.1541C202.976 18.1541 203.195 18.3728 203.195 18.8467V18.8832C203.122 19.5029 202.903 20.1955 202.539 20.9975C201.809 22.5286 201.19 23.5129 200.679 23.9868C199.804 24.7887 198.565 25.5543 197.034 26.3198C195.503 27.0853 193.899 27.7051 192.295 28.179C190.691 28.6529 189.306 28.908 188.212 28.908C186.936 28.908 185.77 28.6529 184.64 28.179C183.51 27.7051 182.525 27.0489 181.723 26.2104C180.921 25.372 180.229 24.4242 179.755 23.2941C179.281 22.2005 179.062 20.9975 179.062 19.7581C179.062 18.8103 179.208 17.7531 179.536 16.6595C179.828 15.5294 180.265 14.3629 180.848 13.1599C181.432 11.9569 182.088 10.7904 182.817 9.73324C183.254 9.11352 183.692 8.4938 184.166 7.91053C184.64 7.32727 185.15 6.74401 185.697 6.1972C186.244 5.65038 186.863 5.10358 187.519 4.59322C188.176 4.08286 188.795 3.64541 189.342 3.28087C190.326 2.6247 191.311 2.07789 192.368 1.56754C193.389 1.09363 194.373 0.729093 195.248 0.473915C196.123 0.255191 196.961 0.109375 197.69 0.109375C199.513 0.109375 200.935 0.583277 201.955 1.53108C202.976 2.47889 203.486 3.79123 203.486 5.43166C203.486 7.18145 203.049 9.00416 202.21 10.8998C201.336 12.7954 200.205 14.4723 198.784 15.894C197.8 16.9147 196.815 17.7167 195.867 18.2635C194.883 18.8467 194.045 19.1384 193.243 19.1384C192.55 19.1384 192.222 18.8103 192.222 18.1541C192.222 17.8625 192.404 17.425 192.769 16.8782C193.316 16.2585 193.899 15.1649 194.519 13.6703Z" fill="white"/>
<path d="M217.849 6.16108C216.901 7.10888 216.209 7.91087 215.771 8.53059C215.334 9.15031 214.86 10.0252 214.386 11.1917C214.022 12.0302 213.73 12.9051 213.584 13.8164C213.365 14.6184 213.256 15.6756 213.256 16.9879C213.256 18.8106 213.438 20.3052 213.766 21.5082C214.094 22.7112 214.641 23.6226 215.297 24.2423C215.954 24.862 216.792 25.1536 217.74 25.1536C218.505 25.1536 219.307 24.862 220.109 24.3152C220.911 23.7319 221.64 23.0028 222.297 22.0915C222.953 21.1801 223.5 20.1594 223.901 18.9929C224.302 17.8628 224.52 16.7692 224.52 15.712C224.52 13.8164 223.864 11.8479 222.552 9.77002C222.078 8.93158 221.823 8.38477 221.823 8.05669C221.823 7.47342 222.151 6.92661 222.771 6.34335C223.463 5.65072 224.302 5.06746 225.213 4.52065C226.124 4.01029 226.853 3.71866 227.364 3.71866C227.655 3.71866 227.983 3.79157 228.312 3.93738C228.64 4.0832 228.895 4.26547 229.077 4.48419C229.515 4.95809 229.879 5.79654 230.171 6.99952C230.462 8.23895 230.608 9.51485 230.608 10.9001C230.608 14.181 229.952 17.1702 228.603 19.9407C227.254 22.7112 225.468 24.8984 223.172 26.5024C220.875 28.1064 218.396 28.9084 215.735 28.9084C214.204 28.9084 212.673 28.6168 211.178 28.0699C209.684 27.5231 208.444 26.7576 207.496 25.7733C205.892 24.1694 205.127 22.0915 205.127 19.5397C205.127 18.0451 205.418 16.4776 206.002 14.8007C206.585 13.1238 207.387 11.4834 208.408 9.91584C209.428 8.34832 210.595 6.89016 211.944 5.57781C213.292 4.26547 214.641 3.2083 216.063 2.47922C217.339 1.78659 218.724 1.23978 220.219 0.802335C221.713 0.401341 222.989 0.182617 224.119 0.182617C225.687 0.182617 226.489 0.437795 226.489 0.911698C226.489 1.09397 226.307 1.3856 225.978 1.78659C225.359 2.36986 224.848 2.77085 224.374 2.98958C223.937 3.2083 223.172 3.49993 222.151 3.79156C221.057 4.11965 220.255 4.41128 219.745 4.70292C219.234 4.99455 218.615 5.46845 217.849 6.16108Z" fill="white"/>
<path d="M255.36 10.9362L254.668 12.6131C253.756 14.7274 252.918 16.8782 252.152 18.9926C251.788 20.0133 251.205 21.7995 250.439 24.3513C251.606 24.2419 253.137 24.0232 255.069 23.6222C256.308 23.367 257.074 23.2577 257.329 23.2577C257.803 23.2577 258.058 23.44 258.058 23.841C258.058 24.3149 257.803 24.9346 257.256 25.773C256.709 26.6115 256.126 27.3041 255.47 27.8873C254.996 28.3248 254.34 28.6164 253.428 28.7622C252.517 28.9445 251.132 29.0174 249.2 29.0174C247.413 29.0174 246.028 28.9445 245.08 28.8352C245.08 28.8352 244.825 28.7622 244.388 28.6164C243.586 28.2883 243.221 27.5957 243.221 26.5385C243.221 25.773 243.44 24.3878 243.877 22.3828C244.315 20.3778 244.935 17.8625 245.773 14.8368C247.669 8.12927 249.09 4.00997 250.038 2.40599C250.33 1.85918 250.731 1.45819 251.205 1.16655C251.679 0.874922 252.298 0.619744 253.1 0.473928C253.866 0.291658 254.777 0.21875 255.761 0.21875C256.709 0.21875 257.365 0.328112 257.73 0.58329C258.094 0.838468 258.313 1.23946 258.313 1.82273C258.313 2.40599 258.058 3.46316 257.584 4.99423C257.074 6.56175 256.345 8.53026 255.36 10.9362Z" fill="white"/>
<path d="M271.728 10.9362L271.036 12.6131C270.124 14.7274 269.286 16.8782 268.52 18.9926C268.156 20.0133 267.573 21.7995 266.807 24.3513C267.974 24.2419 269.505 24.0232 271.437 23.6222C272.676 23.367 273.442 23.2577 273.697 23.2577C274.171 23.2577 274.426 23.44 274.426 23.841C274.426 24.3149 274.171 24.9346 273.624 25.773C273.077 26.6115 272.494 27.3041 271.838 27.8873C271.364 28.3248 270.708 28.6164 269.796 28.7622C268.885 28.9445 267.5 29.0174 265.568 29.0174C263.781 29.0174 262.396 28.9445 261.448 28.8352C261.448 28.8352 261.193 28.7622 260.756 28.6164C259.954 28.2883 259.589 27.5957 259.589 26.5385C259.589 25.773 259.808 24.3878 260.245 22.3828C260.683 20.3778 261.302 17.8625 262.141 14.8368C264.037 8.12927 265.458 4.00997 266.406 2.40599C266.698 1.85918 267.099 1.45819 267.573 1.16655C268.046 0.874922 268.666 0.619744 269.468 0.473928C270.234 0.291658 271.145 0.21875 272.129 0.21875C273.077 0.21875 273.733 0.328112 274.098 0.58329C274.462 0.838468 274.681 1.23946 274.681 1.82273C274.681 2.40599 274.426 3.46316 273.952 4.99423C273.442 6.56175 272.713 8.53026 271.728 10.9362Z" fill="white"/>
<path d="M282.92 4.95776L283.211 4.22868C282.737 4.22868 282.373 4.26513 282.045 4.33804C281.717 4.41095 281.352 4.52031 280.915 4.70258C280.404 4.88485 280.04 4.99421 279.821 4.99421C279.602 4.99421 279.384 4.9213 279.238 4.73903C279.092 4.55676 279.019 4.33804 279.019 4.08286C279.019 3.53605 279.238 2.98924 279.675 2.40598C280.113 1.82271 280.66 1.42172 281.279 1.203C282.118 0.874909 283.175 0.619732 284.487 0.401008C285.8 0.218737 287.075 0.109375 288.388 0.109375C289.846 0.109375 291.158 0.218737 292.288 0.437461C293.455 0.656185 294.476 0.984272 295.387 1.42172C296.298 1.89562 297.064 2.44243 297.756 3.13506C298.449 3.82769 298.959 4.59322 299.324 5.50457C299.688 6.41592 299.871 7.36372 299.871 8.38444C299.871 9.29579 299.688 10.3165 299.324 11.4466C298.959 12.5766 298.449 13.7067 297.793 14.7639C297.137 15.8575 296.444 16.7689 295.642 17.4979C294.731 18.3728 293.601 19.1019 292.215 19.7216C290.83 20.3414 289.591 20.633 288.461 20.633C287.987 20.633 287.549 20.5601 287.185 20.3778C286.82 20.1955 286.638 19.9768 286.638 19.7581C286.638 19.3571 286.784 18.9926 287.075 18.6645C287.367 18.3364 287.914 17.8989 288.679 17.425C289.336 17.024 289.955 16.5866 290.539 16.0398C291.231 15.2742 291.742 14.4723 292.07 13.5974C292.398 12.7225 292.543 11.7018 292.543 10.5352C292.543 9.40515 292.361 8.42089 291.96 7.65536C291.559 6.85337 290.94 6.16074 290.065 5.54102L287.221 14.7639L286.711 16.3679C286.492 16.9876 286.201 18.0812 285.836 19.6487C285.143 22.3099 284.524 24.169 283.94 25.2262C283.685 25.7001 283.321 26.1375 282.92 26.575C282.263 27.1583 281.425 27.6686 280.404 28.1061C279.384 28.5435 278.509 28.7622 277.78 28.7622C277.306 28.7622 276.905 28.6164 276.613 28.3248C276.321 28.0332 276.176 27.6322 276.176 27.1218C276.176 26.5385 276.321 25.7365 276.613 24.6429C276.905 23.5493 277.488 21.5808 278.363 18.7738L278.727 17.6073L279.128 16.3314L282.92 4.95776Z" fill="white"/>
<path d="M297.1 34.5947H0.874878V35.3238H297.1V34.5947Z" fill="white"/>
<path d="M2.15081 43.7812C1.89564 43.6718 1.67691 43.526 1.49464 43.3073C1.31237 43.0886 1.16655 42.8698 1.05719 42.5782C0.947831 42.2866 0.911377 41.9949 0.911377 41.6304V41.521C0.911377 41.193 0.947831 40.8649 1.05719 40.5732C1.16655 40.2816 1.31237 40.0629 1.49464 39.8442C1.67691 39.6619 1.89564 39.4796 2.15081 39.3703C2.40599 39.2609 2.69762 39.188 2.98926 39.188H3.06216C3.24443 39.188 3.39025 39.2244 3.57252 39.2609C3.71834 39.2973 3.90061 39.3703 4.04642 39.4432C4.19224 39.5161 4.33805 39.6254 4.44742 39.7348C4.55678 39.8442 4.66614 39.99 4.73905 40.1358L4.26515 40.4274C4.15578 40.2087 3.97351 39.99 3.79124 39.8806C3.57252 39.7348 3.3538 39.6983 3.06216 39.6983H3.02571C2.80699 39.6983 2.58826 39.7348 2.40599 39.8442C2.22372 39.9171 2.07791 40.0629 1.93209 40.2087C1.78627 40.3545 1.71337 40.5368 1.64046 40.7555C1.56755 40.9742 1.5311 41.2294 1.5311 41.4846V41.6304C1.5311 41.8856 1.56755 42.1408 1.64046 42.3595C1.71337 42.5782 1.82273 42.7605 1.96854 42.9063C2.11436 43.0521 2.26018 43.1615 2.44245 43.2708C2.62472 43.3437 2.84344 43.4167 3.06216 43.4167C3.20798 43.4167 3.31734 43.3802 3.46316 43.3437C3.57252 43.3073 3.71834 43.2708 3.79124 43.1979C3.90061 43.125 3.97351 43.0521 4.08288 42.9427C4.15578 42.8334 4.22869 42.7605 4.3016 42.6511L4.73905 42.9427C4.66614 43.0886 4.55678 43.2344 4.44742 43.3437C4.33805 43.4531 4.19224 43.5625 4.04642 43.6354C3.90061 43.7083 3.75479 43.7812 3.57252 43.8176C3.4267 43.8541 3.24443 43.8906 3.06216 43.8906H2.98926C2.69762 43.927 2.40599 43.8906 2.15081 43.7812Z" fill="white"/>
<path d="M16.2585 39.2974H16.7688V41.3023H18.9561V39.2974H19.4664V43.8906H18.9561V41.7762H16.7688V43.8906H16.2585V39.2974Z" fill="white"/>
<path d="M32.4806 39.2974H33.2461L34.8501 43.8906H34.2668L33.7565 42.4324L32.8451 39.7713H32.8087L31.8973 42.4689L31.387 43.927H30.8037L32.4806 39.2974ZM31.9702 42.0679H33.7929L33.9752 42.5782H31.8244L31.9702 42.0679Z" fill="white"/>
<path d="M46.2602 39.2974H47.7184C47.9735 39.2974 48.1923 39.3338 48.3745 39.4067C48.5568 39.4796 48.7391 39.5525 48.8484 39.6619C48.9578 39.7713 49.0671 39.9171 49.1401 40.0994C49.213 40.2816 49.2494 40.4639 49.2494 40.6826V40.7555C49.2494 41.0836 49.1765 41.3388 49.0307 41.5575C48.8849 41.7762 48.6662 41.9221 48.3745 42.0314L49.5775 43.927H48.9213L47.8277 42.1408H46.7705V43.927H46.2602V39.2974ZM47.6819 41.6304C48.01 41.6304 48.2652 41.5575 48.4474 41.4117C48.6297 41.2659 48.7026 41.0472 48.7026 40.7555V40.6826C48.7026 40.391 48.6297 40.1723 48.4474 40.0264C48.2652 39.8806 48.01 39.8077 47.6819 39.8077H46.7705V41.6304H47.6819Z" fill="white"/>
<path d="M61.6438 39.8077H60.4044V39.2974H63.43V39.8077H62.1906V43.8906H61.6802V39.8077H61.6438Z" fill="white"/>
<path d="M74.913 39.2974H77.4648V39.8077H75.4234V41.3023H77.319V41.8127H75.4234V43.4167H77.5013V43.927H74.8766V39.2974H74.913Z" fill="white"/>
<path d="M89.2759 39.2974H90.7341C90.9893 39.2974 91.208 39.3338 91.3903 39.4067C91.5725 39.4796 91.7548 39.5525 91.8642 39.6619C92.01 39.7713 92.0829 39.9171 92.1558 40.0994C92.2287 40.2816 92.2652 40.4639 92.2652 40.6826V40.7555C92.2652 41.0836 92.1923 41.3388 92.0464 41.5575C91.9006 41.7762 91.6819 41.9221 91.3903 42.0314L92.5933 43.927H91.9371L90.8435 42.1408H89.8228V43.927H89.3124V39.2974H89.2759ZM90.6976 41.6304C91.0257 41.6304 91.2809 41.5575 91.4632 41.4117C91.6455 41.2659 91.7184 41.0472 91.7184 40.7555V40.6826C91.7184 40.391 91.6455 40.1723 91.4632 40.0264C91.2809 39.8806 91.0257 39.8077 90.6976 39.8077H89.8228V41.6304H90.6976Z" fill="white"/>
<path d="M104.113 39.2974H106.664V39.8077H104.623V41.3023H106.519V41.8127H104.623V43.4167H106.701V43.927H104.076V39.2974H104.113Z" fill="white"/>
<path d="M118.476 39.2974H119.751C120.08 39.2974 120.408 39.3338 120.699 39.4432C120.991 39.5525 121.21 39.6984 121.428 39.8806C121.647 40.0629 121.793 40.2816 121.902 40.5733C122.012 40.8649 122.085 41.1201 122.085 41.4482V41.594C122.085 41.9221 122.012 42.2501 121.902 42.5418C121.793 42.8334 121.647 43.0521 121.428 43.2709C121.21 43.4896 120.991 43.6354 120.699 43.7448C120.408 43.8541 120.116 43.927 119.751 43.927H118.476V39.2974ZM119.751 43.3802C120.043 43.3802 120.262 43.3438 120.481 43.2709C120.699 43.1979 120.882 43.0521 121.027 42.9063C121.173 42.7605 121.283 42.5782 121.355 42.323C121.428 42.1043 121.465 41.8491 121.465 41.5575V41.4482C121.465 41.193 121.428 40.9742 121.355 40.7555C121.283 40.5368 121.173 40.391 121.027 40.2452C120.882 40.0994 120.699 39.99 120.481 39.9171C120.262 39.8442 120.007 39.8077 119.751 39.8077H118.986V43.4167H119.751V43.3802Z" fill="white"/>
<path d="M147.238 39.2974H148.003L149.607 43.8906H149.024L148.514 42.4324L147.602 39.7713H147.566L146.691 42.4324L146.217 43.8906H145.597L147.238 39.2974ZM146.691 42.0679H148.514L148.696 42.5782H146.545L146.691 42.0679Z" fill="white"/>
<path d="M161.71 43.7812C161.455 43.6718 161.236 43.526 161.054 43.3073C160.872 43.0886 160.726 42.8698 160.616 42.5782C160.507 42.2866 160.471 41.9949 160.471 41.6304V41.521C160.471 41.193 160.507 40.8649 160.616 40.5732C160.726 40.2816 160.872 40.0629 161.054 39.8442C161.236 39.6619 161.455 39.4796 161.71 39.3703C161.965 39.2609 162.257 39.188 162.548 39.188H162.621C162.804 39.188 162.949 39.2244 163.132 39.2609C163.314 39.2973 163.46 39.3703 163.606 39.4432C163.751 39.5161 163.897 39.6254 164.007 39.7348C164.116 39.8442 164.225 39.99 164.298 40.1358L163.824 40.4274C163.715 40.2087 163.533 39.99 163.35 39.8806C163.132 39.7348 162.913 39.6983 162.621 39.6983H162.585C162.366 39.6983 162.147 39.7348 161.965 39.8442C161.783 39.9171 161.637 40.0629 161.491 40.2087C161.345 40.3545 161.273 40.5368 161.2 40.7555C161.127 40.9742 161.09 41.2294 161.09 41.4846V41.6304C161.09 41.8856 161.127 42.1408 161.2 42.3595C161.273 42.5782 161.382 42.7605 161.528 42.9063C161.674 43.0521 161.819 43.1615 162.002 43.2708C162.184 43.3437 162.403 43.4167 162.621 43.4167H162.658C162.804 43.4167 162.913 43.3802 163.059 43.3437C163.168 43.3073 163.314 43.2708 163.387 43.1979C163.46 43.125 163.569 43.0521 163.679 42.9427C163.751 42.8334 163.824 42.7605 163.897 42.6511L164.335 42.9427C164.262 43.0886 164.152 43.2344 164.043 43.3437C163.934 43.4531 163.788 43.5625 163.642 43.6354C163.496 43.7083 163.35 43.7812 163.168 43.8176C162.986 43.8541 162.84 43.8906 162.658 43.8906H162.585C162.257 43.927 161.965 43.8906 161.71 43.7812Z" fill="white"/>
<path d="M176.656 43.7812C176.401 43.6718 176.182 43.526 176 43.3073C175.818 43.0886 175.672 42.8698 175.563 42.5782C175.453 42.2866 175.417 41.9949 175.417 41.6304V41.521C175.417 41.193 175.453 40.8649 175.563 40.5732C175.672 40.2816 175.818 40.0629 176 39.8442C176.182 39.6619 176.401 39.4796 176.656 39.3703C176.911 39.2609 177.203 39.188 177.495 39.188H177.568C177.75 39.188 177.896 39.2244 178.078 39.2609C178.26 39.2973 178.406 39.3703 178.552 39.4432C178.698 39.5161 178.843 39.6254 178.953 39.7348C179.062 39.8442 179.172 39.99 179.244 40.1358L178.771 40.4274C178.661 40.2087 178.479 39.99 178.297 39.8806C178.078 39.7348 177.859 39.6983 177.568 39.6983H177.531C177.312 39.6983 177.094 39.7348 176.911 39.8442C176.729 39.9171 176.583 40.0629 176.437 40.2087C176.292 40.3545 176.219 40.5368 176.146 40.7555C176.073 40.9742 176.036 41.2294 176.036 41.4846V41.6304C176.036 41.8856 176.073 42.1408 176.146 42.3595C176.219 42.5782 176.328 42.7605 176.474 42.9063C176.62 43.0521 176.766 43.1615 176.948 43.2708C177.13 43.3437 177.349 43.4167 177.568 43.4167H177.604C177.75 43.4167 177.859 43.3802 178.005 43.3437C178.114 43.3073 178.26 43.2708 178.333 43.1979C178.406 43.125 178.515 43.0521 178.625 42.9427C178.698 42.8334 178.771 42.7605 178.843 42.6511L179.281 42.9427C179.208 43.0886 179.099 43.2344 178.989 43.3437C178.88 43.4531 178.734 43.5625 178.588 43.6354C178.442 43.7083 178.297 43.7812 178.114 43.8176C177.932 43.8541 177.786 43.8906 177.604 43.8906H177.531C177.203 43.927 176.911 43.8906 176.656 43.7812Z" fill="white"/>
<path d="M190.363 41.5207C190.363 41.1562 190.399 40.8646 190.509 40.5729C190.618 40.2813 190.764 40.0626 190.946 39.8438C191.128 39.6251 191.347 39.4793 191.602 39.3699C191.858 39.2606 192.149 39.2241 192.441 39.2241H192.514C192.805 39.2241 193.097 39.2606 193.352 39.3699C193.607 39.4793 193.826 39.6251 194.008 39.8438C194.191 40.0626 194.336 40.2813 194.446 40.5729C194.555 40.8646 194.592 41.1562 194.592 41.5207V41.6665C194.592 41.9946 194.555 42.3227 194.446 42.6143C194.336 42.906 194.191 43.1247 194.008 43.3434C193.826 43.5621 193.607 43.708 193.352 43.8173C193.097 43.9267 192.805 43.9631 192.514 43.9631H192.441C192.149 43.9631 191.858 43.9267 191.602 43.8173C191.347 43.708 191.128 43.5621 190.946 43.3434C190.764 43.1247 190.618 42.906 190.509 42.6143C190.399 42.3227 190.363 42.0311 190.363 41.6665V41.5207ZM191.056 42.3956C191.128 42.6143 191.238 42.7966 191.384 42.9424C191.529 43.0882 191.675 43.1976 191.894 43.307C192.076 43.3799 192.295 43.4528 192.514 43.4528H192.55C192.769 43.4528 192.988 43.4163 193.17 43.307C193.352 43.2341 193.534 43.0882 193.68 42.9424C193.826 42.7966 193.935 42.6143 194.008 42.3956C194.081 42.1769 194.118 41.9217 194.118 41.6665V41.5207C194.118 41.2655 194.081 41.0104 194.008 40.7916C193.935 40.5729 193.826 40.3907 193.68 40.2448C193.534 40.099 193.389 39.9897 193.17 39.8803C192.988 39.8074 192.769 39.7345 192.55 39.7345H192.514C192.295 39.7345 192.076 39.7709 191.894 39.8803C191.712 39.9532 191.529 40.099 191.384 40.2448C191.238 40.3907 191.128 40.5729 191.056 40.7916C190.983 41.0104 190.946 41.2655 190.946 41.5207V41.6665C190.946 41.9217 190.983 42.1769 191.056 42.3956Z" fill="white"/>
<path d="M207.205 43.8175C206.986 43.7446 206.804 43.6352 206.658 43.4894C206.512 43.3436 206.403 43.1613 206.33 42.9426C206.257 42.7239 206.22 42.5051 206.22 42.2135V39.2607H206.731V42.1406C206.731 42.3593 206.767 42.5416 206.804 42.6874C206.84 42.8332 206.913 42.9791 207.022 43.0884C207.132 43.1978 207.241 43.2707 207.387 43.3071C207.533 43.3436 207.715 43.38 207.897 43.38C208.08 43.38 208.262 43.3436 208.408 43.3071C208.553 43.2707 208.663 43.1978 208.772 43.0884C208.882 42.9791 208.954 42.8697 208.991 42.6874C209.027 42.5051 209.064 42.3593 209.064 42.1406V39.2607H209.574V42.2135C209.574 42.5051 209.538 42.7239 209.465 42.9426C209.392 43.1613 209.283 43.3436 209.137 43.4894C208.991 43.6352 208.809 43.7446 208.626 43.8175C208.408 43.8904 208.189 43.9269 207.897 43.9269C207.606 43.9269 207.423 43.8904 207.205 43.8175Z" fill="white"/>
<path d="M221.568 39.2974H222.187L224.302 43.0157H224.338V39.2974H224.848V43.8906H224.302L222.151 40.1723H222.114V43.8906H221.604V39.2974H221.568Z" fill="white"/>
<path d="M237.607 39.8077H236.368V39.2974H239.394V39.8077H238.154V43.8906H237.644V39.8077H237.607Z" fill="white"/>
<path d="M251.569 39.2974H252.335L253.939 43.8906H253.355L252.845 42.4324L251.934 39.7713H251.897L250.986 42.4689L250.512 43.927H249.929L251.569 39.2974ZM251.059 42.0679H252.882L253.064 42.5782H250.913L251.059 42.0679Z" fill="white"/>
<path d="M265.312 39.2974H265.932L268.046 43.0157H268.083V39.2974H268.593V43.8906H268.046L265.896 40.1723H265.859V43.8906H265.349V39.2974H265.312Z" fill="white"/>
<path d="M281.352 39.8077H280.113V39.2974H283.138V39.8077H281.899V43.8906H281.389V39.8077H281.352Z" fill="white"/>
<path d="M295.35 43.9269C295.205 43.8904 295.059 43.8539 294.913 43.781C294.767 43.7081 294.621 43.6717 294.512 43.5623C294.403 43.453 294.257 43.38 294.184 43.2707L294.512 42.8697C294.585 42.979 294.694 43.052 294.804 43.1249C294.913 43.1978 295.022 43.2342 295.132 43.3071C295.241 43.38 295.351 43.38 295.496 43.4165C295.606 43.453 295.751 43.453 295.861 43.453C296.007 43.453 296.152 43.453 296.262 43.4165C296.371 43.38 296.481 43.3436 296.553 43.2707C296.626 43.1978 296.699 43.1249 296.736 43.052C296.772 42.9426 296.809 42.8332 296.809 42.7239C296.809 42.5416 296.772 42.3958 296.663 42.2864C296.553 42.1771 296.444 42.1042 296.335 42.0312C296.189 41.9583 296.043 41.8854 295.861 41.849C295.679 41.8125 295.496 41.7396 295.314 41.7032C295.168 41.6667 295.059 41.5938 294.913 41.5209C294.767 41.448 294.694 41.3751 294.585 41.3022C294.476 41.2293 294.403 41.0834 294.366 40.9741C294.293 40.8283 294.293 40.6824 294.293 40.5002C294.293 40.3179 294.33 40.1356 294.403 39.9898C294.476 39.844 294.549 39.6982 294.694 39.5888C294.84 39.4795 294.986 39.4066 295.132 39.3336C295.278 39.2607 295.496 39.2607 295.715 39.2607C296.007 39.2607 296.262 39.2972 296.517 39.4066C296.772 39.5159 296.991 39.6617 297.173 39.8076L296.845 40.2085C296.699 40.0627 296.517 39.9534 296.335 39.8805C296.152 39.8076 295.934 39.7711 295.715 39.7711C295.569 39.7711 295.46 39.7711 295.35 39.8076C295.241 39.844 295.132 39.8805 295.059 39.9534C294.986 40.0263 294.913 40.0992 294.877 40.1721C294.84 40.245 294.804 40.3544 294.804 40.4637C294.804 40.6095 294.84 40.7189 294.877 40.7918C294.95 40.8647 295.022 40.9741 295.095 41.0105C295.205 41.0834 295.314 41.1199 295.46 41.1928C295.606 41.2293 295.751 41.2657 295.897 41.3386C296.08 41.3751 296.225 41.448 296.408 41.5209C296.59 41.5938 296.736 41.6667 296.882 41.7761C297.027 41.8854 297.137 41.9948 297.21 42.1406C297.283 42.2864 297.319 42.4687 297.319 42.6874C297.319 42.9061 297.283 43.0884 297.21 43.2342C297.137 43.38 297.027 43.5259 296.918 43.6352C296.772 43.7446 296.626 43.8175 296.444 43.8904C296.262 43.9633 296.043 43.9998 295.788 43.9998C295.642 43.9633 295.496 43.9269 295.35 43.9269Z" fill="white"/>
</svg>
