<svg width="60" height="61" viewBox="0 0 60 61" fill="none" xmlns="http://www.w3.org/2000/svg">
<path d="M10.3833 16.1653C7.66334 12.8902 8.79597 9.12541 10.8921 7.33234C13.2866 5.28403 16.8393 5.31434 19.1859 7.40413C21.2821 9.27058 22.2919 12.954 19.682 16.0744C20.5275 16.7013 21.4559 17.2485 22.2025 17.9823C22.9427 18.7081 23.4979 19.6222 24.1934 20.5299C24.4167 20.4198 24.7597 20.2491 25.1617 20.0513C23.8424 18.5486 23.2889 16.8401 23.576 14.9066C23.8105 13.3257 24.589 12.0288 25.8397 11.0381C28.3092 9.08074 31.8092 9.26579 34.0712 11.4306C36.1658 13.4358 36.847 17.0794 34.3217 20.0434C34.6743 20.2268 35.0156 20.4023 35.3937 20.5985C36.3477 18.563 37.8217 17.0937 39.8445 16.194C37.5776 12.568 37.7738 9.56251 40.4172 7.2797C42.6936 5.31274 46.2048 5.32232 48.5307 7.30363C51.1389 9.52582 51.3272 12.56 49.0667 16.1988C50.4641 16.8401 51.6973 17.7175 52.5427 19.008C53.0692 19.812 53.452 20.7166 53.8413 21.6019C53.9801 21.9178 54.1045 22.0566 54.4602 22.0853C55.746 22.189 57.0318 22.3166 58.3112 22.4729C59.2221 22.5846 59.4566 22.8893 59.4566 23.8145C59.4582 31.0379 59.4582 38.2628 59.4566 45.4861C59.4566 46.5087 59.1615 46.8054 58.1501 46.807C55.8018 46.8086 53.452 46.807 51.1038 46.807C50.0813 46.807 49.9329 46.7017 49.5947 45.735C49.5165 45.5117 49.44 45.2883 49.3474 45.0219C47.9963 45.6377 46.6706 46.2407 45.2891 46.8708C46.0899 48.1438 46.3164 49.5429 45.4694 50.9371C44.6175 52.3394 43.303 52.8594 41.6471 52.6504C41.478 53.7751 41.0314 54.7163 40.1045 55.3831C39.1888 56.042 38.1663 56.1456 37.032 55.9638C36.7561 57.1778 36.185 58.186 35.0364 58.7651C33.9101 59.3346 32.7807 59.2755 31.6273 58.7523C31.5667 58.8672 31.5109 58.9661 31.4614 59.0666C30.4341 61.1516 27.9343 61.5727 26.2928 59.9025C22.9587 56.511 19.6437 53.0987 16.324 49.6928C14.8037 48.1343 13.1925 46.6921 11.2351 45.6919C10.865 45.5037 10.4806 45.3442 10.0913 45.1655C10.0323 45.2899 9.97487 45.3745 9.94935 45.4686C9.49948 47.0224 9.13098 46.8038 7.97442 46.8054C5.7251 46.807 3.47579 46.807 1.22648 46.8054C0.32675 46.8038 0.00131851 46.4832 0.00131851 45.585C-0.000276744 38.3011 -0.000276744 31.0171 0.00131851 23.7348C0.00131851 22.9021 0.254962 22.583 1.10523 22.4777C2.40537 22.3166 3.71029 22.1954 5.01521 22.0789C5.30077 22.0534 5.4922 22.0055 5.58313 21.6944C6.31375 19.1787 7.90741 17.3968 10.2524 16.2642C10.3003 16.2403 10.3386 16.1988 10.3833 16.1653ZM10.6497 43.441C13.7094 44.6103 16.0097 46.7049 18.1777 48.9782C18.961 49.7997 19.7554 50.6101 20.5482 51.4205C22.8566 53.7847 25.1697 56.1441 27.4749 58.5114C27.8529 58.8991 28.2581 59.2022 28.834 59.0761C29.9347 58.8353 30.2634 57.6133 29.4402 56.7566C27.8673 55.1215 26.2736 53.5055 24.6879 51.8815C24.0307 51.2083 23.919 50.6739 24.3466 50.2464C24.7964 49.7965 25.2941 49.905 25.9721 50.5973C27.9375 52.601 29.9076 54.6014 31.865 56.6115C32.4186 57.181 33.0503 57.492 33.8447 57.2831C35.1927 56.9289 35.6298 55.2874 34.6328 54.2377C33.0423 52.5643 31.412 50.9276 29.8023 49.2733C29.1387 48.5921 29.0382 48.0657 29.4817 47.6365C29.9156 47.2154 30.4468 47.335 31.1073 48.0082C32.9179 49.8555 34.7301 51.7044 36.5375 53.5565C37.0959 54.1292 37.7467 54.3988 38.5332 54.1468C39.8477 53.7272 40.2242 52.1416 39.2367 51.111C37.6255 49.4296 35.9871 47.7753 34.3616 46.1067C34.2228 45.9647 34.076 45.8243 33.9692 45.6584C33.7059 45.25 33.7634 44.856 34.1063 44.5258C34.4334 44.2099 34.8242 44.1972 35.2023 44.4205C35.3857 44.529 35.5373 44.6997 35.6888 44.856C37.4723 46.6746 39.2479 48.5044 41.0393 50.315C41.7365 51.0185 42.7303 51.0775 43.4737 50.5048C44.1756 49.9656 44.4309 48.9686 43.914 48.214C43.4721 47.5679 42.8898 47.0016 42.3044 46.4736C41.6615 45.8945 40.891 45.451 40.2656 44.8544C38.8682 43.524 37.5234 42.1361 36.1594 40.769C34.4461 39.0493 32.736 37.3264 31.0307 35.6115C29.6699 36.4984 29.102 37.5019 28.9919 39.0716C28.893 40.4882 28.3714 41.7357 27.3807 42.7646C25.7807 44.4269 23.7707 45.1559 21.5134 45.3202C20.5084 45.3936 20.1606 45.0921 20.159 44.0919C20.1558 41.3847 20.2196 38.676 20.1367 35.972C20.0776 34.0258 20.7349 32.4896 22.2233 31.2644C22.7194 30.856 23.1645 30.387 23.7611 29.8223C20.8816 30.1828 18.259 29.9052 15.646 29.0151C13.9837 33.8168 12.3295 38.5914 10.6497 43.441ZM48.754 43.2974C47.1125 38.5452 45.5172 33.9381 43.9347 29.3246C43.8199 28.988 43.6556 28.8875 43.2998 28.8779C42.4862 28.8572 41.6503 28.8715 40.8686 28.6865C38.7884 28.1919 36.7258 27.6208 34.6679 27.0418C32.074 26.3127 29.7465 26.753 27.7445 28.5844C26.1301 30.0616 24.5571 31.5835 22.9603 33.0782C22.2647 33.7291 21.9521 34.5219 21.9569 35.4711C21.9696 37.9374 21.96 40.4036 21.9616 42.8715C21.9616 43.0582 21.9808 43.2448 21.992 43.4474C22.2233 43.4107 22.4003 43.3852 22.5758 43.3549C25.3914 42.854 26.9915 41.1087 27.2084 38.2931C27.2946 37.1732 27.7827 36.2304 28.5261 35.4264C29.0239 34.8888 29.587 34.4087 30.1421 33.9269C30.9206 33.2537 31.2189 33.2728 31.9559 34.0082C35.18 37.2259 38.4024 40.4467 41.6264 43.6659C41.88 43.918 42.1321 44.1764 42.4081 44.3998C43.1706 45.0171 44.0751 45.2612 44.9796 44.9326C46.259 44.4715 47.481 43.8574 48.754 43.2974ZM1.84065 34.5746C1.84065 37.8369 1.85022 41.1008 1.82948 44.3631C1.82629 44.8656 1.97944 45.0012 2.47078 44.9932C4.20163 44.9661 5.93248 44.9677 7.66334 44.9932C8.0797 44.9996 8.24082 44.8512 8.37004 44.4747C10.4662 38.3824 12.5751 32.2933 14.6968 26.2106C14.8468 25.7815 14.8069 25.5965 14.3507 25.4337C10.5077 24.0554 6.58016 23.5274 2.51225 24.0826C1.91403 24.1639 1.82629 24.3872 1.82948 24.9073C1.85022 28.1281 1.83905 31.3521 1.84065 34.5746ZM57.6173 34.573C57.6173 31.3505 57.6077 28.1265 57.6268 24.9041C57.63 24.3825 57.5375 24.1623 56.9425 24.081C52.8969 23.5322 48.9885 24.0443 45.1615 25.413C44.6382 25.5996 44.6111 25.8006 44.7738 26.2681C46.8923 32.3332 48.9949 38.4016 51.0863 44.4747C51.2171 44.8544 51.3798 44.998 51.7946 44.9916C53.5254 44.9661 55.2563 44.9645 56.9871 44.9916C57.4801 44.9996 57.63 44.8576 57.6268 44.3599C57.6077 41.0992 57.6173 37.8353 57.6173 34.573ZM19.8766 28.1648C19.9357 27.967 19.9548 27.9303 19.9564 27.892C20.0362 25.622 20.7859 23.6295 22.3636 21.9609C22.4705 21.8476 22.4514 21.5206 22.3732 21.3467C21.5421 19.4834 20.1542 18.228 18.192 17.6441C17.9496 17.5723 17.6353 17.5787 17.4008 17.6696C15.7864 18.2934 14.1879 18.2902 12.5815 17.6553C12.422 17.593 12.2338 17.5404 12.0694 17.5627C10.1535 17.8084 7.80053 20.0864 7.41448 22.0677C7.53093 22.0837 7.64739 22.1028 7.76384 22.114C10.6688 22.3804 13.4685 23.0712 16.1549 24.2102C16.9063 24.5292 17.0706 24.8882 16.8106 25.6619C16.6287 26.2011 16.4404 26.7387 16.2235 27.3704C17.471 27.64 18.661 27.9 19.8766 28.1648ZM43.0047 27.1391C43.0637 26.9843 43.0813 26.962 43.0765 26.9476C42.9281 26.4978 42.7766 26.0479 42.6282 25.5965C42.3969 24.8882 42.5532 24.5005 43.2535 24.2373C44.3654 23.8193 45.4726 23.3551 46.6211 23.0696C48.403 22.6261 50.2184 22.3182 52.0195 21.9529C51.6143 20.0609 49.3985 17.9025 47.4299 17.5707C47.2497 17.5404 47.0359 17.593 46.8604 17.6632C45.2508 18.295 43.6508 18.2918 42.0396 17.6632C41.8194 17.5771 41.5275 17.5611 41.3026 17.6281C39.3196 18.2168 37.9206 19.4834 37.0592 21.3579C36.93 21.6402 36.9411 21.8364 37.1804 22.0853C38.2811 23.2275 38.9783 24.5898 39.2989 26.1468C39.334 26.3159 39.4728 26.5743 39.5988 26.5983C40.7394 26.8025 41.8896 26.9668 43.0047 27.1391ZM29.7353 20.1869C32.1426 20.1853 34.1351 18.2343 34.1478 15.867C34.1622 13.4821 32.1426 11.4864 29.721 11.4928C27.3169 11.4992 25.3197 13.4581 25.3085 15.8223C25.2973 18.2136 27.2994 20.1885 29.7353 20.1869ZM44.4994 7.63225C42.0316 7.62268 40.0583 9.5338 40.0407 11.949C40.0232 14.3387 42.0332 16.3152 44.4691 16.3057C46.8987 16.2961 48.8465 14.3722 48.8513 11.9809C48.8561 9.57527 46.9195 7.64182 44.4994 7.63225ZM15.027 7.63225C12.5847 7.62587 10.6162 9.52901 10.605 11.9091C10.5922 14.3499 12.5161 16.2833 14.976 16.3041C17.4088 16.3248 19.4204 14.3563 19.4156 11.9586C19.4108 9.57527 17.4471 7.63863 15.027 7.63225ZM21.8404 28.2238C22.997 28.0579 24.0945 27.9335 25.1793 27.7309C25.6451 27.6448 26.1747 27.506 26.5177 27.2093C29.0669 25.003 31.9272 24.333 35.1656 25.3013C35.8771 25.5151 36.5902 25.7225 37.391 25.9586C36.5965 23.6582 35.1289 22.1938 32.9083 21.5094C32.6562 21.4312 32.3244 21.4727 32.0692 21.5668C30.6797 22.0837 29.2472 22.2289 27.8769 21.6929C26.9612 21.3339 26.2178 21.503 25.4712 21.9369C24.8746 22.2831 24.2716 22.6612 23.7834 23.1398C22.3971 24.4957 21.7367 26.1612 21.8404 28.2238Z" fill="#031464"/>
<path d="M28.8019 3.22242C28.8019 2.50775 28.7907 1.79307 28.8051 1.07999C28.8178 0.387647 29.1608 0 29.7271 0C30.2934 0 30.646 0.386053 30.6508 1.07839C30.6635 2.54603 30.6635 4.01527 30.6508 5.4829C30.6444 6.17365 30.2918 6.56449 29.7287 6.56449C29.164 6.56449 28.8178 6.17524 28.8051 5.4845C28.7907 4.72994 28.8019 3.97698 28.8019 3.22242Z" fill="#031464"/>
<path d="M22.4527 2.00537C22.5755 2.10428 22.9026 2.25423 23.0573 2.50788C23.8677 3.8447 24.6446 5.20227 25.4119 6.56621C25.6847 7.04958 25.5316 7.55208 25.0992 7.80573C24.6749 8.05459 24.1405 7.94133 23.8629 7.47551C23.0445 6.09721 22.231 4.71412 21.4621 3.3071C21.1223 2.68814 21.5689 2.00856 22.4527 2.00537Z" fill="#031464"/>
<path d="M34.9789 7.93641C34.1589 7.92365 33.6915 7.24726 34.0058 6.66977C34.7923 5.22766 35.6218 3.80788 36.4641 2.39767C36.7225 1.96536 37.2601 1.884 37.6669 2.12648C38.0785 2.37215 38.2476 2.8587 37.9939 3.31495C37.2123 4.71558 36.413 6.10505 35.5819 7.47697C35.4367 7.71626 35.1081 7.84229 34.9789 7.93641Z" fill="#031464"/>
<path d="M10.6495 43.4409C12.3293 38.5913 13.9836 33.8167 15.6475 29.0166C18.2589 29.9052 20.8831 30.1843 23.7626 29.8238C23.1643 30.3885 22.7193 30.8575 22.2247 31.2659C20.7364 32.4911 20.0791 34.0257 20.1381 35.9735C20.2195 38.6775 20.1573 41.3862 20.1605 44.0934C20.1621 45.0936 20.5098 45.3951 21.5148 45.3217C23.7721 45.1574 25.7822 44.4284 27.3822 42.7661C28.3729 41.7372 28.8945 40.4897 28.9934 39.0731C29.1035 37.5034 29.673 36.5 31.0321 35.613C32.7359 37.3279 34.446 39.0508 36.1609 40.7705C37.5233 42.1376 38.8681 43.5255 40.2671 44.8559C40.8924 45.4525 41.6629 45.8944 42.3058 46.4751C42.8913 47.0031 43.4736 47.5695 43.9155 48.2155C44.4323 48.9701 44.1755 49.9671 43.4752 50.5063C42.7302 51.079 41.7379 51.0216 41.0408 50.3165C39.2493 48.5059 37.4738 46.6761 35.6903 44.8575C35.5372 44.7028 35.3872 44.5321 35.2038 44.422C34.8257 44.1987 34.4348 44.2114 34.1078 44.5273C33.7648 44.8591 33.7058 45.2531 33.9706 45.6599C34.0775 45.8242 34.2243 45.9646 34.363 46.1082C35.9886 47.7768 37.6269 49.4311 39.2382 51.1125C40.2256 52.1431 39.8491 53.7271 38.5347 54.1483C37.7482 54.4003 37.0973 54.1307 36.539 53.5581C34.7316 51.706 32.9209 49.8586 31.1087 48.0097C30.4483 47.3365 29.9155 47.2169 29.4832 47.638C29.0413 48.0672 29.1418 48.5936 29.8038 49.2748C31.415 50.9291 33.0438 52.5658 34.6342 54.2392C35.6329 55.2889 35.1942 56.9304 33.8462 57.2846C33.0533 57.4936 32.4216 57.1825 31.8665 56.613C29.9091 54.6013 27.9389 52.6025 25.9736 50.5988C25.2956 49.9065 24.7979 49.798 24.348 50.2479C23.9205 50.6754 24.0322 51.2098 24.6894 51.883C26.2751 53.507 27.8672 55.123 29.4417 56.7581C30.2664 57.6148 29.9362 58.8368 28.8355 59.0776C28.2596 59.2037 27.8528 58.9022 27.4763 58.5129C25.1696 56.1472 22.858 53.7862 20.5497 51.422C19.7569 50.61 18.9624 49.7996 18.1791 48.9797C16.008 46.7064 13.7092 44.6102 10.6495 43.4409Z" fill="white"/>
<path d="M48.7537 43.2969C47.4823 43.8568 46.2588 44.471 44.981 44.9352C44.0748 45.2639 43.1719 45.0198 42.4094 44.4024C42.1318 44.1775 41.8798 43.9207 41.6277 43.6686C38.4037 40.451 35.1813 37.2301 31.9573 34.0109C31.2203 33.2755 30.9219 33.2548 30.1435 33.9296C29.5883 34.4097 29.0252 34.8915 28.5275 35.4291C27.7825 36.2315 27.2959 37.1759 27.2098 38.2958C26.9912 41.1114 25.3928 42.8566 22.5771 43.3575C22.4017 43.3894 22.2262 43.4134 21.9933 43.4501C21.9821 43.2475 21.963 43.0608 21.963 42.8742C21.9614 40.4079 21.9694 37.9416 21.9582 35.4738C21.9534 34.5246 22.2661 33.7317 22.9616 33.0809C24.5585 31.5845 26.1314 30.0626 27.7458 28.587C29.7478 26.7557 32.0753 26.3154 34.6692 27.0444C36.7287 27.6235 38.7898 28.1946 40.87 28.6891C41.6516 28.8742 42.4892 28.8598 43.3011 28.8806C43.6553 28.8901 43.8196 28.9906 43.9361 29.3272C45.517 33.9359 47.1122 38.5446 48.7537 43.2969Z" fill="white"/>
<path d="M1.84059 34.5739C1.84059 31.3515 1.85016 28.1274 1.83101 24.905C1.82782 24.385 1.91557 24.1632 2.51379 24.0803C6.5801 23.5251 10.5092 24.0532 14.3522 25.4315C14.8084 25.5942 14.8483 25.7792 14.6984 26.2084C12.5751 32.2911 10.4677 38.3802 8.37157 44.4725C8.24236 44.8505 8.08124 44.9973 7.66488 44.9909C5.93402 44.9654 4.20317 44.9638 2.47231 44.9909C1.98097 44.9989 1.82782 44.8617 1.83101 44.3608C1.85016 41.1001 1.84059 37.8362 1.84059 34.5739Z" fill="white"/>
<path d="M57.6169 34.5725C57.6169 37.8348 57.6074 41.0971 57.6281 44.361C57.6313 44.8603 57.4829 45.0007 56.9884 44.9927C55.2576 44.9656 53.5267 44.9672 51.7959 44.9927C51.3811 44.9991 51.2184 44.8555 51.0876 44.4758C48.9962 38.4027 46.892 32.3327 44.7751 26.2692C44.6124 25.8017 44.6395 25.6007 45.1628 25.4141C48.9898 24.047 52.8982 23.5333 56.9437 24.0821C57.5388 24.1634 57.6313 24.382 57.6281 24.9052C57.6074 28.1276 57.6169 31.35 57.6169 34.5725Z" fill="white"/>
<path d="M19.8765 28.164C18.6609 27.8992 17.4708 27.6392 16.2233 27.368C16.4403 26.7363 16.6285 26.1987 16.8104 25.6595C17.0704 24.8858 16.9061 24.5253 16.1547 24.2078C13.4683 23.0688 10.6686 22.378 7.76367 22.1116C7.64721 22.1005 7.53076 22.0813 7.41431 22.0654C7.80036 20.0841 10.1534 17.8076 12.0693 17.5604C12.2336 17.5396 12.4218 17.5907 12.5814 17.6529C14.1878 18.2878 15.7862 18.2894 17.4006 17.6672C17.6351 17.5763 17.9494 17.5699 18.1919 17.6417C20.154 18.2256 21.5419 19.4811 22.373 21.3443C22.4512 21.5198 22.4688 21.8468 22.3635 21.9585C20.7858 23.6271 20.0344 25.6196 19.9562 27.8897C19.9546 27.9279 19.9339 27.9646 19.8765 28.164Z" fill="white"/>
<path d="M43.0044 27.1386C41.8893 26.9663 40.7392 26.8036 39.597 26.5962C39.4709 26.5739 39.3321 26.3155 39.2971 26.1448C38.9764 24.5878 38.2793 23.2255 37.1786 22.0832C36.9393 21.8344 36.9281 21.6398 37.0573 21.3558C37.9188 19.4798 39.3178 18.2147 41.3007 17.6261C41.5256 17.5591 41.8192 17.5766 42.0377 17.6612C43.6489 18.2897 45.2506 18.2913 46.8586 17.6612C47.0357 17.5926 47.2478 17.5384 47.4281 17.5687C49.3966 17.9005 51.6124 20.0605 52.0176 21.9508C50.2166 22.3162 48.4012 22.6256 46.6193 23.0675C45.4707 23.3531 44.3652 23.8173 43.2517 24.2353C42.5498 24.4985 42.395 24.8861 42.6264 25.5944C42.7731 26.0459 42.9263 26.4941 43.0746 26.9456C43.081 26.96 43.0635 26.9823 43.0044 27.1386Z" fill="white"/>
<path d="M29.735 20.1865C27.299 20.1881 25.297 18.2132 25.3082 15.8203C25.3193 13.4577 27.3166 11.4971 29.7206 11.4907C32.1422 11.4844 34.1618 13.48 34.1475 15.8649C34.1331 18.2339 32.1406 20.1849 29.735 20.1865Z" fill="white"/>
<path d="M44.4993 7.63187C46.9193 7.64144 48.8559 9.5749 48.8511 11.979C48.8463 14.3718 46.8985 16.2941 44.469 16.3037C42.0314 16.3133 40.023 14.3383 40.0405 11.947C40.0581 9.53342 42.0314 7.6223 44.4993 7.63187Z" fill="white"/>
<path d="M15.027 7.63185C17.4454 7.63823 19.4107 9.57487 19.4155 11.9598C19.4203 14.3559 17.4087 16.3244 14.9759 16.3053C12.5176 16.2845 10.5937 14.3511 10.6049 11.9103C10.6177 9.52861 12.5846 7.62547 15.027 7.63185Z" fill="white"/>
<path d="M21.8405 28.2237C21.7384 26.1611 22.3972 24.494 23.7835 23.1396C24.2717 22.6627 24.8747 22.283 25.4713 21.9368C26.2179 21.5029 26.9597 21.3338 27.8769 21.6928C29.2473 22.2304 30.6798 22.0852 32.0693 21.5667C32.3229 21.4726 32.6563 21.4311 32.9084 21.5093C35.129 22.1937 36.5966 23.6565 37.3911 25.9585C36.5902 25.7224 35.8772 25.515 35.1657 25.3012C31.9289 24.3313 29.067 25.0029 26.5178 27.2092C26.1748 27.5059 25.6468 27.6447 25.1794 27.7308C24.0946 27.9334 22.997 28.0594 21.8405 28.2237Z" fill="white"/>
</svg>
