<svg width="61" height="60" viewBox="0 0 61 60" fill="none" xmlns="http://www.w3.org/2000/svg">
<path d="M37.7039 16.2503C38.0926 16.2503 38.3823 16.2503 38.6721 16.2503C44.1718 16.2503 49.6715 16.2449 55.173 16.2539C57.6259 16.2575 59.458 17.5101 60.122 19.6445C60.2732 20.1286 60.3434 20.6577 60.3452 21.1652C60.3614 26.3175 60.3578 31.4717 60.3542 36.6241C60.3524 39.3326 58.3818 41.4004 55.6697 41.5605C54.4658 41.6307 54.0932 42.0176 54.086 43.2378C54.0788 44.6325 54.0914 46.029 54.0806 47.4238C54.0698 48.7501 53.5389 49.5941 52.4988 49.9793C51.4855 50.3554 50.5407 50.0692 49.6715 49.1244C47.9079 47.2042 46.1298 45.2966 44.3824 43.362C43.2774 42.1382 41.9492 41.5407 40.2846 41.5551C36.176 41.5911 32.0674 41.5677 27.9606 41.5659C24.7033 41.5641 22.6553 39.5233 22.6535 36.2732C22.6517 32.897 22.6535 29.5227 22.6535 26.1466C22.6535 25.9 22.6535 25.6553 22.6535 25.2827C20.2635 25.3241 17.8754 24.9318 16.0344 27.0482C14.2491 29.0998 12.3703 31.0686 10.5095 33.0518C9.3433 34.2936 7.47526 34.1676 6.66722 32.7693C6.41348 32.3283 6.3163 31.7507 6.2983 31.2288C6.24971 29.8124 6.2875 28.3943 6.27851 26.9762C6.27131 25.774 5.88619 25.3745 4.68222 25.2809C1.82979 25.0596 0.00314938 23.0908 0.00134973 20.2311C-0.000449911 15.1687 -0.000449911 10.1046 0.00134973 5.04216C0.00314938 2.11594 2.07274 0.010348 4.98817 0.00674866C14.2149 -0.00224955 23.4417 -0.00224955 32.6685 0.00674866C35.5713 0.010348 37.6823 2.11593 37.6985 5.02596C37.7165 8.49207 37.7039 11.9564 37.7039 15.4225C37.7039 15.6673 37.7039 15.9102 37.7039 16.2503ZM51.6943 47.9817C51.7573 47.9475 51.8185 47.9133 51.8815 47.8791C51.8815 46.308 51.8797 44.7387 51.8815 43.1676C51.8869 40.9432 53.1808 39.5305 55.3782 39.347C57.2876 39.1868 58.1982 38.2078 58.2 36.2984C58.2018 31.3943 58.1658 26.4885 58.2198 21.5845C58.2378 19.8694 57.185 18.4351 55.1172 18.4477C46.0506 18.5035 36.9822 18.5017 27.9156 18.4459C26.179 18.4351 24.822 19.5419 24.8472 21.5269C24.912 26.4309 24.867 31.335 24.8688 36.2408C24.8706 38.368 25.8316 39.3362 27.9426 39.338C31.9828 39.3398 36.023 39.3596 40.0632 39.3308C42.4999 39.3146 44.4975 40.1676 46.1226 42.0104C47.8017 43.9163 49.5509 45.7573 51.2732 47.6217C51.3974 47.7603 51.5539 47.8647 51.6943 47.9817ZM35.4003 16.2503C35.4435 16.101 35.4759 16.0398 35.4759 15.9768C35.4759 12.2191 35.5011 8.45968 35.4399 4.70382C35.4309 4.15313 35.107 3.53945 34.7633 3.07694C34.2144 2.33549 33.3487 2.19871 32.4651 2.19871C23.3949 2.20231 14.3247 2.20052 5.25451 2.20232C5.03135 2.20232 4.8046 2.21132 4.58325 2.23831C3.18492 2.40388 2.17531 3.43507 2.16812 4.85139C2.14112 10.0488 2.14112 15.2479 2.16631 20.4471C2.17351 21.9768 3.31989 23.0602 4.82799 23.0962C7.01096 23.1502 8.46508 24.6385 8.47407 26.8376C8.48127 28.2324 8.47227 29.6289 8.47766 31.0236C8.47947 31.2522 8.51546 31.4807 8.53526 31.7075C8.63964 31.7741 8.74401 31.8406 8.84839 31.9072C8.96537 31.6877 9.04276 31.4321 9.20473 31.254C10.9468 29.3445 12.714 27.4567 14.4543 25.5455C15.9822 23.8664 17.8682 23.0566 20.1304 23.0944C20.9528 23.107 21.7752 23.0962 22.6517 23.0962C22.6517 22.4105 22.6427 21.8058 22.6535 21.203C22.6751 20.1196 22.963 19.1208 23.6199 18.2443C24.6907 16.8172 26.152 16.2413 27.894 16.2485C30.3847 16.2575 32.8754 16.2503 35.4003 16.2503Z" fill="#031464"/>
<path d="M7.40326 46.1007C4.6444 42.1325 6.19749 38.1625 8.47764 36.3124C11.1987 34.1043 15.0122 34.1565 17.5407 36.4672C19.7704 38.5044 21.1219 42.5068 18.4495 46.0935C18.6924 46.2375 18.9336 46.3796 19.1747 46.5236C22.5059 48.514 24.5233 51.4402 25.2881 55.2321C25.6336 56.9453 24.4243 58.4768 22.6732 58.484C16.1855 58.5092 9.6978 58.5092 3.20829 58.4858C1.38705 58.4786 0.220881 56.9255 0.598806 55.1241C1.43024 51.1757 3.58802 48.2117 7.13511 46.277C7.23049 46.2285 7.31508 46.1619 7.40326 46.1007ZM12.8616 56.3137C16.0254 56.3137 19.1891 56.3155 22.3511 56.3119C23.0818 56.3119 23.2257 56.1301 23.0763 55.4264C22.3403 51.9873 20.3589 49.5344 17.2221 47.9921C16.8118 47.7906 16.4717 47.7708 16.0307 47.9921C14.0008 49.0125 11.9276 49.0197 9.89037 48.0227C9.40446 47.7852 9.03553 47.7959 8.58022 48.0209C5.49563 49.5542 3.54123 51.9747 2.80517 55.3599C2.62701 56.1823 2.73498 56.3119 3.57361 56.3119C6.669 56.3137 9.76619 56.3137 12.8616 56.3137ZM8.1861 41.6988C8.1735 44.3712 10.2881 46.5488 12.9156 46.5668C15.4963 46.5848 17.6522 44.4252 17.6774 41.7995C17.7026 39.0929 15.5574 36.8901 12.9138 36.9099C10.3043 36.9279 8.1987 39.0605 8.1861 41.6988Z" fill="#031464"/>
<path d="M35.7388 51.7971C34.632 49.1966 35.0172 47.1018 36.8762 45.6171C38.4617 44.3501 40.7832 44.2943 42.4497 45.4839C44.4023 46.8768 44.8396 48.9392 43.7724 51.8204C45.3327 52.7941 46.4557 54.1726 47.2116 55.8408C47.4473 56.3627 47.6291 56.9422 47.6777 57.5091C47.8018 58.9668 46.9866 59.9152 45.5343 59.9278C41.6309 59.9656 37.7274 59.9602 33.824 59.9278C32.4311 59.917 31.5492 58.6411 31.8552 57.1546C32.2943 55.0166 33.5756 53.4437 35.2709 52.1624C35.4131 52.0544 35.5624 51.9572 35.7082 51.8528C35.7208 51.842 35.728 51.815 35.7388 51.7971ZM34.0472 57.6963C37.884 57.6963 41.6506 57.6963 45.4191 57.6963C45.3759 56.3861 44.1396 54.4749 42.4587 53.6633C42.2031 53.5391 41.8072 53.5355 41.5391 53.6399C40.4251 54.0736 39.2895 54.196 38.2133 53.6939C37.5619 53.3897 37.1119 53.5679 36.6152 53.8936C36.3903 54.0412 36.1671 54.196 35.9674 54.3741C34.9758 55.256 34.2739 56.307 34.0472 57.6963ZM42.1941 49.2847C42.1869 47.8828 41.1072 46.821 39.7088 46.8354C38.3609 46.8498 37.3081 47.9332 37.3063 49.3045C37.3045 50.6885 38.4167 51.8222 39.761 51.8132C41.1216 51.8024 42.2013 50.6795 42.1941 49.2847Z" fill="#031464"/>
<path d="M51.6945 47.9819C51.5523 47.8632 51.3957 47.7606 51.2734 47.6256C49.5511 45.7594 47.8 43.9183 46.1228 42.0143C44.4995 40.1715 42.5001 39.3185 40.0634 39.3346C36.0232 39.3616 31.983 39.3436 27.9428 39.3418C25.8318 39.34 24.869 38.3718 24.869 36.2447C24.8672 31.3406 24.9122 26.4348 24.8474 21.5308C24.8222 19.5458 26.1791 18.439 27.9158 18.4498C36.9824 18.5038 46.0508 18.5074 55.1174 18.4516C57.1852 18.439 58.238 19.8715 58.22 21.5884C58.166 26.4924 58.202 31.3964 58.2002 36.3022C58.2002 38.2117 57.2896 39.1907 55.3783 39.3508C53.181 39.5344 51.8852 40.9471 51.8816 43.1715C51.878 44.7426 51.8816 46.3119 51.8816 47.883C51.8204 47.9153 51.7575 47.9477 51.6945 47.9819ZM41.5625 26.0533C45.0628 26.0533 48.5631 26.0533 52.0652 26.0533C52.2668 26.0533 52.4719 26.0695 52.6699 26.0425C53.2404 25.9669 53.6507 25.4882 53.6111 24.9213C53.5715 24.3292 53.2494 23.9675 52.6501 23.8973C52.4053 23.8685 52.157 23.8793 51.9104 23.8793C45.2014 23.8793 38.4905 23.8793 31.7814 23.8793C31.3333 23.8793 30.8834 23.8757 30.4353 23.8919C29.9242 23.9099 29.6111 24.1996 29.4635 24.6765C29.2295 25.4324 29.7892 26.0497 30.7232 26.0515C34.3369 26.0569 37.9506 26.0533 41.5625 26.0533ZM37.731 33.9555C39.0988 33.9555 40.4647 33.9555 41.8324 33.9555C42.8186 33.9555 43.8048 33.9771 44.791 33.9429C45.6081 33.9141 46.0868 33.3436 45.9248 32.6238C45.7772 31.9705 45.2967 31.7438 44.6705 31.7438C40.0076 31.7456 35.3465 31.7437 30.6836 31.7473C30.5289 31.7473 30.3669 31.7563 30.2211 31.8049C29.6938 31.9777 29.3825 32.3628 29.4203 32.9117C29.4563 33.448 29.7622 33.8349 30.3381 33.9123C30.5811 33.9447 30.8294 33.9537 31.0742 33.9537C33.2931 33.9573 35.5121 33.9555 37.731 33.9555Z" fill="white"/>
<path d="M35.4004 16.2503C32.8755 16.2503 30.3848 16.2557 27.8959 16.2485C26.1539 16.2431 24.6926 16.8172 23.6218 18.2444C22.9649 19.1208 22.677 20.1196 22.6554 21.203C22.6446 21.8059 22.6536 22.4087 22.6536 23.0962C21.7771 23.0962 20.9547 23.107 20.1323 23.0944C17.8719 23.0584 15.9859 23.8664 14.4562 25.5455C12.7159 27.4567 10.9505 29.3446 9.20663 31.254C9.04466 31.4321 8.96727 31.6877 8.85029 31.9072C8.74591 31.8407 8.64153 31.7741 8.53715 31.7075C8.51736 31.4789 8.47956 31.2504 8.47956 31.0236C8.47416 29.6289 8.48136 28.2324 8.47596 26.8377C8.46516 24.6385 7.01106 23.1502 4.82989 23.0962C3.32179 23.0584 2.17541 21.975 2.16821 20.4471C2.14302 15.2497 2.14302 10.0506 2.17001 4.8514C2.17721 3.43508 3.18861 2.4039 4.58513 2.23833C4.80649 2.21133 5.03325 2.20233 5.25641 2.20233C14.3266 2.20053 23.3968 2.20233 32.467 2.19873C33.3524 2.19873 34.2181 2.3355 34.7652 3.07696C35.1071 3.53947 35.4328 4.15315 35.4418 4.70384C35.503 8.4615 35.4778 12.2191 35.4778 15.9768C35.4778 16.0398 35.4436 16.1028 35.4004 16.2503ZM18.1239 7.56347C17.0693 7.56347 16.0147 7.56347 14.9583 7.56347C12.3542 7.56347 9.75012 7.55807 7.14603 7.56707C6.41718 7.56887 5.94386 8.01338 5.93486 8.64686C5.92587 9.28573 6.38118 9.70864 7.11723 9.74463C7.2738 9.75183 7.43217 9.74824 7.58874 9.74824C14.5696 9.74824 21.5504 9.74823 28.5312 9.74644C28.7777 9.74644 29.0765 9.81662 29.26 9.70505C29.5948 9.49809 30.0357 9.22095 30.1095 8.89881C30.1851 8.57307 29.9511 8.08177 29.6974 7.80462C29.5156 7.60486 29.0819 7.57606 28.7597 7.57426C25.2162 7.55807 21.671 7.56347 18.1239 7.56347ZM11.6847 17.6649C13.1406 17.6649 14.5984 17.6685 16.0543 17.6631C16.9145 17.6595 17.3824 17.2797 17.4022 16.5923C17.4238 15.8724 16.9559 15.4495 16.0579 15.4459C13.1442 15.4351 10.2306 15.4351 7.317 15.4459C6.44777 15.4495 5.92227 15.9102 5.94566 16.5887C5.96906 17.2384 6.49456 17.6613 7.3134 17.6649C8.77111 17.6685 10.2288 17.6649 11.6847 17.6649Z" fill="white"/>
<path d="M12.8617 56.3144C9.76633 56.3144 6.66913 56.3162 3.57375 56.3144C2.73511 56.3144 2.62714 56.1848 2.80531 55.3624C3.54136 51.9772 5.49757 49.5585 8.58036 48.0234C9.03387 47.7967 9.4046 47.7859 9.8905 48.0252C11.9277 49.0222 14.0009 49.015 16.0309 47.9946C16.4718 47.7733 16.8119 47.7931 17.2222 47.9946C20.359 49.5369 22.3404 51.9898 23.0765 55.4289C23.2277 56.1326 23.0819 56.3126 22.3512 56.3144C19.1893 56.3162 16.0255 56.3144 12.8617 56.3144Z" fill="white"/>
<path d="M8.18611 41.699C8.19871 39.0607 10.3043 36.9281 12.9138 36.9083C15.5575 36.8885 17.7026 39.0913 17.6774 41.798C17.6522 44.4255 15.4963 46.5832 12.9156 46.5652C10.2881 46.5472 8.17171 44.3697 8.18611 41.699Z" fill="white"/>
<path d="M34.047 57.6963C34.2738 56.3069 34.9756 55.256 35.9672 54.3741C36.167 54.196 36.3901 54.0412 36.6151 53.8936C37.1118 53.5679 37.5617 53.3915 38.2132 53.6939C39.2912 54.196 40.4267 54.0736 41.5389 53.6399C41.8071 53.5355 42.203 53.5409 42.4585 53.6633C44.1394 54.4749 45.3758 56.3861 45.4189 57.6963C41.6505 57.6963 37.8838 57.6963 34.047 57.6963Z" fill="white"/>
<path d="M42.1941 49.2849C42.2013 50.6815 41.1215 51.8026 39.761 51.8134C38.4149 51.8224 37.3045 50.6887 37.3063 49.3047C37.3081 47.9334 38.3609 46.85 39.7088 46.8356C41.1071 46.8194 42.1851 47.883 42.1941 49.2849Z" fill="white"/>
<path d="M41.5624 26.0534C37.9487 26.0534 34.3369 26.0552 30.7232 26.0516C29.7892 26.0498 29.2295 25.4325 29.4634 24.6767C29.611 24.1998 29.9241 23.91 30.4352 23.892C30.8833 23.8758 31.3333 23.8794 31.7814 23.8794C38.4904 23.8794 45.2013 23.8794 51.9104 23.8794C52.1569 23.8794 52.4071 23.8686 52.65 23.8974C53.2493 23.9676 53.5697 24.3293 53.611 24.9214C53.6488 25.4883 53.2403 25.9688 52.6698 26.0426C52.4719 26.0678 52.2667 26.0534 52.0651 26.0534C48.5648 26.0534 45.0627 26.0534 41.5624 26.0534Z" fill="#031464"/>
<path d="M37.731 33.9554C35.512 33.9554 33.293 33.9572 31.0741 33.9536C30.8275 33.9536 30.581 33.9464 30.338 33.9122C29.7621 33.833 29.4562 33.4479 29.4202 32.9116C29.3824 32.3627 29.6938 31.9776 30.221 31.8048C30.3668 31.758 30.5288 31.7472 30.6836 31.7472C35.3464 31.7436 40.0075 31.7455 44.6704 31.7437C45.2967 31.7437 45.7772 31.9704 45.9247 32.6237C46.0867 33.3435 45.608 33.914 44.791 33.9428C43.8066 33.977 42.8186 33.9554 41.8323 33.9554C40.4646 33.9554 39.0987 33.9554 37.731 33.9554Z" fill="#031464"/>
<path d="M18.1238 7.56346C21.6709 7.56346 25.2161 7.55807 28.7632 7.57247C29.0854 7.57427 29.5191 7.60305 29.7009 7.80282C29.9528 8.08176 30.1868 8.57127 30.113 8.897C30.0392 9.21914 29.5983 9.49808 29.2635 9.70324C29.08 9.81482 28.7812 9.74463 28.5347 9.74463C21.5539 9.74643 14.5731 9.74643 7.59224 9.74643C7.43567 9.74643 7.2773 9.75003 7.12073 9.74284C6.38468 9.70684 5.92937 9.28392 5.93836 8.64505C5.94736 8.01157 6.42066 7.56886 7.14952 7.56526C9.7536 7.55626 12.3577 7.56167 14.9618 7.56167C16.0146 7.56347 17.0692 7.56346 18.1238 7.56346Z" fill="#031464"/>
<path d="M11.6848 17.6654C10.2289 17.6654 8.77117 17.669 7.31526 17.6636C6.49643 17.66 5.97092 17.2389 5.94753 16.5874C5.92413 15.9089 6.44963 15.4482 7.31885 15.4446C10.2325 15.4338 13.1461 15.4338 16.0597 15.4446C16.9577 15.4482 17.4257 15.8711 17.4041 16.591C17.3843 17.2785 16.9146 17.66 16.0561 17.6618C14.5984 17.669 13.1425 17.6654 11.6848 17.6654Z" fill="#031464"/>
</svg>
