<svg width="58" height="60" viewBox="0 0 58 60" fill="none" xmlns="http://www.w3.org/2000/svg">
<path d="M6.8343 59.4756C5.70094 58.9996 5.30868 58.1236 5.35055 56.9329C5.40016 55.5422 5.3614 54.1483 5.36295 52.7561C5.36295 50.9126 5.87149 50.3296 7.78316 50.1002C7.60486 49.8955 7.46842 49.7327 7.32423 49.5761C4.49626 46.4892 2.36908 42.9946 1.48224 38.8751C1.05742 36.903 0.872924 34.8704 0.708579 32.8564C0.427952 29.4082 0.240352 25.9539 0.0356958 22.4995C-0.00461516 21.8298 -0.0387242 21.1336 0.097713 20.4855C0.387642 19.1026 1.5365 18.0963 2.84506 17.9305C4.37068 17.7366 5.69939 18.3785 6.38468 19.6933C6.56453 20.0375 6.72577 20.1383 7.12888 20.0948C8.79248 19.9196 10.5135 21.3383 10.6483 23.022C10.839 25.4112 10.9677 27.8051 11.1243 30.1958C11.1615 30.7556 11.1879 31.3153 11.2468 31.8734C11.2608 32.0021 11.3553 32.1509 11.4577 32.2362C13.7771 34.1634 16.1105 36.072 18.4222 38.0069C20.23 39.5201 20.9385 41.5542 21.1075 43.8349C21.2625 45.9156 21.4377 47.9932 21.6129 50.1715C21.9757 50.1715 22.3385 50.1467 22.6982 50.1761C23.7169 50.2583 24.4657 51.0165 24.4781 52.0367C24.5014 53.8925 24.4905 55.7499 24.4828 57.6073C24.4797 58.5701 23.8486 59.0787 23.0827 59.4787C20.9168 59.4787 18.7493 59.4787 16.5834 59.4787C16.2299 59.1515 15.9415 58.7872 16.1508 58.274C16.3647 57.7469 16.8283 57.7298 17.3167 57.7345C18.9028 57.7469 20.4889 57.7158 22.075 57.7515C22.6285 57.7639 22.7618 57.5779 22.7509 57.0554C22.7184 55.567 22.7137 54.077 22.7525 52.5886C22.7664 52.0367 22.585 51.9142 22.0641 51.9173C17.326 51.9359 12.5864 51.9281 7.84828 51.9281C7.64207 51.9281 7.43741 51.9281 7.2095 51.9281C7.1909 52.1545 7.16764 52.3049 7.16609 52.4553C7.16299 54.0212 7.17849 55.5887 7.15524 57.1546C7.14904 57.6104 7.28237 57.7577 7.7475 57.75C9.37234 57.7236 10.9972 57.75 12.622 57.7329C13.1259 57.7283 13.5724 57.798 13.7554 58.3252C13.9383 58.8554 13.6453 59.2089 13.2205 59.4787C11.0887 59.4756 8.96148 59.4756 6.8343 59.4756ZM19.8455 50.1203C19.6501 47.8428 19.4516 45.6334 19.2718 43.421C19.1276 41.6504 18.3632 40.2193 16.9973 39.0875C15.0019 37.4363 13.022 35.7634 11.0251 34.1138C10.7476 33.8843 10.4189 33.6936 10.084 33.5618C9.27622 33.2455 8.38472 33.4796 7.9289 34.0812C7.49013 34.6595 7.53044 35.4332 8.05448 36.1789C8.19867 36.3836 8.36612 36.5727 8.54132 36.7526C10.0638 38.3201 11.5941 39.8813 13.1135 41.4519C13.2841 41.6287 13.5337 41.8628 13.5182 42.0519C13.4934 42.3791 13.374 42.7899 13.143 42.9884C12.7538 43.3202 12.3088 43.1543 11.96 42.7946C10.3026 41.0876 8.63744 39.3899 6.99244 37.6704C6.31956 36.9681 5.90715 36.1247 5.86219 35.1339C5.84823 34.827 5.88079 34.5169 5.86063 34.2099C5.68699 31.3928 5.50869 28.5772 5.32574 25.7616C5.22496 24.219 5.14279 22.6747 4.99705 21.1352C4.90402 20.1522 4.14897 19.5801 3.19546 19.6638C2.34427 19.7382 1.68535 20.5228 1.73341 21.4484C1.80473 22.7802 1.9024 24.1104 1.98923 25.4407C2.17063 28.2377 2.29931 31.0393 2.55203 33.8285C2.70707 35.551 2.91948 37.289 3.33344 38.9635C4.40944 43.3171 6.91802 46.8303 10.1134 49.8878C10.2824 50.049 10.591 50.1389 10.8344 50.1405C13.6577 50.1575 16.4826 50.1513 19.3059 50.1498C19.4594 50.1498 19.6113 50.1327 19.8455 50.1203ZM6.85135 21.929C7.06841 25.3198 7.28392 28.6904 7.49943 32.0362C8.17697 31.8563 8.76613 31.7013 9.4018 31.5323C9.4018 31.4408 9.408 31.3106 9.40025 31.1804C9.24211 28.5803 9.09327 25.9818 8.91497 23.3833C8.8421 22.2995 7.79091 21.6329 6.85135 21.929Z" fill="#031464"/>
<path d="M34.9188 59.4758C33.8381 58.9813 33.4412 58.1471 33.4971 56.9641C33.5684 55.4401 33.511 53.9083 33.5157 52.3811C33.5188 50.9082 34.2475 50.1733 35.7126 50.1531C35.9219 50.15 36.1328 50.1531 36.3963 50.1531C36.4878 48.981 36.5638 47.8508 36.6677 46.7236C36.8041 45.2631 36.9235 43.7995 37.1219 42.3468C37.3607 40.587 38.2382 39.142 39.5825 38.0087C41.8879 36.0644 44.2291 34.1652 46.547 32.2365C46.6586 32.1434 46.7485 31.962 46.7594 31.8163C46.9222 29.5418 47.0695 27.2658 47.2214 24.9898C47.271 24.258 47.254 23.5122 47.3904 22.7959C47.7268 21.0362 49.3749 19.8997 51.1595 20.1199C51.2153 20.1276 51.2742 20.1214 51.2897 20.1214C51.6448 19.6579 51.9285 19.1633 52.3285 18.7912C53.3952 17.8005 54.6603 17.602 55.9813 18.1772C57.279 18.7431 58.0402 19.7881 57.9984 21.2207C57.9317 23.4797 57.7643 25.7371 57.6247 27.9945C57.4945 30.0969 57.3162 32.1977 57.2108 34.3016C56.9363 39.7219 55.0185 44.4817 51.5223 48.6167C51.1145 49.0989 50.6912 49.5686 50.2742 50.0477C50.3331 50.0927 50.3626 50.1361 50.3905 50.1345C51.9099 50.0865 52.7176 51.1501 52.6587 52.6431C52.6014 54.0726 52.6091 55.5068 52.6587 56.9362C52.699 58.127 52.3037 59.003 51.1703 59.4758C49.0431 59.4758 46.9144 59.4758 44.7872 59.4758C44.3655 59.203 44.0694 58.8526 44.2539 58.3223C44.4368 57.7952 44.8818 57.7239 45.3841 57.7285C47.026 57.7456 48.6679 57.7239 50.3098 57.7425C50.7083 57.7471 50.8556 57.6293 50.8509 57.2184C50.8339 55.6153 50.8339 54.0121 50.8509 52.4075C50.8556 52.0261 50.7254 51.916 50.3501 51.916C45.5004 51.9268 40.6523 51.9284 35.8025 51.9144C35.3514 51.9129 35.2537 52.0788 35.2583 52.4912C35.2785 54.0369 35.2847 55.5827 35.2552 57.1269C35.2459 57.6231 35.4196 57.7502 35.8894 57.744C37.57 57.7208 39.2507 57.7425 40.9313 57.7301C41.3654 57.727 41.6972 57.8711 41.8585 58.2758C42.0631 58.789 41.7856 59.1549 41.4213 59.4758C39.2522 59.4758 37.0863 59.4758 34.9188 59.4758ZM38.1313 50.1516C38.4414 50.1516 38.6507 50.1516 38.8615 50.1516C41.105 50.1516 43.3484 50.1516 45.5919 50.1516C47.7408 50.1516 47.7315 50.1438 49.1935 48.5826C53.1719 44.336 55.3006 39.3358 55.4945 33.4938C55.5844 30.7713 55.8417 28.055 56.0216 25.3371C56.1069 24.0456 56.1999 22.7525 56.265 21.4595C56.3115 20.523 55.665 19.7447 54.8154 19.6641C53.8433 19.571 53.1239 20.1649 52.9936 21.1835C52.9471 21.5478 52.93 21.9153 52.9052 22.2812C52.7626 24.4611 52.62 26.6394 52.4804 28.8193C52.3564 30.748 52.1672 32.6752 52.1424 34.6055C52.1269 35.8009 51.8153 36.8211 51.0122 37.6676C49.3749 39.3932 47.7067 41.0894 46.0446 42.7902C45.9144 42.9235 45.7438 43.0491 45.5686 43.1003C45.1593 43.2196 44.7965 43.1111 44.5671 42.7266C44.3112 42.2956 44.4275 41.9173 44.7609 41.5762C46.3284 39.9715 47.9036 38.3746 49.4509 36.7497C49.7765 36.4086 50.0711 35.9962 50.2478 35.5621C50.6478 34.5884 50.0509 33.6334 49.0059 33.4582C48.2648 33.3342 47.6292 33.5714 47.0726 34.0334C44.9903 35.7637 42.9112 37.4955 40.843 39.2413C39.7577 40.156 39.0057 41.2971 38.8491 42.7282C38.5824 45.1623 38.3747 47.6042 38.1313 50.1516ZM51.1502 21.9432C50.0509 21.7199 49.1548 22.3417 49.0835 23.3975C48.9098 25.9572 48.7625 28.5185 48.6059 31.0798C48.5951 31.2488 48.6044 31.4178 48.6044 31.5465C49.2571 31.714 49.8571 31.8675 50.5083 32.0349C50.7222 28.6612 50.9362 25.2999 51.1502 21.9432Z" fill="#031464"/>
<path d="M13.2176 59.476C13.644 59.2047 13.9355 58.8512 13.7525 58.3225C13.5696 57.7953 13.123 57.724 12.6191 57.7302C10.9943 57.7473 9.36946 57.7209 7.74462 57.7473C7.27794 57.755 7.1446 57.6062 7.15235 57.1519C7.17561 55.586 7.16011 54.0185 7.16321 52.4526C7.16321 52.3022 7.18646 52.1518 7.20662 51.9254C7.43453 51.9254 7.64074 51.9254 7.84539 51.9254C12.5835 51.9254 17.3231 51.9332 22.0612 51.9146C22.5822 51.913 22.7651 52.034 22.7496 52.5859C22.7108 54.0743 22.7155 55.5643 22.7481 57.0527C22.7589 57.5767 22.6256 57.7612 22.0721 57.7488C20.4875 57.7131 18.8999 57.7442 17.3138 57.7318C16.827 57.7271 16.3619 57.7442 16.1479 58.2713C15.9402 58.786 16.2285 59.1488 16.5805 59.476C15.4611 59.476 14.3386 59.476 13.2176 59.476Z" fill="white"/>
<path d="M41.4182 59.476C41.7825 59.155 42.06 58.7907 41.8554 58.2759C41.6941 57.8728 41.3639 57.7271 40.9282 57.7302C39.2476 57.7426 37.5669 57.7209 35.8862 57.7442C35.4165 57.7504 35.2428 57.6232 35.2521 57.1271C35.2816 55.5829 35.2754 54.0355 35.2552 52.4913C35.2506 52.0789 35.3482 51.913 35.7994 51.9146C40.6491 51.9285 45.4973 51.927 50.347 51.9161C50.7222 51.9146 50.8525 52.0262 50.8478 52.4076C50.8308 54.0107 50.8308 55.6139 50.8478 57.2186C50.8525 57.6294 50.7036 57.7473 50.3067 57.7426C48.6648 57.7255 47.0229 57.7457 45.381 57.7286C44.8771 57.724 44.4337 57.7953 44.2508 58.3225C44.0663 58.8527 44.3624 59.2031 44.7841 59.476C43.6616 59.476 42.5407 59.476 41.4182 59.476Z" fill="white"/>
<path d="M29.018 12.5752C35.8166 12.5892 41.1981 18.0141 41.1841 24.836C41.1702 31.5183 35.6693 36.968 28.9575 36.9479C22.1992 36.9262 16.7991 31.4485 16.8177 24.6313C16.8347 17.9691 22.3077 12.5613 29.018 12.5752ZM36.691 31.7012C40.0306 28.3337 40.6911 21.8731 36.5158 17.5226C32.3793 13.2124 25.3853 13.2791 21.3589 17.6529C17.2719 22.0917 18.089 28.495 21.317 31.6997C21.8472 29.7182 22.9744 28.1539 24.6396 26.9942C22.6876 24.1383 23.5837 21.1305 25.3109 19.5676C27.1854 17.8715 30.0009 17.656 32.1079 19.1103C33.1607 19.8359 33.8863 20.8142 34.2444 22.0499C34.7607 23.8344 34.4119 25.4763 33.3467 26.9957C35.0662 28.174 36.1499 29.7431 36.691 31.7012ZM29.2071 35.1478C31.1203 35.1509 33.0537 34.5742 34.7933 33.3912C34.9437 33.2889 35.0987 33.0269 35.077 32.861C34.8382 30.971 33.9064 29.495 32.308 28.4593C32.1452 28.3539 31.8273 28.3384 31.6537 28.4267C29.8893 29.3198 28.1311 29.3384 26.3822 28.419C26.0954 28.2686 25.9094 28.2857 25.6566 28.4578C24.1434 29.4934 23.2256 30.895 22.9232 32.7137C22.8597 33.0951 22.9806 33.2687 23.2705 33.4548C25.0241 34.5819 26.9342 35.1587 29.2071 35.1478ZM28.9172 27.3306C30.9839 27.3601 32.6925 25.7197 32.7173 23.6856C32.7421 21.6266 31.0924 19.9196 29.0567 19.8979C27.0288 19.8762 25.3217 21.5134 25.2845 23.5166C25.2473 25.5771 26.8892 27.3027 28.9172 27.3306Z" fill="#031464"/>
<path d="M34.5172 4.39991C34.4521 4.5317 34.387 4.79372 34.2273 4.96892C33.0583 6.25112 32.6242 7.74418 32.728 9.46825C32.7885 10.4745 32.2552 10.859 31.3327 10.4791C29.7543 9.82795 28.2411 9.8388 26.6643 10.4822C25.7651 10.8481 25.2209 10.4683 25.2767 9.51941C25.3806 7.78139 24.9465 6.28213 23.7806 4.95651C23.1991 4.29603 23.4193 3.62005 24.2751 3.41695C26.0008 3.00763 27.2783 2.08358 28.1946 0.562617C28.6489 -0.190889 29.3559 -0.186237 29.8148 0.568819C30.7233 2.06498 31.9575 3.03399 33.6878 3.37663C34.156 3.46811 34.4893 3.75959 34.5172 4.39991ZM26.9279 8.68218C28.376 7.88836 29.6536 7.90697 30.9528 8.59226C31.0055 7.8217 30.9249 7.1116 31.1296 6.49764C31.3404 5.86816 31.8288 5.33327 32.2521 4.66969C30.7497 4.49139 29.7249 3.69447 28.9884 2.26033C28.2814 3.72548 27.224 4.47744 25.6519 4.69915C26.762 5.8232 27.224 7.04338 26.9279 8.68218Z" fill="#031464"/>
<path d="M21.3308 8.0622C21.275 8.16918 21.2005 8.42345 21.0424 8.59865C19.8656 9.8979 19.3788 11.3879 19.568 13.1491C19.6594 14.0096 19.0501 14.4577 18.2625 14.1228C16.6128 13.4205 15.0237 13.4298 13.3771 14.1275C12.6174 14.4499 11.9941 14.005 12.0856 13.1972C12.2903 11.391 11.7399 9.8948 10.5755 8.53663C10.0375 7.90871 10.267 7.21877 11.0763 7.03117C12.8019 6.63116 14.0857 5.72106 14.9973 4.19079C15.4609 3.41248 16.1942 3.41558 16.6578 4.2001C17.5555 5.71951 18.8284 6.62031 20.5308 7.00946C21.1385 7.149 21.3447 7.47459 21.3308 8.0622ZM12.4283 8.30406C13.6515 9.44207 14.0097 10.6871 13.7337 12.2871C15.1787 11.4964 16.4919 11.5258 17.9772 12.2856C17.5447 10.6312 18.0966 9.44363 19.1819 8.29631C17.5865 8.09011 16.5369 7.3273 15.833 5.88541C15.1043 7.28854 14.095 8.10871 12.4283 8.30406Z" fill="#031464"/>
<path d="M47.6771 8.07633C47.6244 8.17711 47.55 8.43138 47.3903 8.60658C46.212 9.90583 45.7267 11.3989 45.9143 13.1602C46.0058 14.0145 45.398 14.4548 44.6026 14.1183C42.9747 13.4299 41.4041 13.4222 39.7731 14.1106C38.9452 14.4594 38.342 14.0222 38.4335 13.1276C38.6118 11.3896 38.1219 9.93839 36.9901 8.62053C36.3637 7.89183 36.5746 7.2329 37.4955 7.01584C39.2056 6.61273 40.4522 5.68248 41.3561 4.18477C41.8119 3.43126 42.5328 3.41731 42.9809 4.16462C43.905 5.70884 45.2027 6.64064 46.9469 7.03135C47.5019 7.15383 47.6942 7.48717 47.6771 8.07633ZM42.2259 5.98946C41.7344 6.58638 41.3855 7.2143 40.8584 7.5957C40.3281 7.98021 39.6211 8.12129 38.8831 8.41277C40.0305 9.44226 40.3312 10.7074 40.108 12.2718C41.5421 11.5214 42.8398 11.5229 44.291 12.2795C43.9313 10.6531 44.4368 9.4376 45.5252 8.29649C43.9081 8.09959 42.891 7.29027 42.2259 5.98946Z" fill="#031464"/>
<path d="M19.8455 50.1208C19.6114 50.1347 19.4594 50.1518 19.3075 50.1518C16.4842 50.1533 13.6593 50.1595 10.836 50.1425C10.5926 50.1409 10.284 50.0525 10.115 49.8897C6.9196 46.8308 4.41101 43.319 3.33502 38.9655C2.92106 37.291 2.7102 35.553 2.55361 33.8305C2.30244 31.0397 2.1722 28.2396 1.9908 25.4427C1.90398 24.1124 1.8063 22.7821 1.73498 21.4503C1.68537 20.5247 2.34585 19.7418 3.19703 19.6658C4.15054 19.5821 4.9056 20.1542 4.99862 21.1371C5.14281 22.6752 5.22654 24.2209 5.32731 25.7636C5.51026 28.5792 5.68856 31.3963 5.86221 34.2119C5.88081 34.5188 5.84981 34.8289 5.86376 35.1359C5.90872 36.1282 6.32113 36.9701 6.99402 37.6724C8.63902 39.3903 10.3042 41.0895 11.9616 42.7966C12.3104 43.1547 12.7554 43.3221 13.1445 42.9904C13.3756 42.7935 13.4949 42.381 13.5197 42.0539C13.5337 41.8632 13.2841 41.6291 13.1151 41.4539C11.5957 39.8833 10.0654 38.322 8.54289 36.7546C8.36769 36.5747 8.20025 36.3856 8.05606 36.1809C7.53201 35.4351 7.4917 34.6615 7.93047 34.0832C8.3863 33.4816 9.27779 33.2475 10.0856 33.5638C10.4205 33.6956 10.7491 33.8863 11.0267 34.1157C13.0252 35.7654 15.0035 37.4383 16.9989 39.0895C18.3648 40.2197 19.1292 41.6508 19.2734 43.4229C19.4501 45.6323 19.6486 47.8432 19.8455 50.1208Z" fill="white"/>
<path d="M6.8515 21.9288C7.78951 21.6327 8.84224 22.2994 8.91666 23.3847C9.09496 25.9832 9.24225 28.5832 9.40195 31.1818C9.4097 31.312 9.4035 31.4438 9.4035 31.5337C8.76627 31.7027 8.17866 31.8577 7.50113 32.0376C7.28562 28.6902 7.07011 25.3181 6.8515 21.9288Z" fill="white"/>
<path d="M38.1313 50.1514C38.3747 47.6041 38.5825 45.1622 38.8507 42.7264C39.0073 41.2954 39.7592 40.1558 40.8445 39.2395C42.9128 37.4938 44.9919 35.7619 47.0741 34.0317C47.6307 33.5696 48.2664 33.3324 49.0075 33.4565C50.0509 33.6317 50.6479 34.5867 50.2494 35.5604C50.0711 35.993 49.7781 36.4054 49.4525 36.748C47.9052 38.3713 46.3299 39.9682 44.7624 41.5745C44.4291 41.9156 44.3113 42.2954 44.5686 42.7249C44.7981 43.1078 45.1609 43.2179 45.5702 43.0985C45.7454 43.0474 45.916 42.9218 46.0462 42.7885C47.7082 41.0876 49.3765 39.3915 51.0138 37.6659C51.8169 36.8193 52.1285 35.8007 52.144 34.6038C52.1688 32.6735 52.3595 30.7463 52.482 28.8176C52.6215 26.6377 52.7642 24.4594 52.9068 22.2795C52.9301 21.9136 52.9487 21.5461 52.9952 21.1818C53.1254 20.1647 53.8464 19.5693 54.8169 19.6623C55.6666 19.743 56.3131 20.5228 56.2666 21.4577C56.2015 22.7508 56.1084 24.0423 56.0232 25.3353C55.8433 28.0548 55.5875 30.7711 55.496 33.4921C55.3022 39.3326 53.1735 44.3327 49.1951 48.5808C47.7331 50.1421 47.7424 50.1499 45.5935 50.1499C43.35 50.1499 41.1065 50.1499 38.8631 50.1499C38.6507 50.1514 38.4414 50.1514 38.1313 50.1514Z" fill="white"/>
<path d="M51.1503 21.9432C50.9364 25.2998 50.7224 28.6612 50.5085 32.0333C49.8573 31.8659 49.2573 31.7124 48.6045 31.5449C48.6045 31.4163 48.5952 31.2473 48.6061 31.0783C48.7627 28.517 48.91 25.9557 49.0836 23.3959C49.1534 22.3416 50.0511 21.7184 51.1503 21.9432Z" fill="white"/>
<path d="M36.6909 31.7019C36.1483 29.7437 35.0645 28.1732 33.3466 26.9948C34.4118 25.4754 34.7606 23.832 34.2443 22.049C33.8862 20.8133 33.1606 19.835 32.1079 19.1094C30.0008 17.6551 27.1853 17.8721 25.3108 19.5668C23.5836 21.1296 22.6875 24.1374 24.6395 26.9933C22.9743 28.153 21.8472 29.7174 21.3169 31.6988C18.0889 28.4956 17.2719 22.0908 21.3588 17.652C25.3852 13.2782 32.3807 13.2131 36.5157 17.5217C40.6925 21.8738 40.0305 28.3359 36.6909 31.7019Z" fill="white"/>
<path d="M29.2071 35.1477C26.9341 35.1586 25.024 34.5818 23.2736 33.4546C22.9837 33.2686 22.8627 33.0934 22.9263 32.7135C23.2286 30.8949 24.1465 29.4933 25.6597 28.4576C25.9124 28.2855 26.0985 28.2685 26.3853 28.4189C28.1342 29.3383 29.8923 29.3197 31.6567 28.4266C31.8288 28.3398 32.1482 28.3553 32.311 28.4592C33.9095 29.4933 34.8413 30.9709 35.0801 32.8608C35.1018 33.0267 34.9467 33.2887 34.7963 33.3911C33.0537 34.574 31.1203 35.1508 29.2071 35.1477Z" fill="white"/>
<path d="M28.9171 27.3304C26.8891 27.3025 25.2472 25.5769 25.2844 23.5164C25.3216 21.5132 27.0271 19.876 29.0566 19.8977C31.0923 19.9194 32.7404 21.6248 32.7172 23.6854C32.6924 25.7195 30.9838 27.3599 28.9171 27.3304Z" fill="white"/>
<path d="M26.9279 8.68251C27.224 7.04526 26.762 5.82508 25.6519 4.70102C27.2255 4.47931 28.2814 3.72736 28.9884 2.26221C29.7248 3.69635 30.7496 4.49172 32.252 4.67156C31.8303 5.3336 31.3404 5.87004 31.1295 6.49951C30.9248 7.11348 31.0039 7.82358 30.9527 8.59414C29.6535 7.9073 28.3759 7.88869 26.9279 8.68251Z" fill="white"/>
<path d="M12.4283 8.30351C14.095 8.10971 15.1044 7.28798 15.8331 5.8833C16.537 7.32519 17.5866 8.08955 19.182 8.29421C18.0967 9.44152 17.5447 10.6291 17.9773 12.2834C16.492 11.5237 15.1788 11.4927 13.7338 12.285C14.0098 10.6865 13.6516 9.43997 12.4283 8.30351Z" fill="white"/>
<path d="M42.2259 5.98926C42.891 7.29006 43.9081 8.09938 45.5267 8.29474C44.4383 9.43585 43.9329 10.6529 44.2926 12.2778C42.8414 11.5227 41.5437 11.5212 40.1095 12.27C40.3328 10.7056 40.0336 9.4405 38.8847 8.41102C39.6212 8.12109 40.3297 7.98 40.8599 7.59395C41.3855 7.21409 41.7344 6.58617 42.2259 5.98926Z" fill="white"/>
</svg>
