<svg width="48" height="61" viewBox="0 0 48 61" fill="none" xmlns="http://www.w3.org/2000/svg">
<path d="M8.39326 44.5334C10.064 43.5254 11.725 42.6018 13.3017 41.5517C14.5381 40.7285 15.7843 40.6847 17.1033 41.1547C21.1059 42.5839 25.1069 44.0229 29.0997 45.4781C29.9278 45.7795 30.7169 46.1895 31.5401 46.5039C31.7152 46.5703 32.0004 46.4942 32.1786 46.3888C35.0015 44.6954 37.8162 42.9907 40.6294 41.2811C42.3682 40.2245 44.1669 39.9328 46.0321 40.8954C48.0253 41.9228 48.6038 44.219 47.3074 45.8492C47.134 46.068 46.9185 46.2624 46.6997 46.4358C41.6649 50.4335 36.6252 54.428 31.5888 58.4241C30.4107 59.3591 29.1046 59.6865 27.6186 59.3559C22.7215 58.2653 17.8212 57.1974 12.9225 56.1198C12.2273 55.9675 11.5548 56.0031 10.9309 56.3742C10.1158 56.8603 9.30072 57.3465 8.50831 57.8667C8.36247 57.9623 8.25714 58.2134 8.24255 58.4014C8.1437 59.62 7.43556 60.346 6.21858 60.3671C4.8039 60.3914 3.38923 60.393 1.97455 60.3638C0.742988 60.3379 0.00243071 59.5471 0.00243071 58.309C-0.000810238 53.7101 -0.000810238 49.1128 0.00243071 44.5139C0.00405119 43.2143 0.767295 42.4511 2.07502 42.4446C3.32765 42.4381 4.58352 42.4883 5.83452 42.43C7.21193 42.3684 8.10481 42.78 8.39326 44.5334ZM32.8932 48.2929C33.4539 49.9749 33.1266 51.3864 31.8934 52.524C30.6505 53.668 29.2148 53.7944 27.6688 53.1673C26.306 52.6147 24.9237 52.1075 23.5512 51.5776C22.2905 51.0931 21.0314 50.6069 19.7706 50.1208C19.3072 49.9425 19.0284 49.6071 19.0625 49.1064C19.0949 48.6267 19.4157 48.3221 19.8711 48.2491C20.1093 48.2119 20.3848 48.2994 20.623 48.3885C23.2239 49.3737 25.8166 50.3817 28.4191 51.3621C29.6021 51.8077 30.7348 51.328 31.1172 50.2634C31.4948 49.2133 30.9584 48.1065 29.8143 47.6917C25.3434 46.0712 20.8661 44.4669 16.3887 42.8627C15.606 42.5823 14.8687 42.6504 14.1362 43.1074C12.3375 44.2287 10.5193 45.3209 8.69304 46.4002C8.35437 46.5995 8.22149 46.8069 8.22311 47.2072C8.24255 49.8404 8.23283 52.4753 8.23445 55.1086C8.23445 55.2755 8.262 55.4424 8.28306 55.6855C8.71411 55.4133 9.07062 55.1913 9.4255 54.9628C10.5922 54.2109 11.8368 53.8738 13.2271 54.1801C17.8115 55.1864 22.4233 56.0825 26.972 57.2298C28.7902 57.6884 30.0752 57.2574 31.4445 56.1457C36.0451 52.4121 40.7072 48.7547 45.3482 45.0714C45.7793 44.7295 46.1536 44.347 46.0677 43.7588C45.9737 43.1106 45.507 42.7719 44.9172 42.5564C43.7796 42.1432 42.7295 42.3781 41.7329 42.9729C39.8256 44.1104 37.9248 45.2626 36.0224 46.4083C34.9869 47.0338 33.9514 47.656 32.8932 48.2929ZM1.96807 44.3794C1.96807 49.0821 1.96807 53.749 1.96807 58.4192C3.43298 58.4192 4.85414 58.4192 6.28016 58.4192C6.28016 53.7166 6.28016 49.0642 6.28016 44.3794C4.82659 44.3794 3.40057 44.3794 1.96807 44.3794Z" fill="#031464"/>
<path d="M23.9837 33.6371C23.7569 32.5951 23.214 31.7979 22.3681 31.1983C19.5096 29.1727 17.7028 26.4535 17.168 22.976C15.9284 14.9125 21.5482 8.65096 27.9734 7.6884C34.8685 6.65453 41.0976 10.8078 42.5998 17.6171C43.7989 23.0538 41.8949 27.4777 37.5909 30.9017C36.8325 31.5045 36.1308 32.1187 35.8246 33.0715C35.7225 33.3892 35.7095 33.6403 36.0223 33.9207C37.565 35.3062 37.2733 37.4728 35.4211 38.4532C35.0808 38.633 34.9139 38.8129 34.8815 39.2132C34.815 40.038 34.687 40.8596 34.5687 41.6795C34.478 42.305 34.149 42.6421 33.5251 42.6469C31.1398 42.6648 28.7544 42.6631 26.3675 42.6502C25.7906 42.6469 25.4163 42.3277 25.3287 41.7427C25.204 40.9033 25.1213 40.0558 24.9803 39.2196C24.9479 39.0284 24.7907 38.7724 24.6255 38.7011C22.3357 37.7029 21.997 35.243 23.9837 33.6371ZM33.5348 33.3584C34.4083 30.9422 34.4277 30.9649 36.4598 29.3201C39.7947 26.6188 41.2224 23.0927 40.6147 18.8502C39.7332 12.6957 33.6483 8.51484 27.5261 9.75451C22.7084 10.7317 18.8452 15.3646 18.7917 20.2908C18.7496 24.1103 20.2826 27.1892 23.3096 29.5033C24.1895 30.1758 25.1748 30.8612 25.4195 31.9307C25.7566 33.3956 26.6332 33.5107 27.8032 33.36C27.9815 33.3373 28.1662 33.3568 28.3477 33.3568C30.0816 33.3584 31.8171 33.3584 33.5348 33.3584ZM29.7024 37.0336C31.0555 37.0336 32.4102 37.0385 33.7633 37.032C34.4925 37.0288 34.9447 36.656 34.9268 36.097C34.909 35.5509 34.4715 35.1863 33.7795 35.1847C31.0717 35.1782 28.3655 35.1782 25.6577 35.1847C24.922 35.1863 24.491 35.5574 24.5023 36.1407C24.5136 36.6998 24.9204 37.0288 25.6415 37.032C26.9946 37.0385 28.3493 37.0336 29.7024 37.0336ZM32.9255 38.996C30.8659 38.996 28.8987 38.996 26.8731 38.996C26.9363 39.6248 26.993 40.2 27.0513 40.7785C28.9813 40.7785 30.8513 40.7785 32.7538 40.7785C32.8121 40.179 32.8656 39.6199 32.9255 38.996Z" fill="#031464"/>
<path d="M30.6941 2.81554C30.6941 3.4216 30.7071 4.02927 30.6893 4.63533C30.6731 5.20574 30.3247 5.58169 29.798 5.57683C29.2778 5.57358 28.85 5.32565 28.8338 4.77469C28.7933 3.44266 28.7868 2.10738 28.8371 0.775353C28.8581 0.211427 29.2908 -0.0478476 29.8677 0.00724862C30.4235 0.0607243 30.6893 0.386435 30.6941 0.934156C30.699 1.56128 30.6957 2.18841 30.6941 2.81554Z" fill="#031464"/>
<path d="M16.3319 5.23828C16.6722 5.44246 16.9412 5.54456 17.1324 5.72929C17.9767 6.54439 18.8048 7.37569 19.6231 8.21672C20.0947 8.69962 20.1092 9.19387 19.7057 9.61033C19.3249 10.0057 18.7529 10.0025 18.3089 9.56658C17.4565 8.73041 16.6187 7.87966 15.7793 7.03215C15.4714 6.72102 15.2818 6.33859 15.5476 5.94482C15.7291 5.67258 16.0435 5.48946 16.3319 5.23828Z" fill="#031464"/>
<path d="M24.9983 5.78745C24.7342 6.04673 24.5105 6.40324 24.1929 6.5426C23.7424 6.7403 23.3081 6.54097 23.0942 6.07103C22.7458 5.30293 22.4298 4.51862 22.1025 3.74079C21.9307 3.33243 21.7411 2.93055 21.6066 2.51085C21.4365 1.97934 21.6844 1.61149 22.1608 1.38624C22.6146 1.17072 23.0602 1.28901 23.2547 1.70871C23.8283 2.94838 24.3307 4.22207 24.8557 5.4828C24.8784 5.53628 24.8687 5.60271 24.8735 5.66267C24.9156 5.70156 24.9562 5.74532 24.9983 5.78745Z" fill="#031464"/>
<path d="M40.3102 10.2051C40.0672 9.99771 39.7058 9.82432 39.581 9.54398C39.466 9.28632 39.4822 8.79856 39.6556 8.61383C40.5679 7.64478 41.5305 6.71949 42.5141 5.82337C42.8965 5.47497 43.3551 5.58678 43.7051 5.95463C44.0584 6.32572 44.1151 6.78593 43.7667 7.15702C42.8803 8.0969 41.9583 9.00436 41.0314 9.90373C40.8871 10.0447 40.6376 10.0739 40.3102 10.2051Z" fill="#031464"/>
<path d="M35.6885 6.81058C34.8701 6.8122 34.3888 6.14781 34.6303 5.51258C35.0776 4.34259 35.5669 3.18882 36.0709 2.04314C36.2832 1.56186 36.7791 1.39982 37.2425 1.57969C37.7335 1.7709 37.9831 2.24571 37.7805 2.76588C37.3187 3.95207 36.8423 5.13339 36.3124 6.28879C36.1924 6.55293 35.8246 6.70201 35.6885 6.81058Z" fill="#031464"/>
<path d="M32.8935 48.2925C33.9516 47.6557 34.9871 47.0334 36.0226 46.4096C37.925 45.2639 39.8259 44.1133 41.7332 42.9741C42.7298 42.3794 43.7798 42.1445 44.9174 42.5577C45.5072 42.7716 45.9739 43.1103 46.0679 43.7601C46.1538 44.3483 45.7795 44.7324 45.3484 45.0727C40.7074 48.756 36.0453 52.4134 31.4448 56.147C30.0755 57.2586 28.7904 57.6897 26.9722 57.2311C22.4236 56.0838 17.8117 55.1877 13.2274 54.1814C11.837 53.8767 10.5925 54.2138 9.42572 54.9641C9.07245 55.1909 8.71433 55.4145 8.28328 55.6868C8.26221 55.4437 8.23629 55.2768 8.23467 55.1099C8.23143 52.4766 8.24277 49.8417 8.22332 47.2084C8.22008 46.8082 8.35458 46.6024 8.69326 46.4015C10.5195 45.3222 12.3377 44.23 14.1364 43.1086C14.8673 42.6517 15.6062 42.5836 16.3889 42.864C20.8663 44.4682 25.3437 46.0725 29.8146 47.693C30.9586 48.1078 31.495 49.2146 31.1174 50.2647C30.735 51.3293 29.6023 51.809 28.4193 51.3634C25.8168 50.383 23.2241 49.375 20.6232 48.3898C20.3866 48.3007 20.1095 48.2115 19.8713 48.2504C19.416 48.3233 19.0951 48.6264 19.0627 49.1077C19.0287 49.6084 19.3058 49.9438 19.7708 50.1221C21.0316 50.6082 22.2907 51.0944 23.5514 51.5789C24.924 52.1072 26.3062 52.6144 27.669 53.1686C29.215 53.7957 30.6507 53.6693 31.8936 52.5252C33.1268 51.3877 33.4541 49.9762 32.8935 48.2925Z" fill="white"/>
<path d="M1.96802 44.3789C3.3989 44.3789 4.82492 44.3789 6.2801 44.3789C6.2801 49.0621 6.2801 53.7145 6.2801 58.4187C4.85409 58.4187 3.43293 58.4187 1.96802 58.4187C1.96802 53.7485 1.96802 49.0815 1.96802 44.3789Z" fill="white"/>
<path d="M33.535 33.3584C31.8173 33.3584 30.0818 33.3584 28.3462 33.3584C28.1647 33.3584 27.98 33.339 27.8017 33.3617C26.6334 33.5124 25.7551 33.3973 25.418 31.9324C25.1717 30.8629 24.1881 30.1774 23.3082 29.5049C20.2811 27.1909 18.7481 24.112 18.7903 20.2925C18.8437 15.3663 22.707 10.7317 27.5246 9.7562C33.6468 8.51491 39.7317 12.6957 40.6132 18.8519C41.2209 23.0943 39.7949 26.6205 36.4583 29.3218C34.4279 30.9666 34.4084 30.9423 33.535 33.3584ZM30.0364 12.323C29.7366 12.323 29.6151 12.3166 29.4935 12.3247C28.8534 12.3619 28.3981 12.7865 28.4191 13.3245C28.4402 13.8463 28.8794 14.2222 29.5016 14.2465C29.6021 14.2498 29.7042 14.2465 29.8047 14.2482C33.1574 14.2644 35.9268 16.9722 36.0338 20.3379C36.0581 21.1222 36.4065 21.5387 37.0255 21.5241C37.6445 21.5095 37.9686 21.085 37.9605 20.2958C37.9184 16.0388 34.1961 12.3749 30.0364 12.323Z" fill="white"/>
<path d="M29.7023 37.0335C28.3492 37.0335 26.9945 37.0384 25.6414 37.0319C24.9219 37.0286 24.5135 36.6981 24.5022 36.1406C24.4908 35.5573 24.9219 35.1862 25.6576 35.1845C28.3654 35.1781 31.0716 35.1781 33.7794 35.1845C34.4713 35.1862 34.9089 35.5508 34.9267 36.0969C34.9445 36.6576 34.4924 37.0286 33.7632 37.0319C32.4101 37.0384 31.0554 37.0335 29.7023 37.0335Z" fill="white"/>
<path d="M32.9258 38.9961C32.8658 39.6184 32.8107 40.179 32.754 40.7786C30.8499 40.7786 28.9815 40.7786 27.0515 40.7786C26.9948 40.2017 26.9365 39.6248 26.8733 38.9961C28.8989 38.9961 30.8661 38.9961 32.9258 38.9961Z" fill="white"/>
<path d="M30.0365 12.3229C34.1962 12.3764 37.9185 16.0387 37.9622 20.2973C37.9703 21.0864 37.6462 21.511 37.0272 21.5256C36.4082 21.5402 36.0614 21.1237 36.0355 20.3394C35.9285 16.9737 33.1591 14.2659 29.8064 14.2497C29.7059 14.2497 29.6038 14.2529 29.5033 14.248C28.8811 14.2237 28.4403 13.8478 28.4209 13.326C28.3998 12.788 28.8535 12.3634 29.4952 12.3262C29.6152 12.3164 29.7367 12.3229 30.0365 12.3229Z" fill="#031464"/>
</svg>
