<svg width="66" height="61" viewBox="0 0 66 61" fill="none" xmlns="http://www.w3.org/2000/svg">
<path d="M19.4165 55.1652C19.7031 56.622 19.1918 57.5385 17.8218 58.0342C16.1273 58.6475 14.4294 59.2518 12.7286 59.8473C11.2782 60.3553 10.2174 59.8581 9.69359 58.4043C7.74471 52.9948 5.80338 47.5825 3.86866 42.168C3.36997 40.7724 3.8934 39.6912 5.29827 39.177C6.88385 38.5966 8.47509 38.0318 10.0643 37.4611C11.7433 36.858 12.3432 37.0272 13.4703 38.4559C15.3389 37.7878 17.2261 37.1143 19.1125 36.4383C19.671 36.2381 20.2258 36.028 20.7849 35.8295C21.9853 35.4031 23.1613 35.4677 24.3135 36.0111C27.7005 37.6088 31.1056 39.1695 34.4628 40.8272C35.2706 41.226 35.9207 41.9445 36.7381 42.5908C36.7359 42.5921 36.9134 42.5004 37.0822 42.395C40.1272 40.4939 43.1571 38.5686 46.2191 36.6955C49.1844 34.8814 52.8135 36.2672 53.7814 39.5411C54.4259 41.7209 53.5975 43.9009 51.5708 45.252C48.3174 47.4208 45.0507 49.5702 41.7892 51.7272C39.5577 53.2031 37.3076 54.6519 35.0993 56.1618C33.5335 57.2323 31.8981 57.493 30.0873 56.9377C27.732 56.2154 25.3458 55.5906 23.003 54.8313C21.7349 54.4197 20.5891 54.5339 19.4165 55.1652ZM18.6119 53.0282C18.951 52.9038 19.1884 52.825 19.4191 52.7304C20.698 52.2053 21.9807 52.1851 23.3054 52.5896C25.8354 53.3621 28.3833 54.0764 30.9151 54.8434C31.9106 55.145 32.7999 54.9979 33.6536 54.4323C39.2208 50.7445 44.7948 47.0666 50.3527 43.3646C50.7578 43.0948 51.1343 42.7111 51.3864 42.2966C52.0476 41.2094 51.8046 39.7849 50.8865 38.9008C49.9439 37.9933 48.5953 37.8435 47.4125 38.5765C44.206 40.5641 41.0203 42.585 37.8074 44.5622C37.3163 44.8643 37.0744 45.207 36.966 45.7725C36.4632 48.3938 33.647 50.0142 31.1864 49.0123C29.1375 48.178 27.1591 47.1695 25.1581 46.2199C24.6836 45.9948 24.4264 45.5779 24.525 45.041C24.6207 44.5193 24.9627 44.1585 25.4995 44.1281C25.7986 44.1112 26.1276 44.2268 26.4089 44.3563C28.1716 45.1689 29.9256 45.9997 31.6802 46.8294C32.5337 47.2329 33.3309 47.1259 34.0517 46.5443C34.7632 45.9701 34.9701 45.1938 34.7815 44.3233C34.6136 43.5485 34.086 43.0799 33.3804 42.7496C30.1333 41.2294 26.8897 39.7021 23.6568 38.1521C22.839 37.7599 22.0567 37.7223 21.2118 38.0373C19.2665 38.7625 17.3092 39.4557 15.3569 40.1625C14.9585 40.3068 14.5612 40.4537 14.1495 40.6046C15.6488 44.7791 17.1203 48.8761 18.6119 53.0282ZM5.92895 41.3172C7.91333 46.8415 9.8777 52.3095 11.8507 57.8027C13.6878 57.1388 15.4564 56.4996 17.252 55.8508C15.2623 50.3112 13.3066 44.8666 11.3353 39.3779C9.51817 40.0298 7.76303 40.6593 5.92895 41.3172Z" fill="#031464"/>
<path d="M21.8765 27.4192C22.1001 26.0944 22.3559 24.5636 22.6176 23.0337C22.764 22.1787 22.9925 21.3292 23.0391 20.4694C23.0601 20.0825 22.8225 19.5831 22.5395 19.2944C21.0168 17.7418 19.4287 16.2537 17.8922 14.7146C17.0127 13.8333 16.7389 12.7453 17.1262 11.5566C17.5093 10.3802 18.3237 9.62454 19.5671 9.41079C20.6922 9.21743 21.8223 9.05334 22.9519 8.88792C24.0142 8.73233 25.0784 8.58958 26.1425 8.44588C26.6834 8.3728 27.0384 8.10807 27.2837 7.59408C28.1686 5.73999 29.1089 3.91234 29.9977 2.05995C30.6061 0.792168 31.5565 0.00588766 32.9776 3.40264e-05C34.4295 -0.00600843 35.3931 0.793108 36.0096 2.08789C36.8735 3.90214 37.7999 5.68656 38.6536 7.50534C38.9572 8.15226 39.4162 8.383 40.0866 8.47288C42.2139 8.7582 44.3376 9.07373 46.4561 9.41947C47.6691 9.61736 48.4703 10.3751 48.8528 11.5243C49.2473 12.7092 48.9979 13.8053 48.1206 14.69C46.6215 16.2017 45.0935 17.6854 43.5519 19.1539C43.0436 19.6382 42.8368 20.1059 42.9851 20.845C43.3886 22.859 43.6733 24.8965 44.0366 26.919C44.2747 28.2438 43.8929 29.3326 42.8382 30.1372C41.8009 30.9285 40.6413 31.0107 39.481 30.4189C37.6086 29.464 35.7418 28.4961 33.9014 27.4817C33.269 27.1331 32.7533 27.121 32.1188 27.4683C30.2555 28.4881 28.3802 29.4895 26.4755 30.4295C24.329 31.4888 21.8799 29.972 21.8765 27.4192ZM25.3226 20.236C25.2895 20.5074 25.2667 20.7806 25.2216 21.0499C24.8779 23.0981 24.5051 25.1421 24.2057 27.1968C24.152 27.5642 24.2803 28.1649 24.5312 28.3167C24.8312 28.4983 25.4157 28.4402 25.7686 28.2663C27.6123 27.3586 29.4328 26.4018 31.2389 25.4205C32.4296 24.7734 33.5717 24.7805 34.7565 25.4195C36.5853 26.4058 38.42 27.3829 40.2811 28.3056C40.6123 28.4698 41.1744 28.4972 41.4625 28.3182C41.7058 28.1671 41.8421 27.6056 41.7919 27.2596C41.4926 25.2048 41.1502 23.1555 40.7718 21.1135C40.5265 19.7896 40.8256 18.6846 41.8053 17.7462C43.2927 16.3215 44.7532 14.8684 46.2384 13.4413C46.6079 13.0861 46.8898 12.7213 46.7219 12.1841C46.555 11.6503 46.0744 11.5827 45.6215 11.5162C43.9046 11.2639 42.1926 10.9467 40.4663 10.8013C38.5038 10.6361 37.1394 9.84867 36.3693 7.93944C35.688 6.25001 34.7726 4.65537 33.9673 3.01541C33.768 2.60981 33.5556 2.25916 33.0258 2.24538C32.4631 2.23084 32.2308 2.58866 32.0189 3.02145C31.0958 4.90859 30.1539 6.78684 29.2349 8.67606C28.6531 9.87171 27.7012 10.4835 26.3959 10.6553C24.3588 10.9233 22.3238 11.2135 20.2983 11.5551C19.928 11.6176 19.4799 11.895 19.2931 12.2079C19.0335 12.6429 19.3468 13.0531 19.7055 13.3969C21.2088 14.8384 22.6932 16.2994 24.1873 17.7501C24.8888 18.4316 25.3382 19.222 25.3226 20.236Z" fill="#031464"/>
<path d="M9.54986 7.09538C9.53192 8.14658 8.80493 8.68058 8.05133 8.38469C5.59129 7.41865 3.14372 6.42033 0.701622 5.40954C0.0954875 5.15859 -0.134882 4.54584 0.0771707 3.9922C0.29772 3.41609 0.915939 3.12322 1.53945 3.37021C3.97456 4.33549 6.40929 5.30304 8.82023 6.32629C9.17541 6.47697 9.40144 6.93204 9.54986 7.09538Z" fill="#031464"/>
<path d="M64.9856 3.12756C65.304 3.44026 65.7387 3.6999 65.9122 4.07906C66.1399 4.577 65.9096 5.09023 65.398 5.34949C64.851 5.62669 64.2704 5.83836 63.7003 6.06873C61.8207 6.82838 59.9502 7.6139 58.0483 8.31332C57.6946 8.44342 57.1333 8.33635 56.8136 8.12165C56.5783 7.96361 56.4546 7.42809 56.5145 7.10388C56.5694 6.80628 56.8846 6.44261 57.1746 6.32082C59.5907 5.30644 62.0271 4.34078 64.4584 3.36303C64.584 3.31262 64.7188 3.28561 64.8495 3.24765C64.8948 3.20762 64.9403 3.16759 64.9856 3.12756Z" fill="#031464"/>
<path d="M64.7739 29.2464C64.6155 29.1973 64.3492 29.1354 64.0988 29.0344C61.8603 28.131 59.624 27.2218 57.3881 26.312C56.5637 25.9767 56.2448 25.3857 56.5246 24.7265C56.7875 24.1073 57.4008 23.923 58.2189 24.2504C60.5228 25.1723 62.8222 26.1058 65.1234 27.0345C65.7195 27.2751 66.0747 27.6884 65.9507 28.3555C65.8464 28.9165 65.462 29.209 64.7739 29.2464Z" fill="#031464"/>
<path d="M1.19723 29.2431C0.5437 29.2183 0.1702 28.9334 0.0495392 28.4149C-0.0928362 27.8029 0.160191 27.3391 0.750275 27.0955C2.0343 26.5655 3.32115 26.0424 4.60857 25.5209C5.66393 25.0934 6.72098 24.6701 7.77879 24.249C8.58772 23.927 9.20707 24.109 9.46596 24.7371C9.72994 25.3772 9.43423 25.9758 8.654 26.2942C6.35617 27.2315 4.05324 28.156 1.75011 29.0803C1.54184 29.1636 1.31808 29.2081 1.19723 29.2431Z" fill="#031464"/>
<path d="M4.77418 17.38C3.60742 17.38 2.44065 17.3872 1.27389 17.3774C0.478555 17.3708 0.00913187 16.9349 0.0197062 16.2442C0.029714 15.5894 0.476477 15.1692 1.25161 15.1649C3.60798 15.1515 5.96435 15.1517 8.32072 15.166C9.08547 15.1705 9.54356 15.6069 9.54753 16.2555C9.55149 16.93 9.06243 17.3719 8.27427 17.3779C7.1077 17.3866 5.94094 17.38 4.77418 17.38Z" fill="#031464"/>
<path d="M61.2612 15.1589C62.4051 15.159 63.5492 15.1475 64.6929 15.163C65.5176 15.1741 65.9711 15.5847 65.9694 16.2693C65.9677 16.955 65.4968 17.3755 64.6895 17.3778C62.3789 17.3842 60.068 17.3834 57.7573 17.3785C56.9488 17.3768 56.4633 16.9686 56.4423 16.2992C56.4206 15.6054 56.9072 15.1713 57.7609 15.1619C58.9275 15.149 60.0944 15.1587 61.2612 15.1589Z" fill="#031464"/>
<path d="M10.4617 43.4894C10.6114 43.6377 11.0065 43.8848 11.1889 44.241C11.4982 44.8448 11.6906 45.5121 11.9002 46.163C12.0992 46.7811 11.8282 47.3721 11.2889 47.5877C10.7074 47.8202 10.0744 47.5649 9.82081 46.9429C9.55418 46.289 9.30474 45.6236 9.11195 44.9451C8.88215 44.136 9.38669 43.4768 10.4617 43.4894Z" fill="#031464"/>
</svg>
