<svg width="69" height="69" viewBox="0 0 69 69" fill="none" xmlns="http://www.w3.org/2000/svg">
<path d="M68.7952 44.7217C61.0955 44.7197 53.3958 44.7123 45.6963 44.7353C45.4017 44.7362 45.0355 44.9622 44.8247 45.194C41.7398 48.5892 38.6684 51.9969 35.6137 55.4194C35.1432 55.9466 34.6337 56.1689 33.922 56.1658C28.6397 56.1427 23.3574 56.1533 18.0749 56.1533C17.8123 56.1533 17.5497 56.1533 17.214 56.1533C17.214 56.4599 17.214 56.6992 17.214 56.9385C17.214 59.2659 17.216 61.5933 17.2129 63.9206C17.2117 64.8119 16.9252 65.1802 16.0615 65.3795C11.7586 66.3729 7.44381 67.3183 3.15846 68.3823C2.13946 68.6353 1.15975 68.8194 0.124968 68.7359C-0.220738 66.9566 0.243192 66.6188 1.54529 66.3291C5.83423 65.375 10.1111 64.3663 14.392 63.376C14.5619 63.3367 14.7254 63.2703 14.9238 63.2063C14.9238 60.7287 14.9731 58.2679 14.9067 55.8099C14.8608 54.1104 15.4232 53.7276 16.824 53.8525C16.9297 53.8618 17.0384 53.8395 17.1792 53.8295C17.1792 52.2872 17.1792 50.7754 17.1792 49.2038C16.7637 49.164 16.3484 49.0922 15.9347 49.1009C15.7791 49.1041 15.582 49.2614 15.4815 49.4035C15.0174 50.0605 14.5275 50.7079 14.1427 51.4112C11.9784 55.3682 8.66123 58.3301 5.52638 61.4496C4.91211 62.0608 4.31793 62.0674 3.69828 61.4675C2.60501 60.409 1.53094 59.3303 0.469957 58.2395C-0.173196 57.5784 -0.15508 56.9952 0.517315 56.3108C1.66225 55.1454 2.84882 54.02 3.97241 52.8349C4.51994 52.2574 5.01759 51.6164 5.44565 50.9451C6.3091 49.591 7.10959 48.1965 7.94327 46.8067C6.91297 45.6004 6.35521 44.233 6.49102 42.6629C6.54969 41.9842 6.71562 41.2944 6.95477 40.6552C8.00982 37.835 9.10112 35.0281 10.2014 32.2251C10.3768 31.7781 10.3575 31.4953 9.9888 31.125C8.01054 29.1378 7.45925 25.9285 8.63648 23.555C10.0225 20.7607 12.7921 19.122 15.6478 19.5072C18.4287 19.8821 20.4161 21.4033 21.3774 24.0405C22.3219 26.6316 21.7715 29.0074 19.9276 31.0709C19.8295 31.1807 19.7389 31.2974 19.5769 31.4932C20.6248 31.6641 21.5815 31.8383 22.5445 31.9637C22.7652 31.9924 23.0261 31.8904 23.2376 31.7861C25.0989 30.8683 26.9541 29.9385 28.808 29.0056C29.0051 28.9064 29.2001 28.7869 29.3645 28.6412C32.4963 25.8659 35.6234 23.0852 38.7506 20.3046C38.8304 20.2338 38.8989 20.1502 38.9723 20.073C35.8028 16.9265 36.1799 12.7579 38.6135 10.1283C40.8144 7.75031 44.7512 7.30702 47.4442 9.21638C49.1035 10.3931 50.1481 11.9802 50.3969 14.0376C50.6397 16.0449 50.0611 17.8165 48.7394 19.4417C51.64 19.4417 54.424 19.4417 57.308 19.4417C57.308 19.1435 57.308 18.863 57.308 18.5826C57.308 12.9433 57.3138 7.30378 57.3008 1.66449C57.2992 0.975227 57.4418 0.394503 58.0491 0C58.3177 0 58.5864 0 58.855 0C61.8203 1.49226 64.7912 2.97376 67.7443 4.49006C68.141 4.69368 68.447 5.07365 68.7951 5.37199C68.7951 5.64056 68.7951 5.90912 68.7951 6.17786C68.4101 6.46293 68.0561 6.80846 67.6352 7.0232C65.1891 8.27201 62.7347 9.50558 60.264 10.7049C59.7888 10.9356 59.6357 11.1912 59.6374 11.7142C59.6567 18.6057 59.6503 25.4972 59.6503 32.3887C59.6503 32.6519 59.6503 32.9151 59.6503 33.2239C58.8597 33.2239 58.1338 33.2239 57.3197 33.2239C57.3197 30.9575 57.3197 28.7096 57.3197 26.4854C57.174 26.4312 57.1128 26.3887 57.0515 26.3885C54.1423 26.3815 51.2331 26.3713 48.3243 26.3935C48.1708 26.3948 47.9251 26.6533 47.8826 26.8305C47.6693 27.7189 47.5184 28.6222 47.3265 29.516C47.2465 29.8884 47.3643 30.0352 47.7434 30.0906C48.7811 30.2422 49.816 30.4153 50.8467 30.6085C52.8398 30.9824 53.8822 32.223 53.8901 34.2314C53.8997 36.6926 53.8926 39.1539 53.8928 41.6151C53.8928 41.8529 53.8928 42.0904 53.8928 42.397C54.2406 42.397 54.5042 42.397 54.7677 42.397C58.975 42.397 63.1823 42.3957 67.3896 42.3988C67.8582 42.3991 68.3267 42.4246 68.7952 42.4384C68.7952 43.1996 68.7952 43.9606 68.7952 44.7217ZM35.0337 32.5278C34.1764 33.1372 33.2887 33.8638 32.3133 34.4427C29.9319 35.8562 27.5188 37.2173 25.096 38.5589C24.6701 38.7948 24.1382 38.9284 23.6495 38.9451C22.2001 38.995 20.748 38.9631 19.2732 38.9631C19.0618 39.822 18.8638 40.6281 18.6575 41.4666C19.6522 41.6277 20.5496 41.8082 21.4559 41.9133C24.573 42.2746 25.366 44.1427 25.2824 46.3519C25.1968 48.6084 25.2635 50.8706 25.2635 53.1304C25.2635 53.3639 25.2635 53.5975 25.2635 53.855C28.104 53.855 30.8332 53.8654 33.5619 53.8365C33.7973 53.834 34.0804 53.6165 34.2566 53.4221C37.217 50.157 40.1861 46.8991 43.0984 43.5913C43.8147 42.7775 44.5433 42.2239 45.6654 42.374C45.7 42.3787 45.7413 42.3344 45.8064 42.2976C45.8064 40.8007 45.8064 39.2892 45.8064 37.7566C45.6223 37.7356 45.46 37.7458 45.3186 37.6963C44.5937 37.4417 44.2036 37.7634 43.8161 38.3739C42.6427 40.2226 41.4019 42.0285 40.1829 43.8482C40.0344 44.0699 39.8788 44.2938 39.6917 44.482C37.8772 46.3065 36.0603 48.1287 34.2331 49.9404C33.5705 50.5974 32.9679 50.6008 32.3083 49.9548C31.2532 48.9216 30.2098 47.8763 29.1747 46.823C28.4876 46.1239 28.4849 45.5566 29.1792 44.8503C30.4653 43.5417 31.771 42.2526 33.0648 40.9515C33.2532 40.7621 33.4554 40.5728 33.5924 40.3479C34.5339 38.8027 35.4647 37.2509 36.3821 35.6913C36.4659 35.5489 36.509 35.2988 36.441 35.1642C35.9928 34.2782 35.5097 33.4101 35.0337 32.5278ZM29.4244 31.2953C27.5174 32.2488 25.6726 33.1924 23.8045 34.0875C23.4231 34.2703 22.9502 34.355 22.5268 34.3349C21.9075 34.3053 21.2945 34.1415 20.6793 34.0326C18.0832 33.573 15.4891 33.0803 12.832 33.2829C12.5933 33.301 12.2277 33.4422 12.1579 33.6192C11.0806 36.3582 9.98145 39.0912 9.01484 41.8699C8.25866 44.0435 9.60489 46.0795 11.8914 46.3485C14.0438 46.6018 16.2072 46.7597 18.3625 46.9895C19.1707 47.0756 19.4963 47.4728 19.5015 48.2794C19.512 49.8902 19.5053 51.5012 19.5057 53.1121C19.5057 53.3478 19.5057 53.5835 19.5057 53.8135C20.693 53.8135 21.7803 53.8135 22.9023 53.8135C22.9023 51.0007 22.9181 48.2295 22.8911 45.4588C22.8843 44.7653 22.4947 44.4497 21.7161 44.323C20.2624 44.0866 18.8071 43.8605 17.3547 43.6176C16.3025 43.4416 15.9137 42.897 16.1541 41.8687C16.484 40.4578 16.8539 39.0562 17.2138 37.6525C17.3869 36.9771 17.8232 36.6549 18.5313 36.6619C19.9187 36.6753 21.307 36.6362 22.6933 36.6773C23.4367 36.6994 24.0696 36.523 24.7108 36.1411C26.5888 35.0222 28.5005 33.9599 30.452 32.8451C30.1047 32.3209 29.7871 31.8423 29.4244 31.2953ZM51.6 42.353C51.6 39.5621 51.6129 36.8347 51.591 34.1076C51.5855 33.4049 51.1904 33.0231 50.4775 32.8982C48.9834 32.6368 47.4847 32.4006 45.9932 32.1252C44.9109 31.9253 44.5799 31.4363 44.7878 30.3866C45.117 28.7246 45.4607 27.0657 45.8055 25.407C46.0396 24.2807 46.3339 24.0466 47.4889 24.0462C50.5089 24.0452 53.5287 24.0459 56.5488 24.0459C56.787 24.0459 57.0251 24.0459 57.2578 24.0459C57.2578 23.2477 57.2578 22.543 57.2578 21.86C57.1679 21.8213 57.1281 21.7888 57.0881 21.7888C51.8312 21.7822 46.5744 21.7743 41.3178 21.7902C41.1441 21.7908 40.8795 21.9989 40.8117 22.1709C39.7505 24.8677 38.6639 27.5562 37.6889 30.2844C36.8572 32.6114 38.35 34.7376 40.818 34.935C42.8221 35.0952 44.8235 35.2906 46.8258 35.4739C47.7391 35.5575 48.1422 35.9734 48.1905 36.8865C48.207 37.1988 48.1948 37.5126 48.1948 37.8257C48.195 39.3204 48.1948 40.815 48.1948 42.353C49.3483 42.353 50.4328 42.353 51.6 42.353ZM48.1241 14.9036C48.1246 12.3819 46.0793 10.3328 43.5666 10.3378C41.0765 10.3428 38.9606 12.4729 39.0064 14.9283C39.0529 17.4172 41.0876 19.4485 43.5575 19.4715C46.0398 19.4946 48.1236 17.4105 48.1241 14.9036ZM14.9057 30.9038C17.4192 30.9105 19.4956 28.8552 19.4965 26.3596C19.4974 23.8792 17.3721 21.7623 14.9065 21.7874C12.427 21.8127 10.379 23.8573 10.3607 26.3257C10.3422 28.8351 12.389 30.897 14.9057 30.9038ZM33.2243 47.5646C36.6509 44.6386 39.4867 41.2976 41.5754 37.4272C40.7059 37.2577 39.8173 37.1409 38.966 36.8949C38.5342 36.7703 38.3754 36.88 38.1803 37.2145C37.494 38.3906 36.8218 39.5779 36.0714 40.7128C35.5344 41.5247 34.9261 42.301 34.2682 43.0186C33.3793 43.9881 32.4122 44.886 31.4997 45.7936C32.1018 46.4118 32.6606 46.9857 33.2243 47.5646ZM2.90927 57.0953C3.56714 57.8065 4.12076 58.4051 4.63762 58.9638C7.98937 56.0864 10.8205 52.7673 12.9251 48.878C11.8714 48.6877 10.8492 48.5031 9.70086 48.2957C8.00803 51.6456 5.87567 54.7945 2.90927 57.0953ZM65.0474 5.72649C63.1992 4.8067 61.4622 3.94234 59.6853 3.05825C59.6853 4.87935 59.6853 6.58725 59.6853 8.40853M32.405 31.5619C33.4233 30.7944 34.3865 30.072 35.3439 29.3423C35.4648 29.2501 35.6014 29.1369 35.6545 29.0033C36.1934 27.645 36.7163 26.2803 37.244 24.9176C37.2097 24.8953 37.1752 24.8733 37.141 24.8512C35.2164 26.5623 33.2916 28.2733 31.3551 29.995C31.7173 30.5357 32.0383 31.0145 32.405 31.5619Z" fill="#031464"/>
<path d="M10.3642 0.000244149C11.1894 0.253379 12.05 0.428837 12.8302 0.781719C13.6147 1.13639 14.3496 1.62652 15.046 2.13925C15.3892 2.39185 15.6829 2.47777 16.0801 2.40457C20.117 1.65934 24.0188 4.84856 24.0778 8.93532C24.0914 9.88327 23.6671 10.3314 22.6996 10.3321C15.6091 10.3373 8.51867 10.3372 1.42838 10.3325C0.435395 10.3318 0.0195443 9.88651 0.0242087 8.88366C0.0437634 4.72334 3.38368 0.830695 7.52175 0.139821C7.66706 0.115602 7.80502 0.0479607 7.94639 0.000419346C8.75226 0.000239944 9.55831 0.000244149 10.3642 0.000244149ZM2.45222 7.96368C8.85702 7.96368 15.191 7.96368 21.5349 7.96368C21.0951 5.7165 18.5318 4.12019 16.2658 4.75921C15.2261 5.05236 14.5519 4.84658 13.7645 4.11678C11.7992 2.29532 9.42932 1.84215 6.91717 2.72588C4.48789 3.58055 3.01429 5.36649 2.45222 7.96368Z" fill="#031464"/>
<path d="M28.6668 12.6589C28.6668 13.3941 28.6668 14.1017 28.6668 14.8577C27.9213 14.8577 27.1958 14.8577 26.4146 14.8577C26.4146 14.1566 26.4146 13.4336 26.4146 12.6589C27.1302 12.6589 27.8553 12.6589 28.6668 12.6589Z" fill="#031464"/>
<path d="M17.2456 14.8686C17.2456 14.1272 17.2456 13.4193 17.2456 12.6597C17.9725 12.6597 18.6953 12.6597 19.4623 12.6597C19.4623 13.3827 19.4623 14.1067 19.4623 14.8686C18.74 14.8686 18.0321 14.8686 17.2456 14.8686Z" fill="#031464"/>
<path d="M21.8086 14.8612C21.8086 14.1118 21.8086 13.4073 21.8086 12.6553C22.5515 12.6553 23.2721 12.6553 24.0434 12.6553C24.0434 13.3743 24.0434 14.095 24.0434 14.8612C23.3249 14.8612 22.6021 14.8612 21.8086 14.8612Z" fill="#031464"/>
</svg>
