<svg width="69" height="69" viewBox="0 0 69 69" fill="none" xmlns="http://www.w3.org/2000/svg">
<path d="M14.6374 68.7503C13.85 68.3578 13.3817 67.6885 12.9542 66.9425C9.94405 61.6907 6.90984 56.4526 3.88532 51.2089C2.98508 49.6481 3.26997 48.584 4.81928 47.6906C7.16082 46.3405 9.50129 44.9883 11.8444 43.641C13.3084 42.7993 14.4203 43.1012 15.2707 44.5624C15.4382 44.8505 15.6047 45.1392 15.8015 45.479C16.0256 45.3744 16.2256 45.2888 16.4185 45.1896C18.7214 44.0054 21.028 42.8278 23.3245 41.6312C25.9963 40.239 28.7762 39.9168 31.7013 40.6626C35.7195 41.6871 39.7451 42.683 43.7728 43.6693C45.8351 44.1744 47.1382 45.4104 47.6292 47.6045C47.8526 47.396 48.027 47.2425 48.1909 47.0787C51.1191 44.1527 54.0421 41.2211 56.9753 38.3C58.3589 36.9222 60.0244 36.4362 61.895 36.999C63.7879 37.5684 64.9441 38.8948 65.3126 40.8432C65.6106 42.4189 65.1971 43.8581 64.0828 44.9856C59.9468 49.1716 55.8019 53.3504 51.5897 57.4594C49.5749 59.4249 47.0342 60.3522 44.2276 60.3933C40.5811 60.4466 36.9332 60.4114 33.2858 60.4078C32.4684 60.4071 31.9083 60.0334 31.7442 59.3775C31.592 58.7695 31.7793 58.2292 32.3148 57.9301C32.6442 57.7461 33.0796 57.6888 33.4686 57.6847C35.6165 57.6625 37.7647 57.6763 39.9128 57.673C41.3895 57.6709 42.8669 57.6865 44.3428 57.6488C46.6424 57.5902 48.5776 56.6779 50.1956 55.0581C53.5635 51.6859 56.935 48.3171 60.3048 44.9469C60.8427 44.4088 61.385 43.8751 61.9168 43.331C62.8855 42.3394 62.9402 41.0578 62.0599 40.1647C61.1523 39.2439 59.854 39.2719 58.8433 40.2785C55.1967 43.9103 51.5583 47.5503 47.926 51.1961C47.1171 52.0081 46.2132 52.627 45.0618 52.8184C44.8205 52.8586 44.5749 52.8959 44.3311 52.8963C40.6166 52.902 36.9021 52.8983 33.1876 52.9055C32.5708 52.9067 32.0958 52.6889 31.8231 52.1231C31.5759 51.6102 31.6001 51.0535 32.0213 50.7017C32.3466 50.4299 32.8446 50.2369 33.2685 50.2318C36.4456 50.1936 39.6233 50.2209 42.8007 50.206C44.2579 50.1992 45.168 49.1248 44.8611 47.8087C44.6585 46.9402 44.0222 46.5376 43.2111 46.3361C40.4842 45.6591 37.7602 44.9702 35.0306 44.3032C33.2771 43.8748 31.5231 43.4437 29.7566 43.0757C28.2885 42.7698 26.8282 43.0034 25.5041 43.6385C22.7088 44.979 19.9641 46.4246 17.1641 47.8447C18.7758 50.6385 20.3597 53.3852 21.9449 56.1311C22.8496 57.6982 23.7608 59.2615 24.6612 60.8309C25.461 62.225 25.1594 63.3631 23.7709 64.169C21.132 65.7007 18.488 67.2238 15.8462 68.7505C15.4431 68.7503 15.0401 68.7503 14.6374 68.7503ZM17.6797 64.5398C17.5263 64.2612 17.4019 64.0265 17.2695 63.7967C16.3551 62.2105 15.4371 60.6262 14.5242 59.039C14.0098 58.1449 14.1349 57.3605 14.851 56.9301C15.5798 56.4924 16.3593 56.7825 16.8906 57.6994C17.6409 58.9938 18.3845 60.2921 19.1323 61.5879C19.4313 62.1062 19.734 62.6225 20.0533 63.1713C20.7813 62.7515 21.4535 62.364 22.1677 61.9523C19.1134 56.6625 16.0808 51.41 13.0161 46.102C10.7449 47.4138 8.53288 48.6915 6.30849 49.9762C9.3784 55.2924 12.4137 60.5485 15.4626 65.8281C16.2303 65.3821 16.9403 64.9695 17.6797 64.5398Z" fill="#031464"/>
<path d="M0 33.9697C0.364364 33.2499 0.945982 32.9575 1.74916 33.0243C2.23588 33.0648 2.72941 33.0167 3.21864 33.0375C3.99634 33.0705 4.57473 33.6794 4.55553 34.4164C4.5367 35.1416 3.98342 35.6885 3.21899 35.7169C2.77408 35.7334 2.32378 35.6832 1.88335 35.7316C1.08466 35.8193 0.459446 35.5696 0 34.9096C0 34.5964 0 34.2831 0 33.9697Z" fill="#031464"/>
<path d="M34.3257 38.14C23.8544 38.187 15.1559 29.4341 15.2909 18.7712C15.422 8.40322 24.0298 -0.0612876 34.5975 0.00329684C45.1267 0.0675225 53.6111 8.87989 53.4655 19.4124C53.3232 29.701 44.7401 38.1804 34.3257 38.14ZM34.3431 35.4487C43.3641 35.4544 50.7436 28.1018 50.7599 19.0916C50.7762 10.102 43.3754 2.69449 34.3777 2.69467C25.382 2.69485 17.9822 10.1007 17.9955 19.0905C18.0086 28.0672 25.3795 35.4429 34.3431 35.4487Z" fill="#031464"/>
<path d="M63.382 11.1381C63.3818 11.4736 63.3951 11.8098 63.3791 12.1445C63.3424 12.9108 62.7907 13.429 62.0333 13.426C61.2793 13.4231 60.7276 12.8993 60.7045 12.1287C60.6851 11.4806 60.6836 10.831 60.705 10.183C60.7292 9.44311 61.3365 8.86849 62.0492 8.87369C62.7649 8.87907 63.3465 9.45172 63.38 10.1986C63.3939 10.5113 63.3822 10.8249 63.382 11.1381Z" fill="#031464"/>
<path d="M8.05426 38.8141C8.05462 39.1496 8.06915 39.486 8.05174 39.8205C8.01228 40.5816 7.45219 41.0975 6.69368 41.0895C5.96908 41.0817 5.40899 40.5728 5.38028 39.8466C5.35373 39.1765 5.35606 38.5041 5.37903 37.8339C5.40414 37.1012 6.0272 36.5242 6.73512 36.5373C7.42581 36.5501 8.00761 37.1023 8.05049 37.8078C8.07076 38.1421 8.0539 38.4786 8.05426 38.8141Z" fill="#031464"/>
<path d="M57.5695 8.05297C57.234 8.05351 56.8972 8.07073 56.563 8.04992C55.8643 8.00633 55.3589 7.48122 55.3293 6.79286C55.2984 6.07579 55.7821 5.43892 56.4859 5.38976C57.2203 5.33845 57.9636 5.3406 58.6986 5.3885C59.3909 5.43353 59.915 6.09857 59.8816 6.78155C59.8484 7.45915 59.3278 8.00399 58.6428 8.04867C58.2863 8.07163 57.9274 8.05243 57.5695 8.05297Z" fill="#031464"/>
<path d="M66.5004 8.05423C66.1649 8.05459 65.8285 8.06876 65.4939 8.05172C64.7655 8.01494 64.2268 7.47315 64.1999 6.76972C64.1739 6.08871 64.7051 5.42887 65.3956 5.38671C66.131 5.34186 66.8742 5.33666 67.6083 5.3912C68.3105 5.4434 68.7893 6.08817 68.7527 6.80488C68.7176 7.49324 68.2109 8.0092 67.5068 8.05046C67.1724 8.07002 66.836 8.05387 66.5004 8.05423Z" fill="#031464"/>
<path d="M11.1294 35.7164C10.7939 35.7164 10.4572 35.7338 10.1231 35.7127C9.43367 35.6693 8.91269 35.1345 8.8743 34.456C8.83591 33.7768 9.35886 33.1004 10.0463 33.0532C10.781 33.0028 11.5242 33.0032 12.2591 33.0518C12.9654 33.0986 13.4533 33.7289 13.4268 34.4454C13.4011 35.1361 12.8997 35.6675 12.2029 35.7123C11.8464 35.7355 11.4873 35.7164 11.1294 35.7164Z" fill="#031464"/>
<path d="M63.3814 2.26839C63.3816 2.60387 63.3967 2.94025 63.3786 3.27483C63.338 4.02491 62.7521 4.56724 62.016 4.5545C61.3104 4.5423 60.7342 4.00733 60.7067 3.29098C60.6811 2.62092 60.682 1.94834 60.706 1.27828C60.7328 0.530715 61.3311 -0.0126914 62.0666 0.000225485C62.7752 0.0126042 63.3357 0.542735 63.3778 1.26213C63.3976 1.59654 63.3813 1.93291 63.3814 2.26839Z" fill="#031464"/>
<path d="M5.37418 29.9162C5.37472 29.5807 5.35732 29.244 5.37831 28.9098C5.42298 28.1979 5.99706 27.6681 6.70444 27.6635C7.41379 27.6588 8.01353 28.1807 8.04654 28.8904C8.07883 29.5824 8.07632 30.2779 8.04762 30.97C8.01802 31.6839 7.43138 32.2127 6.72435 32.2179C5.99132 32.2231 5.41221 31.6738 5.37651 30.9227C5.36055 30.5879 5.37382 30.2517 5.37418 29.9162Z" fill="#031464"/>
<path d="M29.0181 59.0232C29.0236 59.7795 28.4176 60.4047 27.6805 60.4033C26.9593 60.4019 26.3202 59.7487 26.3279 59.0208C26.3357 58.2975 26.9167 57.7141 27.648 57.6958C28.4146 57.6764 29.0125 58.2557 29.0181 59.0232Z" fill="#031464"/>
<path d="M11.5189 53.4155C11.5286 52.6426 12.1144 52.0827 12.8949 52.1001C13.6208 52.1163 14.211 52.7065 14.2185 53.4234C14.2263 54.1586 13.5994 54.7818 12.8535 54.7807C12.09 54.7798 11.5092 54.1857 11.5189 53.4155Z" fill="#031464"/>
<path d="M34.3615 17.1346C34.5828 16.9263 34.7624 16.7659 34.9323 16.596C37.4308 14.0987 39.9238 11.5957 42.4322 9.10834C42.6932 8.84947 43.0186 8.59167 43.3604 8.49264C43.9137 8.33225 44.4345 8.52062 44.7669 9.02295C45.1074 9.53729 45.0965 10.0784 44.7463 10.5897C44.6216 10.7719 44.452 10.925 44.2944 11.0828C41.418 13.9611 38.541 16.8389 35.6627 19.7154C34.6813 20.696 34.0798 20.6984 33.1076 19.7275C31.3518 17.9736 29.5863 16.229 27.8535 14.4525C27.5774 14.1696 27.363 13.7608 27.2758 13.375C27.151 12.8223 27.4437 12.3704 27.9405 12.1029C28.433 11.8376 28.9428 11.8605 29.3883 12.2084C29.7037 12.4545 29.9798 12.7523 30.2641 13.0363C31.6216 14.3901 32.9756 15.7474 34.3615 17.1346Z" fill="#031464"/>
<path d="M21.8369 20.4042C21.6137 20.404 21.39 20.4142 21.1674 20.402C20.4064 20.3602 19.8769 19.8068 19.8762 19.0619C19.8755 18.3116 20.4024 17.7566 21.1641 17.7257C21.5653 17.7096 21.9679 17.7122 22.3692 17.7248C23.118 17.7483 23.6946 18.3113 23.7176 19.0258C23.7409 19.7547 23.1451 20.3672 22.3724 20.4033C22.1943 20.4115 22.0154 20.4043 21.8369 20.4042Z" fill="#031464"/>
<path d="M35.7992 6.49692C35.7206 6.90685 35.724 7.3575 35.5444 7.71702C35.275 8.25612 34.763 8.51034 34.143 8.37614C33.5113 8.23944 33.1164 7.8331 33.0529 7.18295C33.0097 6.74054 33.021 6.28953 33.0468 5.84443C33.0902 5.09884 33.6855 4.55598 34.4117 4.5653C35.1569 4.57481 35.684 5.0992 35.7274 5.88229C35.7385 6.0825 35.729 6.28397 35.729 6.4849C35.7524 6.48884 35.7757 6.49297 35.7992 6.49692Z" fill="#031464"/>
<path d="M35.7105 31.7008C35.717 33.0382 35.2229 33.6514 34.2132 33.5672C34.1465 33.5617 34.0783 33.562 34.0137 33.5468C33.2228 33.3608 32.9545 32.7058 33.0233 31.1333C33.0563 30.3793 33.4667 29.884 34.1485 29.7754C34.9269 29.6515 35.6246 30.1771 35.7064 30.965C35.7319 31.2078 35.7105 31.4553 35.7105 31.7008Z" fill="#031464"/>
<path d="M46.9374 20.4304C45.6771 20.4358 45.0202 19.964 45.0367 19.0722C45.053 18.1881 45.7145 17.7277 46.9688 17.7277C47.1473 17.7277 47.3264 17.7214 47.5045 17.7304C48.3142 17.7708 48.8714 18.3163 48.8795 19.0711C48.8877 19.8475 48.3674 20.378 47.54 20.4286C47.3397 20.4408 47.1382 20.4304 46.9374 20.4304Z" fill="#031464"/>
</svg>
