<svg width="52" height="58" viewBox="0 0 52 58" fill="none" xmlns="http://www.w3.org/2000/svg">
<path d="M19.2736 36.5162C17.2418 35.9424 15.7885 34.7196 15.5414 32.6326C15.339 30.924 15.335 29.125 15.6418 27.4385C16.1133 24.8463 18.5396 23.1038 21.1926 23.0985C24.0991 23.0927 27.0054 23.0895 29.9119 23.0992C33.6037 23.1115 36.5785 26.0937 36.5923 29.7927C36.5957 30.7135 36.6814 31.655 36.5258 32.5516C36.161 34.6529 34.8256 35.9249 32.7459 36.5074C32.7459 36.7315 32.7459 36.9695 32.7459 37.2076C32.7459 43.6016 32.7459 49.9957 32.7455 56.39C32.7455 56.5703 32.7592 56.7532 32.7353 56.9304C32.6698 57.4127 32.2661 57.7449 31.7737 57.7406C31.2826 57.7361 30.8882 57.3963 30.8307 56.9108C30.8096 56.7327 30.8226 56.5505 30.8226 56.3702C30.8223 50.0362 30.8225 43.7022 30.8225 37.3683C30.8225 37.1299 30.8225 36.8918 30.8225 36.5692C30.5791 36.5692 30.3677 36.5692 30.1562 36.5692C28.2119 36.5692 26.2676 36.5703 24.3233 36.5686C23.5417 36.5678 23.1351 36.2452 23.1244 35.6266C23.1131 34.9806 23.5253 34.6468 24.3443 34.6463C26.5692 34.6449 28.7972 34.573 31.0182 34.6657C33.3538 34.7633 34.8669 33.4533 34.6725 30.9631C34.6119 30.187 34.6585 29.3864 34.4799 28.6389C33.9747 26.5249 32.1446 25.0695 29.936 25.0356C27.0102 24.9906 24.0829 24.9925 21.1569 25.0335C19.0121 25.0635 17.4009 26.7366 17.3524 28.8931C17.3317 29.8147 17.3363 30.7373 17.3505 31.6591C17.3757 33.3111 18.4747 34.4816 20.129 34.6402C20.9147 34.7156 21.1957 35.0071 21.1958 35.7801C21.1979 42.7155 21.1978 49.6507 21.1962 56.586C21.196 57.3463 20.8403 57.755 20.2094 57.7406C19.6101 57.7268 19.275 57.324 19.2748 56.595C19.2732 50.1408 19.2739 43.6867 19.2739 37.2325C19.2736 36.994 19.2736 36.7553 19.2736 36.5162Z" fill="#031464"/>
<path d="M3.87528 48.017C1.91926 48.3396 0.549673 47.5741 0.113341 45.9447C0.0522704 45.7165 0.0296102 45.4717 0.0292888 45.2346C0.0247889 40.6851 -0.0480132 36.1339 0.0543601 31.5867C0.115913 28.8546 1.42668 26.7244 3.90967 25.4571C4.45641 25.1781 5.13414 25.0552 5.75561 25.0412C7.93904 24.9922 10.1244 25.0208 12.3089 25.0227C13.0833 25.0234 13.4919 25.3551 13.4963 25.9758C13.5008 26.5988 13.0887 26.9437 12.3239 26.9445C10.2996 26.9469 8.27509 26.9689 6.25124 26.9365C5.05716 26.9174 4.11185 27.3703 3.35361 28.2534C2.4623 29.2916 1.95912 30.4995 1.95445 31.8721C1.93967 36.2412 1.94706 40.6105 1.9506 44.9796C1.95124 45.7206 2.34225 46.193 2.92033 46.1861C3.496 46.1792 3.86371 45.7079 3.87464 44.9614C3.87673 44.8211 3.87496 44.6808 3.87496 44.5405C3.87496 41.0533 3.87496 37.5658 3.87512 34.0785C3.87512 33.9181 3.86516 33.7568 3.87978 33.5977C3.92783 33.0749 4.32093 32.7207 4.83939 32.722C5.35704 32.7232 5.74516 33.0789 5.79418 33.6038C5.80527 33.723 5.7982 33.844 5.7982 33.9644C5.79836 41.4802 5.79868 48.996 5.79643 56.5118C5.79643 56.7103 5.80254 56.9194 5.7458 57.1053C5.60904 57.554 5.1118 57.837 4.64605 57.726C4.10333 57.5966 3.86998 57.2279 3.87158 56.6694C3.8793 54.0039 3.87496 51.3383 3.87496 48.6726C3.87528 48.4574 3.87528 48.2419 3.87528 48.017Z" fill="#031464"/>
<path d="M48.1437 48.0056C48.1437 49.5475 48.1437 51.0482 48.1437 52.5489C48.1437 53.9118 48.1474 55.2746 48.1421 56.6374C48.1394 57.3476 47.7752 57.7499 47.165 57.7407C46.584 57.732 46.2226 57.3333 46.2222 56.6644C46.2193 49.0485 46.2195 41.4327 46.2221 33.8167C46.2222 33.1108 46.5944 32.7089 47.2063 32.7223C47.7863 32.7348 48.1411 33.1325 48.1419 33.8058C48.1458 37.4334 48.1437 41.0608 48.144 44.6884C48.144 44.8687 48.1331 45.0504 48.1511 45.2291C48.2072 45.7849 48.6336 46.1979 49.1247 46.1862C49.5944 46.1749 49.9975 45.7777 50.0608 45.2526C50.0775 45.1141 50.0698 44.9723 50.0698 44.8322C50.0702 40.5632 50.0743 36.2944 50.0679 32.0254C50.0655 30.4274 49.4897 29.0564 48.3533 27.9314C47.6831 27.268 46.8758 26.9363 45.9204 26.9418C43.796 26.9538 41.6715 26.9414 39.5471 26.948C39.0665 26.9495 38.7247 26.742 38.5707 26.3026C38.4266 25.8914 38.5184 25.4876 38.889 25.2321C39.0723 25.1058 39.3308 25.0324 39.5557 25.0311C41.8804 25.0177 44.2067 24.9774 46.5298 25.0407C48.1148 25.084 49.318 25.9691 50.2816 27.1592C51.4116 28.5548 52.008 30.1499 51.9998 31.9741C51.9804 36.3031 51.994 40.6322 51.9934 44.9612C51.9927 47.1894 50.4353 48.4578 48.1437 48.0056Z" fill="#031464"/>
<path d="M26.0555 9.62404C29.2554 9.63208 31.7965 12.2264 31.7831 15.4722C31.7701 18.6343 29.1722 21.1789 25.9652 21.1709C22.7688 21.1628 20.2239 18.5644 20.2366 15.3216C20.249 12.1614 22.8487 9.61601 26.0555 9.62404ZM25.9837 19.2439C28.0517 19.2634 29.8142 17.5378 29.8559 15.4527C29.8975 13.3688 28.1361 11.5695 26.0356 11.5503C23.9682 11.5314 22.2044 13.2581 22.1634 15.341C22.1224 17.4266 23.8819 19.2242 25.9837 19.2439Z" fill="#031464"/>
<path d="M10.6371 11.5486C13.8456 11.5533 16.3946 14.1378 16.3848 17.3766C16.3752 20.547 13.7871 23.0997 10.5867 23.0952C7.38223 23.0907 4.82868 20.5015 4.83816 17.2661C4.84716 14.0968 7.43623 11.5441 10.6371 11.5486ZM10.6108 13.475C8.53726 13.4752 6.78647 15.2127 6.76461 17.2919C6.7426 19.3823 8.51541 21.169 10.6112 21.1688C12.6841 21.1686 14.4355 19.4304 14.4574 17.3514C14.4794 15.2605 12.7074 13.4747 10.6108 13.475Z" fill="#031464"/>
<path d="M41.392 23.0954C38.1832 23.0925 35.6266 20.5083 35.6343 17.2752C35.6418 14.1023 38.2269 11.5455 41.4243 11.5486C44.637 11.5516 47.1891 14.1314 47.1809 17.3676C47.1731 20.5423 44.5898 23.0983 41.392 23.0954ZM41.4281 13.475C39.3599 13.4599 37.5982 15.1892 37.5611 17.2709C37.5238 19.3571 39.2863 21.1527 41.3866 21.1688C43.4558 21.1845 45.2161 19.4564 45.2539 17.3725C45.2915 15.2869 43.528 13.4903 41.4281 13.475Z" fill="#031464"/>
<path d="M18.2739 9.6221C15.618 9.61567 13.496 7.4676 13.4995 4.78934C13.5031 2.10449 15.658 -0.0114393 18.3768 0.000292691C21.0215 0.0117032 23.1303 2.17263 23.1215 4.86215C23.1126 7.51196 20.9572 9.62853 18.2739 9.6221ZM15.4263 4.83144C15.4416 6.38279 16.7702 7.69951 18.3159 7.69517C19.8624 7.69083 21.1876 6.36673 21.1941 4.81955C21.2005 3.25085 19.8365 1.89974 18.2741 1.9269C16.7186 1.95406 15.411 3.28749 15.4263 4.83144Z" fill="#031464"/>
<path d="M33.7534 2.10562e-05C36.4072 0.00757451 38.5246 2.15789 38.5195 4.84049C38.5143 7.52357 36.356 9.63581 33.6333 9.62199C30.9986 9.60865 28.8874 7.43695 28.8975 4.75066C28.9076 2.10518 31.0673 -0.00769311 33.7534 2.10562e-05ZM30.8244 4.80658C30.8215 6.35375 32.1374 7.68043 33.6893 7.69506C35.2329 7.70968 36.567 6.39956 36.5922 4.84419C36.6176 3.28046 35.2657 1.91827 33.697 1.92679C32.1471 1.9353 30.8273 3.25828 30.8244 4.80658Z" fill="#031464"/>
<path d="M32.7432 32.3072C32.7432 32.4675 32.7544 32.6287 32.7411 32.788C32.6967 33.3163 32.3132 33.6745 31.7966 33.6809C31.2792 33.6873 30.882 33.3331 30.8249 32.8148C30.6343 31.0795 30.506 31.0062 28.7593 31.3223C26.7534 31.6852 24.7437 32.032 22.7279 32.334C20.8527 32.6149 19.2519 31.3011 19.2739 29.5632C19.2813 28.9746 19.6119 28.5725 20.1327 28.5185C20.6825 28.4615 21.0927 28.8086 21.197 29.419C21.3402 30.2571 21.7389 30.5171 22.5883 30.3719C24.8144 29.9911 27.0395 29.6016 29.2716 29.2578C31.2742 28.9492 32.7436 30.2629 32.7432 32.3072Z" fill="#031464"/>
<path d="M25.048 50.5171C25.048 48.5144 25.0469 46.5118 25.0485 44.5092C25.0491 43.726 25.3683 43.3212 25.9861 43.3082C26.6347 43.2945 26.9706 43.7048 26.9707 44.5228C26.9719 48.5681 26.968 52.6135 26.9748 56.6588C26.9757 57.2146 26.7512 57.5884 26.2107 57.7243C25.745 57.8417 25.2486 57.5662 25.1052 57.1164C25.0464 56.9317 25.0504 56.7228 25.0501 56.5248C25.0465 54.5223 25.048 52.5197 25.048 50.5171Z" fill="#031464"/>
<path d="M11.5729 52.9914C11.5729 54.2123 11.5774 55.4334 11.5711 56.6543C11.5674 57.3526 11.1891 57.7578 10.5797 57.7408C10.0013 57.7247 9.65251 57.3272 9.65139 56.6521C9.64721 54.1702 9.64705 51.6882 9.65139 49.2062C9.65251 48.5323 10.003 48.1355 10.5821 48.1206C11.192 48.1048 11.5677 48.5085 11.5712 49.2086C11.5772 50.4693 11.5729 51.7303 11.5729 52.9914Z" fill="#031464"/>
<path d="M42.3694 52.9283C42.3694 54.1693 42.3737 55.4103 42.3676 56.6512C42.3641 57.3514 41.9885 57.7561 41.3792 57.7407C40.8005 57.726 40.4492 57.3284 40.4479 56.655C40.4436 54.1732 40.4434 51.6911 40.4479 49.2091C40.4492 48.5086 40.8251 48.1053 41.4355 48.1203C42.0142 48.1346 42.3644 48.532 42.3676 49.2051C42.3737 50.4463 42.3694 51.6873 42.3694 52.9283Z" fill="#031464"/>
</svg>
