<svg width="63" height="67" viewBox="0 0 63 67" fill="none" xmlns="http://www.w3.org/2000/svg">
<path d="M56.6041 38.5133C56.6569 37.5567 56.7076 36.6226 56.7598 35.6886C56.811 34.7728 57.197 34.3334 57.9177 34.3689C58.5944 34.4023 58.9758 34.8765 58.948 35.7414C58.915 36.7688 58.8355 37.7946 58.7727 38.882C58.9128 38.9666 59.0982 39.0805 59.2853 39.1912C61.185 40.3132 62.0771 42.4981 61.4993 44.6151C60.9379 46.6719 59.0379 48.1435 56.8628 48.0673C56.097 48.0404 55.7521 48.2978 55.3846 48.9307C51.1505 56.2213 44.8898 60.7285 36.6344 62.4467C36.2923 62.5179 36.1748 62.6427 36.0831 62.9739C35.4612 65.2202 33.6587 66.6272 31.4537 66.6301C29.211 66.633 27.4306 65.2263 26.7521 62.9536C26.694 62.759 26.4583 62.5172 26.2672 62.4768C17.8357 60.6971 11.4987 56.063 7.26934 48.5572C7.06124 48.1878 6.84076 48.0549 6.43154 48.087C4.3365 48.2521 2.2897 46.844 1.63811 44.7353C0.976122 42.593 1.81088 40.5098 3.81067 39.1708C3.97231 39.0626 4.08569 38.7557 4.07977 38.5452C4.05322 37.6071 3.95275 36.671 3.92243 35.7329C3.89445 34.8677 4.27782 34.3978 4.95973 34.3689C5.67644 34.3386 6.05928 34.7808 6.10933 35.6979C6.16028 36.6312 6.21051 37.5644 6.26128 38.5C8.55188 38.7404 10.138 39.824 10.7894 41.989C11.42 44.0848 10.6826 45.7989 8.9245 47.3145C9.91659 48.7327 10.8279 50.2449 11.9417 51.5897C15.6912 56.1177 20.469 58.9912 26.2288 60.2302C26.7193 60.3356 26.9114 60.2538 27.1377 59.8017C27.9984 58.0809 29.401 57.1274 31.3527 57.0953C33.3338 57.0628 34.7943 57.9848 35.6845 59.718C35.9635 60.2612 36.1928 60.3374 36.7435 60.211C44.3512 58.4647 50.0235 54.1685 53.7902 47.3407C53.822 47.2831 53.8437 47.2202 53.8946 47.1032C52.3559 45.7078 51.6989 43.968 52.3189 41.9332C52.9323 39.9191 54.4151 38.8407 56.6041 38.5133ZM59.5045 43.3318C59.5093 41.935 58.3109 40.7237 56.9077 40.7066C55.5114 40.6898 54.2949 41.8778 54.2676 43.285C54.24 44.7051 55.4721 45.9527 56.8942 45.9446C58.2937 45.9365 59.4997 44.7297 59.5045 43.3318ZM6.19078 40.7065C4.7466 40.7228 3.59986 41.9239 3.62229 43.3966C3.644 44.8088 4.8616 45.9818 6.26667 45.9439C7.68143 45.9057 8.8443 44.6944 8.81685 43.2873C8.78905 41.8638 7.59531 40.6907 6.19078 40.7065ZM34.0181 61.8345C34.0093 60.395 32.8362 59.2284 31.4115 59.2425C29.9826 59.2569 28.8432 60.4307 28.8515 61.8797C28.8597 63.3142 30.0447 64.496 31.4569 64.4782C32.8799 64.4604 34.0268 63.2766 34.0181 61.8345Z" fill="#031464"/>
<path d="M26.5118 36.4287C21.7534 32.9211 21.7459 26.9418 24.8014 23.4765C28.1663 19.6603 33.5844 19.3919 37.3798 22.7361C40.5572 25.5359 41.9531 32.3144 36.3642 36.482C39.2601 37.4454 41.7175 39.0451 43.7094 41.3445C45.7998 43.7576 47.0425 46.559 47.5222 49.7039C47.7163 50.9766 47.3 51.4373 46.0063 51.4373C36.2928 51.4378 26.5795 51.4378 16.866 51.4373C15.556 51.4373 15.1224 50.9477 15.3576 49.6395C16.5007 43.2815 20.0588 38.9143 26.1279 36.6315C26.232 36.5924 26.3351 36.5509 26.4376 36.5077C26.4544 36.5005 26.4654 36.4792 26.5118 36.4287ZM45.2053 49.1944C44.6434 46.4097 43.4048 44.0583 41.4556 42.0971C38.6713 39.2956 35.2654 37.8819 31.3302 37.9108C27.3949 37.9397 24.0076 39.4018 21.268 42.2465C19.4027 44.1834 18.1923 46.4783 17.6756 49.1944C26.8798 49.1944 35.9941 49.1944 45.2053 49.1944ZM31.4386 35.7359C35.025 35.7336 38.0188 32.7367 38.0147 29.1531C38.0106 25.5676 35.0142 22.5748 31.4307 22.577C27.8466 22.5792 24.85 25.5796 24.8553 29.1608C24.8606 32.749 27.8536 35.7382 31.4386 35.7359Z" fill="#031464"/>
<path d="M31.4615 0C32.1124 0.0218869 32.5426 0.359161 32.7737 0.95872C33.1504 1.93699 33.5422 2.91043 33.8786 3.90251C34.0332 4.35855 34.2882 4.5245 34.7503 4.53831C35.8005 4.56971 36.8493 4.64757 37.8993 4.69188C38.5558 4.71951 39.0032 5.03023 39.2149 5.64306C39.4397 6.29393 39.2179 6.82819 38.7014 7.24835C37.8688 7.92559 37.0407 8.6091 36.1869 9.25907C35.8665 9.50288 35.8005 9.74507 35.9089 10.1173C36.1895 11.0804 36.4412 12.0516 36.7004 13.0208C36.9331 13.8907 36.8007 14.4456 36.2379 14.8214C35.5897 15.2543 34.9785 15.0971 34.3732 14.6834C33.5431 14.1162 32.6849 13.59 31.858 13.0182C31.5589 12.8114 31.3483 12.7902 31.0346 13.01C30.1747 13.6119 29.2857 14.1727 28.4026 14.7409C27.732 15.1723 27.1057 15.191 26.5969 14.7968C26.0224 14.3519 25.9595 13.7615 26.139 13.1063C26.4103 12.1175 26.6582 11.1216 26.9551 10.1407C27.0789 9.73144 26.9858 9.48584 26.6516 9.23145C25.8335 8.60839 25.0492 7.94137 24.2413 7.30486C23.6983 6.87681 23.4258 6.35798 23.6495 5.66818C23.8714 4.98341 24.378 4.70659 25.0793 4.68237C26.1295 4.64595 27.1781 4.56737 28.2282 4.52611C28.6114 4.51104 28.8188 4.37093 28.9519 3.98719C29.3023 2.97645 29.7082 1.98525 30.0882 0.984554C30.3275 0.352883 30.7678 0.00914946 31.4615 0ZM31.4351 3.59197C31.1601 4.30527 30.924 4.81387 30.7678 5.3458C30.4929 6.28102 29.8702 6.68861 28.9293 6.68592C28.3618 6.68431 27.7944 6.68556 27.2269 6.68556C27.2167 6.74746 27.2063 6.80935 27.1961 6.87124C27.7287 7.30432 28.2678 7.72986 28.7922 8.17262C29.297 8.59888 29.4976 9.12111 29.2978 9.78669C29.101 10.4424 28.9467 11.1109 28.7375 11.9128C29.2007 11.6108 29.5791 11.4173 29.8941 11.1492C30.9179 10.2786 31.9145 10.2302 32.9527 11.127C33.2728 11.4035 33.6635 11.5981 34.1369 11.9049C33.9523 11.2106 33.8528 10.6591 33.6585 10.1433C33.2911 9.16722 33.5883 8.46343 34.4116 7.89006C34.857 7.5797 35.2577 7.20493 35.6785 6.8594C35.6609 6.79536 35.6434 6.73131 35.6258 6.66709C34.986 6.66709 34.3459 6.68054 33.7065 6.66368C32.9251 6.64305 32.4188 6.24711 32.163 5.50205C31.9628 4.91972 31.7258 4.34994 31.4351 3.59197Z" fill="#031464"/>
<path d="M1.81344 17.361C2.58881 17.4898 3.62593 17.6442 4.65497 17.8405C5.19031 17.9426 5.55898 17.8766 5.85715 17.3367C6.32036 16.498 6.89175 15.7196 7.39892 14.9042C7.78158 14.2891 8.30238 13.9692 9.02716 14.1253C9.69705 14.2695 10.0223 14.7412 10.1203 15.4051C10.2735 16.4422 10.4783 17.4729 10.5944 18.5136C10.6441 18.9584 10.8379 19.123 11.2302 19.2201C12.2465 19.4714 13.2542 19.7576 14.2691 20.0154C14.9192 20.1806 15.3489 20.5604 15.4374 21.2333C15.5305 21.9429 15.1792 22.4246 14.5568 22.7369C13.6401 23.1971 12.7368 23.6858 11.8079 24.1195C11.4119 24.3045 11.2343 24.513 11.2738 24.9737C11.3596 25.9753 11.3725 26.983 11.4424 27.9862C11.4916 28.6934 11.335 29.2773 10.6396 29.5977C10.0361 29.8758 9.45952 29.7152 8.84507 29.1012C8.11724 28.374 7.41111 27.6241 6.65781 26.925C6.49814 26.7768 6.13808 26.6986 5.93321 26.7697C4.92318 27.12 3.93253 27.5269 2.93865 27.923C2.29586 28.1792 1.70491 28.1414 1.22178 27.6093C0.741164 27.08 0.739367 26.5 1.07287 25.8775C1.56838 24.953 2.02119 24.0056 2.52118 23.0837C2.70596 22.743 2.70955 22.5109 2.4374 22.198C1.71908 21.3718 1.04651 20.5059 0.358861 19.6534C-0.0279283 19.1738 -0.121581 18.6442 0.174072 18.0933C0.463267 17.5542 0.925225 17.2833 1.81344 17.361ZM3.31539 19.8349C3.76784 20.3876 4.06439 20.8058 4.41727 21.1691C5.15982 21.9341 5.27032 22.7283 4.68745 23.6423C4.40274 24.0889 4.20324 24.5896 3.89611 25.2038C4.52294 24.9591 4.99225 24.8117 5.42928 24.5982C6.42818 24.1104 7.26849 24.2317 7.98233 25.1267C8.29251 25.5156 8.66279 25.8569 9.10502 26.3247C9.13103 26.0429 9.14915 25.9593 9.14467 25.877C9.11758 25.3867 9.09247 24.896 9.05318 24.4066C8.97604 23.447 9.21123 23.0067 10.0575 22.5697C10.6091 22.285 11.1633 22.0053 11.854 21.6531C11.107 21.444 10.5009 21.2515 9.88345 21.1074C9.1192 20.9291 8.68361 20.4965 8.58943 19.6993C8.51515 19.0698 8.38348 18.4469 8.24641 17.6383C7.79809 18.3303 7.43856 18.8801 7.08425 19.4332C6.72473 19.9942 6.23012 20.2648 5.55557 20.1645C4.87582 20.0636 4.19589 19.9644 3.31539 19.8349Z" fill="#031464"/>
<path d="M51.4324 27.5853C51.4893 26.5848 51.5675 25.7143 51.568 24.8441C51.5682 24.6257 51.3709 24.3136 51.1751 24.205C50.2593 23.6966 49.3097 23.2494 48.3776 22.7702C47.6391 22.3907 47.3333 21.9091 47.4307 21.2392C47.5329 20.5348 47.982 20.1667 48.6608 20.002C49.6565 19.7605 50.6391 19.4644 51.6351 19.225C52.0364 19.1285 52.2221 18.9636 52.2747 18.5227C52.4037 17.438 52.6071 16.3625 52.7777 15.2827C52.8757 14.663 53.2307 14.2606 53.8335 14.1273C54.4573 13.9896 54.9885 14.1855 55.3484 14.733C55.9373 15.6289 56.5355 16.5202 57.0853 17.44C57.3173 17.828 57.5746 17.9545 58.0076 17.8731C58.9498 17.696 59.8992 17.5562 60.8433 17.3883C61.7229 17.2319 62.3142 17.431 62.6653 18.0245C63.0029 18.5953 62.9117 19.1576 62.3495 19.8581C61.706 20.6602 61.0341 21.4408 60.4197 22.2643C60.2882 22.4406 60.2469 22.8086 60.3391 23.0066C60.7909 23.9774 61.2907 24.9264 61.7955 25.8713C62.1272 26.4919 62.1315 27.0744 61.6522 27.605C61.1714 28.1373 60.5811 28.1816 59.9367 27.9246C58.9428 27.5281 57.952 27.1217 56.942 26.771C56.7364 26.6996 56.3751 26.7739 56.2163 26.9217C55.4472 27.637 54.7129 28.3908 53.9856 29.1495C53.4858 29.671 52.9159 29.8854 52.2361 29.5962C51.5327 29.297 51.3619 28.6987 51.4299 27.9917C51.4469 27.8148 51.4324 27.6345 51.4324 27.5853ZM54.6161 17.632C54.477 18.4836 54.3581 19.1186 54.2729 19.7582C54.1749 20.4932 53.7585 20.9112 53.059 21.0922C52.4209 21.2575 51.7865 21.4372 51.0108 21.6487C51.6628 21.9815 52.176 22.2435 52.6891 22.5056C53.6925 23.0179 53.9049 23.4189 53.8053 24.5357C53.7576 25.0714 53.7458 25.6103 53.7176 26.1478C53.7745 26.1673 53.8314 26.1867 53.8882 26.2063C54.3168 25.7542 54.7515 25.3075 55.1727 24.8484C55.7111 24.2615 56.3392 24.1708 57.0582 24.4585C57.6479 24.6946 58.2448 24.9129 58.9854 25.1951C58.6215 24.4809 58.3494 23.9035 58.0387 23.3473C57.6503 22.6525 57.7281 22.0379 58.2441 21.4408C58.6576 20.9624 59.0383 20.4557 59.5349 19.8348C58.7254 19.9584 58.0893 20.0476 57.456 20.1543C56.6784 20.2853 56.1171 20.0063 55.717 19.3277C55.4056 18.7995 55.0506 18.297 54.6161 17.632Z" fill="#031464"/>
</svg>
