<svg width="66" height="52" viewBox="0 0 66 52" fill="none" xmlns="http://www.w3.org/2000/svg">
<path d="M47.2297 44.3792C47.208 47.0526 45.2338 48.9975 42.2142 48.4484C42.0927 48.6796 41.9752 48.9191 41.8441 49.1509C40.6238 51.3064 38.53 52.1415 36.198 51.329C33.9474 50.5448 31.7212 49.6909 29.4433 48.8525C29.0851 49.305 28.6913 49.7878 28.3131 50.2824C26.3415 52.8618 22.2793 52.2709 21.3568 49.1595C21.3457 49.1217 21.2998 49.0942 21.2698 49.0621C17.0085 49.5827 15.985 48.8601 15.4308 44.94C12.8539 45.0918 11.5115 44.0573 10.9641 41.5384C10.9207 41.3383 10.6971 41.0796 10.5061 41.024C8.0795 40.3165 6.8856 38.1708 7.87733 35.8734C8.34233 34.7963 8.22607 34.0808 7.46003 33.3103C7.14877 32.9973 6.92703 32.5941 6.67085 32.2276C6.41538 31.8622 6.16798 31.4912 5.87287 31.0577C4.89226 31.6116 4.17735 31.047 3.42889 30.4871C2.42729 29.7381 1.38676 29.0411 0.316635 28.2891C0.792227 27.6102 1.25113 26.9552 1.75705 26.2331C2.83381 26.9821 3.88816 27.7155 4.99435 28.4851C8.43921 22.7556 11.8651 17.0575 15.3287 11.2965C10.1945 8.23559 5.1176 5.20892 0 2.15802C0.438636 1.42194 0.846055 0.737877 1.28577 0C2.33778 0.621266 3.35228 1.2158 4.36249 1.81769C8.58524 4.33343 12.806 6.8524 17.0289 9.36797C17.9641 9.92501 18.3023 11.0978 17.8061 12.0825C17.7779 12.1385 17.7788 12.2091 17.7377 12.4164C19.5361 13.0301 21.3417 13.6499 23.1515 14.2565C23.2882 14.3022 23.4764 14.2995 23.607 14.2425C26.5989 12.9357 29.7915 12.4203 32.9727 11.8667C33.8962 11.7059 34.8356 11.6374 35.7604 11.4838C37.2408 11.2382 38.5765 11.8442 39.953 12.1745C41.9252 12.6478 43.8865 13.1713 45.8372 13.7272C46.7512 13.9877 47.3912 13.4097 48.2324 13.2023C48.0404 12.8769 47.9191 12.6132 47.7462 12.3896C47.3041 11.8188 47.2137 11.2418 47.4423 10.531C47.6106 10.0075 47.8379 9.66058 48.3197 9.37569C53.2839 6.44176 58.2331 3.48254 63.1867 0.530851C63.4703 0.361855 63.7567 0.196983 64.0877 0.00323018C64.5198 0.72819 64.9283 1.41333 65.3738 2.16071C60.2644 5.20659 55.1879 8.23289 50.0441 11.2994C53.4976 17.0444 56.9236 22.7434 60.3769 28.4878C61.4576 27.7345 62.4955 27.011 63.6112 26.2331C64.093 26.9177 64.5607 27.5822 65.0589 28.2901C63.6506 29.2786 62.336 30.3353 60.8832 31.1437C60.4166 31.4033 59.5849 31.0084 58.9209 30.909C58.8639 30.9004 58.8111 30.8617 58.8267 30.8687C57.6314 31.954 56.4667 32.998 55.3248 34.0663C55.1942 34.1887 55.0993 34.4712 55.1429 34.6391C55.7665 37.042 54.1359 39.5863 51.2321 39.8233C51.2901 40.9914 51.0116 42.0742 50.2147 42.9707C49.4345 43.8487 48.438 44.2977 47.2297 44.3792ZM40.2653 31.6148C40.5007 31.7361 40.6998 31.834 40.8947 31.9397C43.9391 33.5882 46.9827 35.2385 50.0274 36.8867C51.0861 37.4599 51.9478 37.3425 52.4653 36.5602C52.9677 35.8009 52.7748 34.9517 51.9085 34.2161C49.9638 32.5647 48.0142 30.9191 46.0621 29.2765C45.1721 28.5275 44.334 27.6947 43.3643 27.0672C40.606 25.2821 37.7923 23.5825 34.9996 21.8507C34.2723 21.3997 33.4989 21.3143 32.6831 21.5683C32.1297 21.7407 31.5786 21.9239 31.0174 22.0678C30.3938 22.228 29.8906 22.5224 29.4677 23.0315C28.782 23.8571 28.0266 24.6246 27.307 25.4224C25.8844 27.0002 24.116 27.6556 22.0104 27.4245C19.117 27.107 17.7128 24.393 19.1333 21.8512C20.0052 20.291 20.89 18.7379 21.7664 17.1803C21.8708 16.9948 21.9585 16.8002 22.0412 16.6353C20.1252 15.9323 18.2471 15.243 16.3289 14.539C15.9882 15.1032 15.642 15.6745 15.2977 16.2469C12.8324 20.3461 10.3647 24.4439 7.91051 28.5499C7.78834 28.7544 7.65397 29.1129 7.74672 29.2591C8.42073 30.3204 9.1516 31.3455 9.87351 32.3954C13.0634 29.3394 14.5724 29.2722 17.333 31.9962C18.8981 31.1361 20.4829 31.0183 22.0278 32.0116C23.6322 33.0432 23.8856 34.6363 23.6605 36.3499C23.7498 36.396 23.7852 36.4261 23.8246 36.4328C26.3217 36.8542 27.3248 37.8743 27.6158 40.3611C27.6628 40.763 27.8694 40.8041 28.1728 40.869C29.7576 41.209 30.7886 42.1607 31.2276 43.7249C31.5043 44.7102 31.3376 45.6642 30.9302 46.5605C30.9856 46.6283 31.0066 46.6805 31.0423 46.6938C33.1289 47.4805 35.198 48.3203 37.3117 49.0257C38.4835 49.4168 39.6281 48.5583 39.7862 47.3171C37.3594 46.1861 34.9203 45.0494 32.4443 43.8957C32.8148 43.1011 33.1512 42.3799 33.5067 41.6175C34.3977 42.0287 35.2254 42.4085 36.0516 42.7922C38.2383 43.8076 40.4216 44.8304 42.6121 45.8377C43.3367 46.171 44.0247 46.0098 44.4136 45.4595C44.811 44.8977 44.7425 44.2082 44.1456 43.6574C43.6754 43.2235 43.1677 42.8037 42.6115 42.494C40.5036 41.3206 38.3687 40.1954 36.2451 39.0499C36.0378 38.9381 35.8379 38.8122 35.6197 38.6841C36.0367 37.9241 36.4183 37.2284 36.8147 36.5058C37.1 36.6513 37.3183 36.7575 37.5316 36.8725C40.4621 38.4507 43.3883 40.0373 46.3246 41.6049C47.14 42.0401 48.002 41.8202 48.4554 41.1204C48.8911 40.4474 48.7602 39.5693 48.0657 39.0221C47.4016 38.4988 46.7144 37.9884 45.9802 37.5736C44.1327 36.5297 42.2522 35.5439 40.3863 34.5324C39.9598 34.3013 39.5386 34.0609 39.0818 33.8065C39.4803 33.0688 39.85 32.3839 40.2653 31.6148ZM49.5646 15.4021C48.8335 15.6702 48.1814 15.985 47.493 16.1388C46.8867 16.2742 46.204 16.3797 45.6172 16.239C42.9504 15.6006 40.3088 14.8571 37.6497 14.1842C37.1185 14.0498 36.5408 13.961 36.0019 14.0175C32.4431 14.3905 28.9435 15.0762 25.5263 16.1508C25.3515 16.2057 25.1497 16.333 25.0629 16.485C23.7676 18.7553 22.4763 21.028 21.2163 23.318C20.857 23.971 21.141 24.5801 21.862 24.7866C23.0929 25.1389 24.2147 24.9052 25.1504 24.0098C25.6183 23.5622 26.0892 23.0999 26.4645 22.5766C27.8061 20.7063 29.6089 19.6597 31.85 19.1624C33.4902 18.7984 34.9811 18.8588 36.4143 19.7618C37.5106 20.4525 38.6261 21.1128 39.7173 21.8114C41.7483 23.1115 43.8272 24.3481 45.7737 25.7654C47.4333 26.9737 48.9344 28.3997 50.5073 29.7273C51.5118 30.5752 52.5195 31.4191 53.7737 32.4732C55.0155 31.1388 56.2304 29.8333 57.4525 28.5203C54.8074 24.1212 52.2075 19.7976 49.5646 15.4021ZM21.2115 35.6615C21.2443 34.5062 20.7241 33.938 19.8952 33.87C19.1902 33.8121 18.6364 34.0728 18.1941 34.6138C17.317 35.6867 16.4186 36.7426 15.5578 37.8285C14.9337 38.6159 14.3476 39.434 13.7602 40.2497C13.3449 40.8269 13.3751 41.4485 13.7732 41.9996C14.1264 42.4887 14.6965 42.5916 15.222 42.3647C15.802 42.1141 16.4437 41.8439 16.8549 41.3954C18.1369 39.9968 19.3513 38.5325 20.5292 37.044C20.9008 36.5743 21.0746 35.9482 21.2115 35.6615ZM19.4001 46.826C19.4338 46.8826 19.4677 46.9391 19.5014 46.9956C20.0587 46.6639 20.73 46.4375 21.1514 45.9805C22.3317 44.7005 23.4257 43.339 24.5206 41.9829C25.274 41.0497 25.311 39.9727 24.6799 39.3637C24.0473 38.7532 22.9659 38.8061 22.0845 39.6613C21.0617 40.6536 20.1001 41.7208 19.2117 42.8349C18.7343 43.4337 18.3926 44.1716 18.1201 44.8959C17.704 46.0019 18.3007 46.8393 19.4001 46.826ZM28.8698 44.7572C28.9049 44.7096 28.9401 44.6621 28.9753 44.6144C28.6801 44.2351 28.45 43.7631 28.0738 43.4994C27.5813 43.1542 26.9333 43.2093 26.5324 43.6628C25.5326 44.7938 24.443 45.875 23.9382 47.3598C23.6348 48.2517 23.768 48.8552 24.3603 49.1965C24.9857 49.5567 25.8187 49.3924 26.321 48.7211C27.1095 47.6678 27.8545 46.5815 28.5958 45.4942C28.739 45.2839 28.781 45.0046 28.8698 44.7572ZM11.5633 38.5892C11.6367 38.5434 11.9024 38.4564 12.0491 38.274C13.0554 37.0223 14.0572 35.7656 15.0076 34.4718C15.1824 34.2341 15.2286 33.7843 15.1389 33.4924C14.8795 32.6481 13.7699 32.3084 13.0426 32.8787C11.7011 33.9307 10.6943 35.2642 10.1498 36.8921C9.84069 37.8165 10.4392 38.591 11.5633 38.5892Z" fill="#031464"/>
</svg>
