<svg width="60" height="60" viewBox="0 0 60 60" fill="none" xmlns="http://www.w3.org/2000/svg">
<mask id="path-1-outside-1_1_65" maskUnits="userSpaceOnUse" x="-0.870361" y="-0.921997" width="60" height="60" fill="black">
<rect fill="white" x="-0.870361" y="-0.921997" width="60" height="60"/>
<path d="M29.8737 20.4658C29.4895 20.8839 29.2753 21.175 29.0061 21.4003C27.8626 22.3582 27.0399 23.6148 25.8926 24.5915C24.325 25.9261 22.9429 27.4806 21.4947 28.9544C21.2967 29.1559 21.1769 29.434 20.9881 29.7275H29.8737V20.4658ZM39.0618 30.009C36.103 32.9752 33.1052 35.9806 30.1663 38.9272C31.3794 39.0703 38.262 39.0267 39.0618 38.8464V30.009ZM39.2773 48.1368C41.286 48.3092 47.4857 48.2436 48.236 48.0362V39.1586C45.2644 42.1369 42.2791 45.1286 39.2773 48.1368ZM48.2769 20.5579C48.0655 20.7364 47.9524 20.8188 47.8547 20.9165C45.314 23.4617 42.7818 26.0158 40.2276 28.5475C39.8626 28.9095 39.7528 29.2856 39.7557 29.7781C39.7726 32.702 39.7642 35.6261 39.764 38.5505C39.7638 38.7999 39.7724 39.0505 39.7535 39.2988C39.7287 39.6289 39.5346 39.8173 39.2069 39.8402C38.9593 39.8574 38.7094 39.8491 38.4607 39.8491C35.5806 39.8495 32.7007 39.8603 29.8208 39.84C29.2544 39.8361 28.8283 39.9686 28.4121 40.3935C26.02 42.8355 23.5951 45.2451 21.1841 47.6683C21.0546 47.7984 20.9499 47.953 20.7734 48.1705C21.0384 48.1839 21.1775 48.1969 21.3165 48.1969C26.6142 48.198 31.9119 48.1886 37.2094 48.2119C37.7666 48.2141 38.1308 48.0188 38.5044 47.6414C41.5358 44.5797 44.5737 41.5243 47.6369 38.495C48.1076 38.0293 48.2955 37.5705 48.292 36.9078C48.2648 31.7726 48.2769 26.6375 48.2769 21.5026V20.5579ZM11.4264 38.9477C11.8297 38.9745 11.9674 38.9919 12.1051 38.9919C17.4773 38.993 22.8494 38.9877 28.2216 39.0021C28.7201 39.0034 29.0972 38.8809 29.4401 38.5053C30.4697 37.3776 31.5056 36.2541 32.5799 35.1693C33.4031 34.3379 34.3161 33.5959 35.1389 32.7641C36.2629 31.6282 37.3152 30.421 38.4473 29.2939C38.9116 28.8318 39.1164 28.3789 39.1125 27.7093C39.0826 22.6427 39.0962 17.5754 39.0962 12.5085V11.5772C38.7167 11.8436 38.3948 12.0094 38.1488 12.2523C36.6782 13.7043 35.2195 15.168 33.7704 16.6414C33.3996 17.0188 33.1046 17.4717 32.7283 17.8425C32.1991 18.3638 31.6375 18.8542 31.0687 19.3324C30.6773 19.6613 30.5755 20.0552 30.5788 20.5528C30.5974 23.443 30.588 26.3335 30.5878 29.2239C30.5878 29.4736 30.6018 29.7246 30.5829 29.9729C30.5454 30.4622 30.4201 30.5901 29.9338 30.6315C29.6864 30.6524 29.4359 30.6368 29.1868 30.6368C26.4474 30.6368 23.7073 30.668 20.9688 30.6185C20.115 30.6031 19.5032 30.84 18.9327 31.4849C18.084 32.4437 17.135 33.3136 16.2324 34.2245C16.0324 34.4264 15.8475 34.6435 15.655 34.8526C15.1512 35.4002 14.6729 35.9747 14.1366 36.4885C13.3195 37.2717 12.462 38.0126 11.4264 38.9477ZM48.9455 48.6302C48.5475 49.073 48.0865 49.0567 47.6211 49.0563C44.7764 49.0516 41.9313 49.073 39.0872 49.0395C38.4309 49.0318 37.9664 49.2106 37.5005 49.6877C35.1872 52.0577 32.8352 54.3895 30.4973 56.7353C30.3246 56.9088 30.1558 57.086 29.8943 57.3551H57.4535C57.4535 57.0609 57.454 56.82 57.4535 56.5789C57.4393 47.7726 57.4252 38.9661 57.4083 30.1596C57.4083 30.1299 57.378 30.0927 57.3515 30.0718C57.3269 30.0524 57.2887 30.05 57.2305 30.0324C57.1578 30.0749 57.0538 30.1099 56.984 30.1795C54.4156 32.7478 51.8559 35.3251 49.2772 37.8831C48.9521 38.2059 48.9435 38.5595 48.944 38.9536C48.9471 41.2716 48.9455 43.5898 48.9455 45.9082V48.6302ZM29.9224 2.41602C28.8977 3.17825 3.14414 29.0663 2.69963 29.7834H3.25551C8.48416 29.7834 13.7129 29.7728 18.9415 29.797C19.5711 29.8001 19.9908 29.5779 20.4186 29.1447C23.3468 26.1787 26.2867 23.2242 29.2533 20.297C29.7534 19.8036 29.9393 19.3064 29.936 18.6146C29.911 13.5489 29.9224 8.48311 29.9224 3.41715V2.41602ZM27.813 39.8484H26.6173C21.565 39.8484 16.5129 39.8513 11.4605 39.8431C11.057 39.8424 10.5825 40.0016 10.2681 39.4085C10.8561 38.6183 11.649 37.9633 12.3523 37.2292C13.0423 36.5088 13.7561 35.8111 14.4606 35.1047C15.1905 34.3731 15.9202 33.6415 16.6521 32.912C17.3563 32.2106 18.0636 31.5122 18.8912 30.6914C18.4214 30.6674 18.1224 30.639 17.823 30.6387C12.6285 30.6361 7.43393 30.6396 2.23936 30.6317C1.83976 30.631 1.3587 30.7918 1.12964 30.2554C1.44414 29.7739 29.5031 1.48158 30.0185 1.1489C30.1237 1.0811 30.2822 1.09651 30.39 1.078C30.4468 1.14011 30.4721 1.16476 30.494 1.1925C30.5155 1.21981 30.5432 1.24732 30.5509 1.27903C30.5674 1.34794 30.5763 1.41928 30.5821 1.48996C30.5878 1.56108 30.5869 1.63264 30.5869 1.70396C30.5898 7.34239 30.5924 12.9804 30.597 18.6186C30.597 18.6509 30.6244 18.6831 30.6868 18.8209C33.6108 15.8953 36.5076 12.9971 39.4802 10.0226C39.6055 10.3236 39.7234 10.5025 39.7498 10.6943C39.7884 10.9746 39.762 11.2639 39.762 11.5495C39.7623 16.5809 39.7623 21.6125 39.7623 26.6444V27.8075C40.9975 27.1094 41.7856 26.0653 42.6911 25.1542C44.0159 23.8215 45.3425 22.4906 46.6721 21.1629C47.1257 20.7102 47.5906 20.2695 48.0507 19.8238C48.2547 19.6263 48.4426 19.3865 48.7914 19.54C48.8068 19.5567 48.8322 19.5812 48.8542 19.6085C48.8757 19.6358 48.911 19.6657 48.911 19.6946C48.9137 25.4356 48.9135 31.1766 48.9135 37.1673C50.0302 36.0863 50.9537 35.1358 51.8915 34.2007C52.8504 33.2447 53.8051 32.2845 54.7611 31.3257C55.7123 30.3717 56.663 29.4172 57.7027 28.3738C57.8794 28.6664 58.0453 28.8452 58.0978 29.0528C58.1569 29.2878 58.1156 29.5489 58.1158 29.7986C58.116 38.827 58.1158 47.8552 58.1158 56.8834V57.9125C57.2397 58.1072 29.9004 58.1411 28.663 57.9552C28.704 57.7659 28.69 57.5385 28.7947 57.4046C29.0349 57.0981 29.3315 56.8354 29.6081 56.5578C31.7962 54.3618 33.9851 52.1667 36.1735 49.9709C36.422 49.7214 36.6683 49.4693 37.0246 49.1082C36.5812 49.0849 36.282 49.0563 35.9827 49.056C30.8951 49.0532 25.807 49.0578 20.7194 49.047C20.2867 49.0461 19.71 49.2588 19.5024 48.6758C19.3208 48.1661 19.8457 47.9356 20.1313 47.6555C21.4763 46.3376 22.8738 45.0724 24.1977 43.734C25.3945 42.5242 26.5202 41.2439 27.813 39.8484Z"/>
</mask>
<path d="M29.8737 20.4658C29.4895 20.8839 29.2753 21.175 29.0061 21.4003C27.8626 22.3582 27.0399 23.6148 25.8926 24.5915C24.325 25.9261 22.9429 27.4806 21.4947 28.9544C21.2967 29.1559 21.1769 29.434 20.9881 29.7275H29.8737V20.4658ZM39.0618 30.009C36.103 32.9752 33.1052 35.9806 30.1663 38.9272C31.3794 39.0703 38.262 39.0267 39.0618 38.8464V30.009ZM39.2773 48.1368C41.286 48.3092 47.4857 48.2436 48.236 48.0362V39.1586C45.2644 42.1369 42.2791 45.1286 39.2773 48.1368ZM48.2769 20.5579C48.0655 20.7364 47.9524 20.8188 47.8547 20.9165C45.314 23.4617 42.7818 26.0158 40.2276 28.5475C39.8626 28.9095 39.7528 29.2856 39.7557 29.7781C39.7726 32.702 39.7642 35.6261 39.764 38.5505C39.7638 38.7999 39.7724 39.0505 39.7535 39.2988C39.7287 39.6289 39.5346 39.8173 39.2069 39.8402C38.9593 39.8574 38.7094 39.8491 38.4607 39.8491C35.5806 39.8495 32.7007 39.8603 29.8208 39.84C29.2544 39.8361 28.8283 39.9686 28.4121 40.3935C26.02 42.8355 23.5951 45.2451 21.1841 47.6683C21.0546 47.7984 20.9499 47.953 20.7734 48.1705C21.0384 48.1839 21.1775 48.1969 21.3165 48.1969C26.6142 48.198 31.9119 48.1886 37.2094 48.2119C37.7666 48.2141 38.1308 48.0188 38.5044 47.6414C41.5358 44.5797 44.5737 41.5243 47.6369 38.495C48.1076 38.0293 48.2955 37.5705 48.292 36.9078C48.2648 31.7726 48.2769 26.6375 48.2769 21.5026V20.5579ZM11.4264 38.9477C11.8297 38.9745 11.9674 38.9919 12.1051 38.9919C17.4773 38.993 22.8494 38.9877 28.2216 39.0021C28.7201 39.0034 29.0972 38.8809 29.4401 38.5053C30.4697 37.3776 31.5056 36.2541 32.5799 35.1693C33.4031 34.3379 34.3161 33.5959 35.1389 32.7641C36.2629 31.6282 37.3152 30.421 38.4473 29.2939C38.9116 28.8318 39.1164 28.3789 39.1125 27.7093C39.0826 22.6427 39.0962 17.5754 39.0962 12.5085V11.5772C38.7167 11.8436 38.3948 12.0094 38.1488 12.2523C36.6782 13.7043 35.2195 15.168 33.7704 16.6414C33.3996 17.0188 33.1046 17.4717 32.7283 17.8425C32.1991 18.3638 31.6375 18.8542 31.0687 19.3324C30.6773 19.6613 30.5755 20.0552 30.5788 20.5528C30.5974 23.443 30.588 26.3335 30.5878 29.2239C30.5878 29.4736 30.6018 29.7246 30.5829 29.9729C30.5454 30.4622 30.4201 30.5901 29.9338 30.6315C29.6864 30.6524 29.4359 30.6368 29.1868 30.6368C26.4474 30.6368 23.7073 30.668 20.9688 30.6185C20.115 30.6031 19.5032 30.84 18.9327 31.4849C18.084 32.4437 17.135 33.3136 16.2324 34.2245C16.0324 34.4264 15.8475 34.6435 15.655 34.8526C15.1512 35.4002 14.6729 35.9747 14.1366 36.4885C13.3195 37.2717 12.462 38.0126 11.4264 38.9477ZM48.9455 48.6302C48.5475 49.073 48.0865 49.0567 47.6211 49.0563C44.7764 49.0516 41.9313 49.073 39.0872 49.0395C38.4309 49.0318 37.9664 49.2106 37.5005 49.6877C35.1872 52.0577 32.8352 54.3895 30.4973 56.7353C30.3246 56.9088 30.1558 57.086 29.8943 57.3551H57.4535C57.4535 57.0609 57.454 56.82 57.4535 56.5789C57.4393 47.7726 57.4252 38.9661 57.4083 30.1596C57.4083 30.1299 57.378 30.0927 57.3515 30.0718C57.3269 30.0524 57.2887 30.05 57.2305 30.0324C57.1578 30.0749 57.0538 30.1099 56.984 30.1795C54.4156 32.7478 51.8559 35.3251 49.2772 37.8831C48.9521 38.2059 48.9435 38.5595 48.944 38.9536C48.9471 41.2716 48.9455 43.5898 48.9455 45.9082V48.6302ZM29.9224 2.41602C28.8977 3.17825 3.14414 29.0663 2.69963 29.7834H3.25551C8.48416 29.7834 13.7129 29.7728 18.9415 29.797C19.5711 29.8001 19.9908 29.5779 20.4186 29.1447C23.3468 26.1787 26.2867 23.2242 29.2533 20.297C29.7534 19.8036 29.9393 19.3064 29.936 18.6146C29.911 13.5489 29.9224 8.48311 29.9224 3.41715V2.41602ZM27.813 39.8484H26.6173C21.565 39.8484 16.5129 39.8513 11.4605 39.8431C11.057 39.8424 10.5825 40.0016 10.2681 39.4085C10.8561 38.6183 11.649 37.9633 12.3523 37.2292C13.0423 36.5088 13.7561 35.8111 14.4606 35.1047C15.1905 34.3731 15.9202 33.6415 16.6521 32.912C17.3563 32.2106 18.0636 31.5122 18.8912 30.6914C18.4214 30.6674 18.1224 30.639 17.823 30.6387C12.6285 30.6361 7.43393 30.6396 2.23936 30.6317C1.83976 30.631 1.3587 30.7918 1.12964 30.2554C1.44414 29.7739 29.5031 1.48158 30.0185 1.1489C30.1237 1.0811 30.2822 1.09651 30.39 1.078C30.4468 1.14011 30.4721 1.16476 30.494 1.1925C30.5155 1.21981 30.5432 1.24732 30.5509 1.27903C30.5674 1.34794 30.5763 1.41928 30.5821 1.48996C30.5878 1.56108 30.5869 1.63264 30.5869 1.70396C30.5898 7.34239 30.5924 12.9804 30.597 18.6186C30.597 18.6509 30.6244 18.6831 30.6868 18.8209C33.6108 15.8953 36.5076 12.9971 39.4802 10.0226C39.6055 10.3236 39.7234 10.5025 39.7498 10.6943C39.7884 10.9746 39.762 11.2639 39.762 11.5495C39.7623 16.5809 39.7623 21.6125 39.7623 26.6444V27.8075C40.9975 27.1094 41.7856 26.0653 42.6911 25.1542C44.0159 23.8215 45.3425 22.4906 46.6721 21.1629C47.1257 20.7102 47.5906 20.2695 48.0507 19.8238C48.2547 19.6263 48.4426 19.3865 48.7914 19.54C48.8068 19.5567 48.8322 19.5812 48.8542 19.6085C48.8757 19.6358 48.911 19.6657 48.911 19.6946C48.9137 25.4356 48.9135 31.1766 48.9135 37.1673C50.0302 36.0863 50.9537 35.1358 51.8915 34.2007C52.8504 33.2447 53.8051 32.2845 54.7611 31.3257C55.7123 30.3717 56.663 29.4172 57.7027 28.3738C57.8794 28.6664 58.0453 28.8452 58.0978 29.0528C58.1569 29.2878 58.1156 29.5489 58.1158 29.7986C58.116 38.827 58.1158 47.8552 58.1158 56.8834V57.9125C57.2397 58.1072 29.9004 58.1411 28.663 57.9552C28.704 57.7659 28.69 57.5385 28.7947 57.4046C29.0349 57.0981 29.3315 56.8354 29.6081 56.5578C31.7962 54.3618 33.9851 52.1667 36.1735 49.9709C36.422 49.7214 36.6683 49.4693 37.0246 49.1082C36.5812 49.0849 36.282 49.0563 35.9827 49.056C30.8951 49.0532 25.807 49.0578 20.7194 49.047C20.2867 49.0461 19.71 49.2588 19.5024 48.6758C19.3208 48.1661 19.8457 47.9356 20.1313 47.6555C21.4763 46.3376 22.8738 45.0724 24.1977 43.734C25.3945 42.5242 26.5202 41.2439 27.813 39.8484Z" fill="#04145E"/>
<path d="M29.8737 20.4658C29.4895 20.8839 29.2753 21.175 29.0061 21.4003C27.8626 22.3582 27.0399 23.6148 25.8926 24.5915C24.325 25.9261 22.9429 27.4806 21.4947 28.9544C21.2967 29.1559 21.1769 29.434 20.9881 29.7275H29.8737V20.4658ZM39.0618 30.009C36.103 32.9752 33.1052 35.9806 30.1663 38.9272C31.3794 39.0703 38.262 39.0267 39.0618 38.8464V30.009ZM39.2773 48.1368C41.286 48.3092 47.4857 48.2436 48.236 48.0362V39.1586C45.2644 42.1369 42.2791 45.1286 39.2773 48.1368ZM48.2769 20.5579C48.0655 20.7364 47.9524 20.8188 47.8547 20.9165C45.314 23.4617 42.7818 26.0158 40.2276 28.5475C39.8626 28.9095 39.7528 29.2856 39.7557 29.7781C39.7726 32.702 39.7642 35.6261 39.764 38.5505C39.7638 38.7999 39.7724 39.0505 39.7535 39.2988C39.7287 39.6289 39.5346 39.8173 39.2069 39.8402C38.9593 39.8574 38.7094 39.8491 38.4607 39.8491C35.5806 39.8495 32.7007 39.8603 29.8208 39.84C29.2544 39.8361 28.8283 39.9686 28.4121 40.3935C26.02 42.8355 23.5951 45.2451 21.1841 47.6683C21.0546 47.7984 20.9499 47.953 20.7734 48.1705C21.0384 48.1839 21.1775 48.1969 21.3165 48.1969C26.6142 48.198 31.9119 48.1886 37.2094 48.2119C37.7666 48.2141 38.1308 48.0188 38.5044 47.6414C41.5358 44.5797 44.5737 41.5243 47.6369 38.495C48.1076 38.0293 48.2955 37.5705 48.292 36.9078C48.2648 31.7726 48.2769 26.6375 48.2769 21.5026V20.5579ZM11.4264 38.9477C11.8297 38.9745 11.9674 38.9919 12.1051 38.9919C17.4773 38.993 22.8494 38.9877 28.2216 39.0021C28.7201 39.0034 29.0972 38.8809 29.4401 38.5053C30.4697 37.3776 31.5056 36.2541 32.5799 35.1693C33.4031 34.3379 34.3161 33.5959 35.1389 32.7641C36.2629 31.6282 37.3152 30.421 38.4473 29.2939C38.9116 28.8318 39.1164 28.3789 39.1125 27.7093C39.0826 22.6427 39.0962 17.5754 39.0962 12.5085V11.5772C38.7167 11.8436 38.3948 12.0094 38.1488 12.2523C36.6782 13.7043 35.2195 15.168 33.7704 16.6414C33.3996 17.0188 33.1046 17.4717 32.7283 17.8425C32.1991 18.3638 31.6375 18.8542 31.0687 19.3324C30.6773 19.6613 30.5755 20.0552 30.5788 20.5528C30.5974 23.443 30.588 26.3335 30.5878 29.2239C30.5878 29.4736 30.6018 29.7246 30.5829 29.9729C30.5454 30.4622 30.4201 30.5901 29.9338 30.6315C29.6864 30.6524 29.4359 30.6368 29.1868 30.6368C26.4474 30.6368 23.7073 30.668 20.9688 30.6185C20.115 30.6031 19.5032 30.84 18.9327 31.4849C18.084 32.4437 17.135 33.3136 16.2324 34.2245C16.0324 34.4264 15.8475 34.6435 15.655 34.8526C15.1512 35.4002 14.6729 35.9747 14.1366 36.4885C13.3195 37.2717 12.462 38.0126 11.4264 38.9477ZM48.9455 48.6302C48.5475 49.073 48.0865 49.0567 47.6211 49.0563C44.7764 49.0516 41.9313 49.073 39.0872 49.0395C38.4309 49.0318 37.9664 49.2106 37.5005 49.6877C35.1872 52.0577 32.8352 54.3895 30.4973 56.7353C30.3246 56.9088 30.1558 57.086 29.8943 57.3551H57.4535C57.4535 57.0609 57.454 56.82 57.4535 56.5789C57.4393 47.7726 57.4252 38.9661 57.4083 30.1596C57.4083 30.1299 57.378 30.0927 57.3515 30.0718C57.3269 30.0524 57.2887 30.05 57.2305 30.0324C57.1578 30.0749 57.0538 30.1099 56.984 30.1795C54.4156 32.7478 51.8559 35.3251 49.2772 37.8831C48.9521 38.2059 48.9435 38.5595 48.944 38.9536C48.9471 41.2716 48.9455 43.5898 48.9455 45.9082V48.6302ZM29.9224 2.41602C28.8977 3.17825 3.14414 29.0663 2.69963 29.7834H3.25551C8.48416 29.7834 13.7129 29.7728 18.9415 29.797C19.5711 29.8001 19.9908 29.5779 20.4186 29.1447C23.3468 26.1787 26.2867 23.2242 29.2533 20.297C29.7534 19.8036 29.9393 19.3064 29.936 18.6146C29.911 13.5489 29.9224 8.48311 29.9224 3.41715V2.41602ZM27.813 39.8484H26.6173C21.565 39.8484 16.5129 39.8513 11.4605 39.8431C11.057 39.8424 10.5825 40.0016 10.2681 39.4085C10.8561 38.6183 11.649 37.9633 12.3523 37.2292C13.0423 36.5088 13.7561 35.8111 14.4606 35.1047C15.1905 34.3731 15.9202 33.6415 16.6521 32.912C17.3563 32.2106 18.0636 31.5122 18.8912 30.6914C18.4214 30.6674 18.1224 30.639 17.823 30.6387C12.6285 30.6361 7.43393 30.6396 2.23936 30.6317C1.83976 30.631 1.3587 30.7918 1.12964 30.2554C1.44414 29.7739 29.5031 1.48158 30.0185 1.1489C30.1237 1.0811 30.2822 1.09651 30.39 1.078C30.4468 1.14011 30.4721 1.16476 30.494 1.1925C30.5155 1.21981 30.5432 1.24732 30.5509 1.27903C30.5674 1.34794 30.5763 1.41928 30.5821 1.48996C30.5878 1.56108 30.5869 1.63264 30.5869 1.70396C30.5898 7.34239 30.5924 12.9804 30.597 18.6186C30.597 18.6509 30.6244 18.6831 30.6868 18.8209C33.6108 15.8953 36.5076 12.9971 39.4802 10.0226C39.6055 10.3236 39.7234 10.5025 39.7498 10.6943C39.7884 10.9746 39.762 11.2639 39.762 11.5495C39.7623 16.5809 39.7623 21.6125 39.7623 26.6444V27.8075C40.9975 27.1094 41.7856 26.0653 42.6911 25.1542C44.0159 23.8215 45.3425 22.4906 46.6721 21.1629C47.1257 20.7102 47.5906 20.2695 48.0507 19.8238C48.2547 19.6263 48.4426 19.3865 48.7914 19.54C48.8068 19.5567 48.8322 19.5812 48.8542 19.6085C48.8757 19.6358 48.911 19.6657 48.911 19.6946C48.9137 25.4356 48.9135 31.1766 48.9135 37.1673C50.0302 36.0863 50.9537 35.1358 51.8915 34.2007C52.8504 33.2447 53.8051 32.2845 54.7611 31.3257C55.7123 30.3717 56.663 29.4172 57.7027 28.3738C57.8794 28.6664 58.0453 28.8452 58.0978 29.0528C58.1569 29.2878 58.1156 29.5489 58.1158 29.7986C58.116 38.827 58.1158 47.8552 58.1158 56.8834V57.9125C57.2397 58.1072 29.9004 58.1411 28.663 57.9552C28.704 57.7659 28.69 57.5385 28.7947 57.4046C29.0349 57.0981 29.3315 56.8354 29.6081 56.5578C31.7962 54.3618 33.9851 52.1667 36.1735 49.9709C36.422 49.7214 36.6683 49.4693 37.0246 49.1082C36.5812 49.0849 36.282 49.0563 35.9827 49.056C30.8951 49.0532 25.807 49.0578 20.7194 49.047C20.2867 49.0461 19.71 49.2588 19.5024 48.6758C19.3208 48.1661 19.8457 47.9356 20.1313 47.6555C21.4763 46.3376 22.8738 45.0724 24.1977 43.734C25.3945 42.5242 26.5202 41.2439 27.813 39.8484Z" stroke="#04145E" stroke-width="2" mask="url(#path-1-outside-1_1_65)"/>
</svg>
