<svg width="60" height="59" viewBox="0 0 60 59" fill="none" xmlns="http://www.w3.org/2000/svg">
<path d="M1.79083 0.5C1.92858 0.497831 2.06255 0.510123 2.16779 0.519531C2.28213 0.529753 2.36425 0.537309 2.44025 0.537109C7.62411 0.523862 12.8086 0.52832 17.991 0.52832C21.8107 0.528321 25.6239 0.541799 29.4383 0.514648L29.7264 0.523438C30.0101 0.542646 30.2816 0.596335 30.5438 0.699219C30.8954 0.83723 31.2042 1.05311 31.492 1.34863V1.34961C36.5049 6.50005 41.651 11.5711 46.5799 16.8281C48.3508 18.7167 50.1709 20.5576 51.9998 22.3975C53.827 24.2356 55.6637 26.0747 57.4608 27.9541L57.7303 28.2539C57.9968 28.5668 58.2594 28.9158 58.5584 29.2803L59.0272 29.8525L58.3221 30.0742C58.1179 30.1385 57.9744 30.1928 57.8133 30.2471C57.6626 30.2979 57.5025 30.3454 57.3289 30.3701L57.3299 30.3711C57.0086 30.4172 56.6245 30.3857 56.4158 30.3857H32.3113C32.764 30.805 33.1916 31.2052 33.5994 31.6182C33.8441 31.8659 34.0607 32.1356 34.2586 32.3818C34.4621 32.6349 34.6476 32.8648 34.8504 33.0703C37.6139 35.8698 40.4238 38.6715 43.1883 41.4785C43.6207 41.9175 44.0194 42.4123 44.3943 42.8486C44.7794 43.2968 45.1534 43.7013 45.574 44.0264C46.1852 44.4988 46.6761 45.0607 47.1277 45.5918C47.5889 46.134 48.0051 46.6381 48.4998 47.0703C49.5449 47.9836 50.4959 49.0491 51.4344 49.9932C53.3673 51.9373 55.2875 53.885 57.2313 55.8105C57.765 56.3393 58.1509 56.9361 58.575 57.6055L58.9969 58.2705L58.2156 58.3691C58.0224 58.3935 57.8744 58.4185 57.7117 58.4424C57.5577 58.465 57.3967 58.4852 57.2274 58.4854C47.9854 58.4903 38.7449 58.4852 29.5037 58.5C28.8346 58.5011 28.3303 58.2779 27.8787 57.8057C26.0734 55.918 24.259 54.0399 22.4285 52.1787C22.0819 51.8262 21.7085 51.5002 21.3172 51.1484C20.9325 50.8026 20.5355 50.4361 20.1776 50.0254C17.0072 46.3869 13.4696 43.189 10.0848 39.6768V39.6758C9.20652 38.7646 8.33146 37.8579 7.43732 36.9707C5.3038 34.853 3.25222 32.6428 1.18536 30.4844C1.07162 30.3657 0.948601 30.2398 0.866028 30.0107C0.804963 29.8412 0.763487 29.6025 0.700989 29.2695L0.596497 28.71L1.16486 28.6777C2.6679 28.5928 4.18154 28.6482 5.62189 28.6387C7.11066 28.6287 8.60273 28.6367 10.0858 28.6367H26.8436C26.0312 27.8279 25.303 27.1042 24.5867 26.373C19.7995 21.4881 15.0123 16.6019 10.2361 11.7051C9.83662 11.2955 9.46437 10.8548 9.10724 10.4434C8.74466 10.0257 8.39155 9.6311 8.00763 9.28027C7.41491 8.73881 6.86834 8.15944 6.33771 7.5918C5.8029 7.01968 5.28539 6.46075 4.73322 5.9375C3.61381 4.87666 2.54416 3.76111 1.48029 2.66895H1.47931C1.42278 2.61093 1.36054 2.55748 1.26837 2.47559C1.18489 2.40141 1.07974 2.30586 0.985168 2.19238C0.778191 1.94392 0.620648 1.60756 0.68634 1.15527L0.711731 0.980469L0.841614 0.860352C1.15205 0.573026 1.49961 0.504593 1.79083 0.5ZM28.7137 30.3779C20.4419 30.3918 12.1701 30.3857 3.89923 30.3857H3.6922C5.49094 32.2693 7.28556 34.1529 9.09259 36.0254C13.8101 40.9129 18.8461 45.6222 23.4578 50.6787C24.3158 51.6195 25.2178 52.5237 26.1326 53.4297C27.0449 54.3331 27.9724 55.2414 28.869 56.1777C29.0903 56.4089 29.2954 56.5475 29.5067 56.6328C29.7196 56.7188 29.9682 56.7607 30.2947 56.7598C38.6872 56.7343 47.0806 56.7451 55.4715 56.7451H55.5184C54.2761 55.4922 53.121 54.3264 51.9647 53.1621C50.6852 51.8736 49.4228 50.5839 48.1346 49.3164C47.4774 48.6698 46.8399 48.0041 46.2078 47.3486C45.5736 46.6909 44.9428 46.0413 44.2889 45.418C43.8015 44.9533 43.35 44.4571 42.9139 43.9678C42.474 43.4742 42.0527 42.9918 41.6082 42.5312C40.3539 41.2314 39.0704 39.9654 37.7889 38.6758V38.6768C36.5346 37.4149 35.3083 36.1508 34.0438 34.9189C32.7555 33.6638 31.4638 32.3813 30.2654 31.0264C30.0059 30.7329 29.7829 30.5819 29.5643 30.4971C29.3394 30.4099 29.0787 30.3772 28.7137 30.3779ZM3.8045 2.31836C6.31871 4.95195 8.72466 7.4982 11.1756 10.0049C14.3264 13.2273 17.5167 16.412 20.7098 19.5977C21.0618 19.9487 21.3842 20.3369 21.6854 20.6777C21.9951 21.0282 22.2985 21.3483 22.6483 21.623C23.1027 21.9799 23.4871 22.4058 23.8387 22.8193C24.2002 23.2445 24.5161 23.6422 24.8719 24.0098C26.1604 25.3411 27.5693 26.6902 28.8611 28.0596C29.0795 28.2911 29.2816 28.4337 29.492 28.5215C29.7036 28.6097 29.9526 28.6554 30.2801 28.6543C38.6697 28.6263 47.0601 28.6357 55.4481 28.6357C51.1986 24.2559 47.0581 19.9674 42.8856 15.708C38.4898 11.221 34.0603 6.76976 29.66 2.31836H3.8045Z" fill="#04145E" stroke="#04145E"/>
</svg>
