<svg width="60" height="59" viewBox="0 0 60 59" fill="none" xmlns="http://www.w3.org/2000/svg">
<mask id="path-1-outside-1_1_73" maskUnits="userSpaceOnUse" x="0" y="0" width="60" height="60" fill="black">
<rect fill="white" width="60" height="60"/>
<path d="M17.1998 13.2672C17.7846 13.1895 18.1012 13.1625 18.4091 13.1041C20.0427 12.7952 21.661 12.4347 23.3474 12.4537C24.8976 12.4714 26.4059 12.7033 27.934 12.938C30.8869 13.3924 33.4748 14.6922 35.999 16.1694C36.7509 16.6092 37.4699 17.1484 38.0944 17.7571C39.5037 19.1331 40.9352 20.4766 42.0587 22.1449C43.4571 24.2167 44.596 26.387 45.2601 28.7894C45.636 30.1532 46.0186 31.5534 46.0956 32.9538C46.1989 34.836 46.2913 36.7333 45.9307 38.6294C45.625 40.2386 45.2601 41.8159 44.684 43.3452C44.5894 43.5965 44.4905 43.8461 44.3432 44.2298C45.0688 43.8709 45.6075 43.5135 46.2011 43.3337C47.074 43.0688 47.6545 42.4659 48.0876 41.7593C48.7648 40.6589 49.3497 39.4984 49.917 38.3343C51.2165 35.6564 51.6958 32.7558 51.8651 29.8317C51.986 27.7446 51.4935 25.6848 50.957 23.6518C50.4403 21.6894 49.7037 19.8519 48.6154 18.1364C47.9139 17.0332 47.0961 16.0368 46.3067 15.0071C45.2887 13.6811 44.0398 12.6612 42.7293 11.6893C41.3089 10.6361 39.761 9.77337 38.1274 9.13852C35.9177 8.27912 33.6529 7.55238 31.2211 7.65135C30.003 7.70095 28.7827 7.6538 27.5646 7.68103C27.1535 7.69033 26.7379 7.76318 26.3355 7.86127C25.1284 8.15645 23.8972 8.39341 22.7296 8.81325C21.5577 9.23575 20.4495 9.84715 19.3172 10.385C19.1721 10.4539 19.0181 10.5544 18.9302 10.6831C18.3937 11.463 17.8748 12.2555 17.1998 13.2672ZM45.4601 35.2848C45.3414 34.0319 45.2865 32.7689 45.0864 31.529C44.9017 30.3789 44.662 29.2177 44.2706 28.1249C43.4945 25.9512 42.4632 23.898 41.0539 22.0497C39.772 20.3685 38.3186 18.8692 36.6278 17.6061C34.9788 16.3731 33.1824 15.409 31.2673 14.6621C29.1961 13.8545 27.0259 13.4889 24.836 13.2852C22.3998 13.0587 20.0296 13.6215 17.6571 14.0647C17.3141 14.1282 16.8876 14.3445 16.7227 14.6238C16.2961 15.3412 15.9157 16.1087 15.6629 16.903C15.3616 17.8519 15.2407 18.8574 14.9878 19.8242C14.4645 21.815 14.5041 23.8515 14.6822 25.8538C14.8098 27.2889 15.1374 28.7278 15.5815 30.1318C16.0652 31.6566 16.6369 33.1241 17.4262 34.5129C18.2178 35.9058 19.2028 37.1421 20.201 38.3885C21.1927 39.6237 22.3712 40.5861 23.6047 41.5225C25.6605 43.0832 27.9428 44.1716 30.4252 44.8213C31.7862 45.1778 33.1626 45.5786 34.5522 45.7009C37.2281 45.936 39.8732 45.6395 42.4611 44.8335C43.1493 44.6189 43.5297 44.242 43.7737 43.6253C44.8357 40.9508 45.414 38.183 45.4601 35.2848ZM20.6562 8.67529C21.3641 8.44145 22.0744 8.21534 22.7802 7.97221C24.9195 7.23392 27.0985 6.74145 29.3786 6.86677C29.6732 6.88294 29.9678 6.88007 30.2603 6.86745C32.747 6.75872 35.1129 7.23437 37.4655 8.07206C40.1832 9.03864 42.6238 10.4322 44.7829 12.3024C46.5903 13.8691 48.0722 15.7261 49.3343 17.7979C51.4099 21.2071 52.3356 24.9286 52.6742 28.8432C52.7512 29.7577 52.595 30.6743 52.4895 31.5939C52.2476 33.7255 51.8607 35.8035 50.9922 37.7696C50.4843 38.9186 49.939 40.0515 49.4113 41.1917C49.3783 41.2488 49.3453 41.306 49.3123 41.3631C49.3431 41.3044 49.3761 41.246 49.4069 41.1873C49.5652 41.143 49.7631 41.145 49.8752 41.0471C51.2011 39.8921 52.5093 38.703 53.569 37.3002C55.2665 35.0559 56.6033 32.6077 57.3092 29.8426C57.7533 28.1007 58.1711 26.3662 58.2304 24.5497C58.3029 22.3885 58.0039 20.2871 57.4609 18.2111C56.7529 15.5122 55.5875 13.0385 53.9231 10.7931C52.7951 9.26983 51.5287 7.88695 50.0665 6.69561C48.767 5.63845 47.3752 4.70244 45.8603 3.9934C44.3564 3.28921 42.8085 2.67362 41.1616 2.37535C40.1018 2.18313 39.042 1.91077 37.9734 1.87046C36.4783 1.81378 34.981 1.76042 33.477 2.0516C31.5575 2.42295 29.6292 2.69865 27.8724 3.6307C26.916 4.13689 25.9177 4.56603 24.9943 5.12362C23.3826 6.09506 21.8325 7.15886 20.6562 8.67615C20.6232 8.73108 20.588 8.78598 20.5528 8.84112C20.588 8.78576 20.621 8.73043 20.6562 8.67529ZM39.3235 50.3369C38.9277 50.4516 38.5077 50.5145 38.1405 50.6894C36.3134 51.5614 34.3389 51.8759 32.3711 52.0887C31.2431 52.2105 30.091 52.2625 28.9234 52.1819C26.628 52.0231 24.4029 51.6445 22.2437 50.8482C19.1039 49.6896 16.3467 47.9026 14.0094 45.5164C12.1625 43.6306 10.6717 41.4696 9.57233 39.0336C8.19152 35.9749 7.36919 32.8161 7.51209 29.4331C7.5517 28.463 7.39337 27.4606 7.58249 26.5248C8.17171 23.5752 8.87975 20.6496 10.5288 18.0665C10.5706 18.0025 10.553 17.9015 10.564 17.8178C10.5992 17.7604 10.6321 17.7029 10.6673 17.6455C10.6343 17.7046 10.6014 17.764 10.5706 17.8233C10.3507 17.9254 10.0759 17.9748 9.91975 18.1382C8.69944 19.4104 7.45495 20.6624 6.30938 22.0012C4.19643 24.4747 3.14763 27.4807 2.29011 30.564C2.15599 31.0441 2.02407 31.5483 2.03068 32.0397C2.06143 34.5202 1.71404 37.0169 2.26593 39.476C2.44844 40.2871 2.78923 41.0637 2.95413 41.8771C3.31913 43.6862 4.21181 45.2425 5.14847 46.7833C6.60184 49.1817 8.50152 51.183 10.7179 52.8664C12.3537 54.1093 14.1501 55.1018 16.0938 55.7728C17.7802 56.3543 19.4469 57.0629 21.2916 56.9493C23.3672 57.5507 25.467 57.136 27.4964 56.8324C29.572 56.5224 31.6235 55.8569 33.4858 54.7856C34.3169 54.3082 35.1459 53.8237 35.9462 53.298C37.2083 52.4714 38.4022 51.5613 39.3169 50.3321C39.3521 50.2765 39.3894 50.2209 39.4246 50.1653C39.3894 50.2227 39.3564 50.2798 39.3235 50.3369ZM42.6018 45.7644C42.272 45.8054 41.9378 45.83 41.6101 45.8902C40.513 46.0935 39.4224 46.4338 38.3164 46.4938C36.1507 46.6114 33.9893 46.539 31.8434 46.0547C29.7128 45.5742 27.6548 44.8782 25.7616 43.8419C22.8395 42.2422 20.289 40.1308 18.3013 37.402C16.8392 35.3922 15.6474 33.2075 14.9153 30.8386C14.0841 28.1488 13.6004 25.3691 13.8445 22.5229C13.9302 21.5264 14.049 20.5262 14.2513 19.5483C14.5789 17.9741 14.9109 16.3968 15.643 14.8273C15.1418 15.0246 14.7746 15.1233 14.4535 15.3045C13.6598 15.7522 12.7627 16.064 12.202 16.8468C10.0912 19.7997 8.79837 23.125 8.38063 26.6982C8.12337 28.8928 8.09699 31.1592 8.55872 33.3796C8.93469 35.1868 9.41183 36.957 10.1946 38.6315C11.5072 41.4402 13.3102 43.8709 15.6343 45.9254C18.1848 48.1803 21.0629 49.8012 24.35 50.6549C25.19 50.873 26.0695 50.9246 26.916 51.1212C28.8289 51.5652 30.7748 51.453 32.6723 51.2645C34.6357 51.0694 36.5839 50.5679 38.433 49.7674C40.3305 48.9458 41.9487 47.876 42.5974 45.7602C42.6304 45.7051 42.6655 45.6499 42.7007 45.5948C42.6677 45.6515 42.6348 45.708 42.6018 45.7644ZM45.8735 44.4876C44.607 44.9227 43.6168 45.8247 42.903 47.1938C44.0376 46.219 45.1325 45.5583 45.8823 44.4954C45.9197 44.4774 45.9614 44.4655 45.99 44.4389C46.0076 44.4216 46.0076 44.3833 46.0164 44.3543C45.9681 44.3988 45.9219 44.4431 45.8735 44.4876ZM16.8743 12.2347C16.2543 12.4895 15.0296 13.5173 14.337 14.3859C15.709 14.2161 16.5138 13.4927 16.87 12.23C16.9051 12.1703 16.9381 12.1104 16.9733 12.0507C16.9403 12.112 16.9073 12.1733 16.8743 12.2347ZM24.0796 58C18.6377 57.907 14.1061 56.4203 10.0803 53.3312C6.99101 50.962 4.59879 48.0346 3.02668 44.4898C2.02847 42.2396 1.2809 39.8746 1.20615 37.3564C1.18414 36.6483 0.979645 35.9405 1.00165 35.2372C1.1248 31.2387 2.01527 27.4187 4.02272 23.9481C5.09127 22.102 6.31601 20.3147 7.9123 18.8776C9.15236 17.7622 10.5332 16.8063 11.8502 15.779C12.013 15.6513 12.2152 15.5487 12.334 15.3866C13.9214 13.2185 15.9641 11.5719 18.209 10.1503C18.4486 9.99791 18.6355 9.75346 18.8356 9.54044C19.7569 8.56123 20.5924 7.48239 21.6126 6.62144C22.7538 5.65685 23.9433 4.74673 25.2802 4.0091C26.9731 3.07332 28.7168 2.33748 30.5681 1.81664C33.0857 1.10783 35.6604 0.854717 38.2505 1.0797C39.6862 1.20439 41.1111 1.56201 42.5182 1.90766C45.4381 2.62535 47.9733 4.11563 50.3633 5.92255C52.8919 7.83402 54.8092 10.2763 56.2911 13.0153C57.6016 15.438 58.4327 18.074 58.7999 20.8577C58.9604 22.0809 58.9604 23.2875 58.9956 24.5035C59.0373 25.939 58.7779 27.3476 58.4591 28.7292C57.8215 31.4892 56.7265 34.0864 55.1654 36.4368C53.745 38.5763 52.0607 40.5103 49.906 41.9668C49.3893 42.3168 48.855 42.6452 48.3471 43.0099C48.0766 43.2042 47.8018 43.4207 47.6061 43.6847C46.023 45.7988 44.0376 47.4476 41.8212 48.8371C41.6805 48.9243 41.5354 49.0245 41.4387 49.1542C40.1568 50.8992 38.5869 52.3717 36.8675 53.6394C35.5636 54.6014 34.1213 55.4262 32.6371 56.0742C31.0848 56.7527 29.4335 57.2593 27.7779 57.6304C26.4476 57.9289 25.0493 57.9128 24.0796 58Z"/>
</mask>
<path d="M17.1998 13.2672C17.7846 13.1895 18.1012 13.1625 18.4091 13.1041C20.0427 12.7952 21.661 12.4347 23.3474 12.4537C24.8976 12.4714 26.4059 12.7033 27.934 12.938C30.8869 13.3924 33.4748 14.6922 35.999 16.1694C36.7509 16.6092 37.4699 17.1484 38.0944 17.7571C39.5037 19.1331 40.9352 20.4766 42.0587 22.1449C43.4571 24.2167 44.596 26.387 45.2601 28.7894C45.636 30.1532 46.0186 31.5534 46.0956 32.9538C46.1989 34.836 46.2913 36.7333 45.9307 38.6294C45.625 40.2386 45.2601 41.8159 44.684 43.3452C44.5894 43.5965 44.4905 43.8461 44.3432 44.2298C45.0688 43.8709 45.6075 43.5135 46.2011 43.3337C47.074 43.0688 47.6545 42.4659 48.0876 41.7593C48.7648 40.6589 49.3497 39.4984 49.917 38.3343C51.2165 35.6564 51.6958 32.7558 51.8651 29.8317C51.986 27.7446 51.4935 25.6848 50.957 23.6518C50.4403 21.6894 49.7037 19.8519 48.6154 18.1364C47.9139 17.0332 47.0961 16.0368 46.3067 15.0071C45.2887 13.6811 44.0398 12.6612 42.7293 11.6893C41.3089 10.6361 39.761 9.77337 38.1274 9.13852C35.9177 8.27912 33.6529 7.55238 31.2211 7.65135C30.003 7.70095 28.7827 7.6538 27.5646 7.68103C27.1535 7.69033 26.7379 7.76318 26.3355 7.86127C25.1284 8.15645 23.8972 8.39341 22.7296 8.81325C21.5577 9.23575 20.4495 9.84715 19.3172 10.385C19.1721 10.4539 19.0181 10.5544 18.9302 10.6831C18.3937 11.463 17.8748 12.2555 17.1998 13.2672ZM45.4601 35.2848C45.3414 34.0319 45.2865 32.7689 45.0864 31.529C44.9017 30.3789 44.662 29.2177 44.2706 28.1249C43.4945 25.9512 42.4632 23.898 41.0539 22.0497C39.772 20.3685 38.3186 18.8692 36.6278 17.6061C34.9788 16.3731 33.1824 15.409 31.2673 14.6621C29.1961 13.8545 27.0259 13.4889 24.836 13.2852C22.3998 13.0587 20.0296 13.6215 17.6571 14.0647C17.3141 14.1282 16.8876 14.3445 16.7227 14.6238C16.2961 15.3412 15.9157 16.1087 15.6629 16.903C15.3616 17.8519 15.2407 18.8574 14.9878 19.8242C14.4645 21.815 14.5041 23.8515 14.6822 25.8538C14.8098 27.2889 15.1374 28.7278 15.5815 30.1318C16.0652 31.6566 16.6369 33.1241 17.4262 34.5129C18.2178 35.9058 19.2028 37.1421 20.201 38.3885C21.1927 39.6237 22.3712 40.5861 23.6047 41.5225C25.6605 43.0832 27.9428 44.1716 30.4252 44.8213C31.7862 45.1778 33.1626 45.5786 34.5522 45.7009C37.2281 45.936 39.8732 45.6395 42.4611 44.8335C43.1493 44.6189 43.5297 44.242 43.7737 43.6253C44.8357 40.9508 45.414 38.183 45.4601 35.2848ZM20.6562 8.67529C21.3641 8.44145 22.0744 8.21534 22.7802 7.97221C24.9195 7.23392 27.0985 6.74145 29.3786 6.86677C29.6732 6.88294 29.9678 6.88007 30.2603 6.86745C32.747 6.75872 35.1129 7.23437 37.4655 8.07206C40.1832 9.03864 42.6238 10.4322 44.7829 12.3024C46.5903 13.8691 48.0722 15.7261 49.3343 17.7979C51.4099 21.2071 52.3356 24.9286 52.6742 28.8432C52.7512 29.7577 52.595 30.6743 52.4895 31.5939C52.2476 33.7255 51.8607 35.8035 50.9922 37.7696C50.4843 38.9186 49.939 40.0515 49.4113 41.1917C49.3783 41.2488 49.3453 41.306 49.3123 41.3631C49.3431 41.3044 49.3761 41.246 49.4069 41.1873C49.5652 41.143 49.7631 41.145 49.8752 41.0471C51.2011 39.8921 52.5093 38.703 53.569 37.3002C55.2665 35.0559 56.6033 32.6077 57.3092 29.8426C57.7533 28.1007 58.1711 26.3662 58.2304 24.5497C58.3029 22.3885 58.0039 20.2871 57.4609 18.2111C56.7529 15.5122 55.5875 13.0385 53.9231 10.7931C52.7951 9.26983 51.5287 7.88695 50.0665 6.69561C48.767 5.63845 47.3752 4.70244 45.8603 3.9934C44.3564 3.28921 42.8085 2.67362 41.1616 2.37535C40.1018 2.18313 39.042 1.91077 37.9734 1.87046C36.4783 1.81378 34.981 1.76042 33.477 2.0516C31.5575 2.42295 29.6292 2.69865 27.8724 3.6307C26.916 4.13689 25.9177 4.56603 24.9943 5.12362C23.3826 6.09506 21.8325 7.15886 20.6562 8.67615C20.6232 8.73108 20.588 8.78598 20.5528 8.84112C20.588 8.78576 20.621 8.73043 20.6562 8.67529ZM39.3235 50.3369C38.9277 50.4516 38.5077 50.5145 38.1405 50.6894C36.3134 51.5614 34.3389 51.8759 32.3711 52.0887C31.2431 52.2105 30.091 52.2625 28.9234 52.1819C26.628 52.0231 24.4029 51.6445 22.2437 50.8482C19.1039 49.6896 16.3467 47.9026 14.0094 45.5164C12.1625 43.6306 10.6717 41.4696 9.57233 39.0336C8.19152 35.9749 7.36919 32.8161 7.51209 29.4331C7.5517 28.463 7.39337 27.4606 7.58249 26.5248C8.17171 23.5752 8.87975 20.6496 10.5288 18.0665C10.5706 18.0025 10.553 17.9015 10.564 17.8178C10.5992 17.7604 10.6321 17.7029 10.6673 17.6455C10.6343 17.7046 10.6014 17.764 10.5706 17.8233C10.3507 17.9254 10.0759 17.9748 9.91975 18.1382C8.69944 19.4104 7.45495 20.6624 6.30938 22.0012C4.19643 24.4747 3.14763 27.4807 2.29011 30.564C2.15599 31.0441 2.02407 31.5483 2.03068 32.0397C2.06143 34.5202 1.71404 37.0169 2.26593 39.476C2.44844 40.2871 2.78923 41.0637 2.95413 41.8771C3.31913 43.6862 4.21181 45.2425 5.14847 46.7833C6.60184 49.1817 8.50152 51.183 10.7179 52.8664C12.3537 54.1093 14.1501 55.1018 16.0938 55.7728C17.7802 56.3543 19.4469 57.0629 21.2916 56.9493C23.3672 57.5507 25.467 57.136 27.4964 56.8324C29.572 56.5224 31.6235 55.8569 33.4858 54.7856C34.3169 54.3082 35.1459 53.8237 35.9462 53.298C37.2083 52.4714 38.4022 51.5613 39.3169 50.3321C39.3521 50.2765 39.3894 50.2209 39.4246 50.1653C39.3894 50.2227 39.3564 50.2798 39.3235 50.3369ZM42.6018 45.7644C42.272 45.8054 41.9378 45.83 41.6101 45.8902C40.513 46.0935 39.4224 46.4338 38.3164 46.4938C36.1507 46.6114 33.9893 46.539 31.8434 46.0547C29.7128 45.5742 27.6548 44.8782 25.7616 43.8419C22.8395 42.2422 20.289 40.1308 18.3013 37.402C16.8392 35.3922 15.6474 33.2075 14.9153 30.8386C14.0841 28.1488 13.6004 25.3691 13.8445 22.5229C13.9302 21.5264 14.049 20.5262 14.2513 19.5483C14.5789 17.9741 14.9109 16.3968 15.643 14.8273C15.1418 15.0246 14.7746 15.1233 14.4535 15.3045C13.6598 15.7522 12.7627 16.064 12.202 16.8468C10.0912 19.7997 8.79837 23.125 8.38063 26.6982C8.12337 28.8928 8.09699 31.1592 8.55872 33.3796C8.93469 35.1868 9.41183 36.957 10.1946 38.6315C11.5072 41.4402 13.3102 43.8709 15.6343 45.9254C18.1848 48.1803 21.0629 49.8012 24.35 50.6549C25.19 50.873 26.0695 50.9246 26.916 51.1212C28.8289 51.5652 30.7748 51.453 32.6723 51.2645C34.6357 51.0694 36.5839 50.5679 38.433 49.7674C40.3305 48.9458 41.9487 47.876 42.5974 45.7602C42.6304 45.7051 42.6655 45.6499 42.7007 45.5948C42.6677 45.6515 42.6348 45.708 42.6018 45.7644ZM45.8735 44.4876C44.607 44.9227 43.6168 45.8247 42.903 47.1938C44.0376 46.219 45.1325 45.5583 45.8823 44.4954C45.9197 44.4774 45.9614 44.4655 45.99 44.4389C46.0076 44.4216 46.0076 44.3833 46.0164 44.3543C45.9681 44.3988 45.9219 44.4431 45.8735 44.4876ZM16.8743 12.2347C16.2543 12.4895 15.0296 13.5173 14.337 14.3859C15.709 14.2161 16.5138 13.4927 16.87 12.23C16.9051 12.1703 16.9381 12.1104 16.9733 12.0507C16.9403 12.112 16.9073 12.1733 16.8743 12.2347ZM24.0796 58C18.6377 57.907 14.1061 56.4203 10.0803 53.3312C6.99101 50.962 4.59879 48.0346 3.02668 44.4898C2.02847 42.2396 1.2809 39.8746 1.20615 37.3564C1.18414 36.6483 0.979645 35.9405 1.00165 35.2372C1.1248 31.2387 2.01527 27.4187 4.02272 23.9481C5.09127 22.102 6.31601 20.3147 7.9123 18.8776C9.15236 17.7622 10.5332 16.8063 11.8502 15.779C12.013 15.6513 12.2152 15.5487 12.334 15.3866C13.9214 13.2185 15.9641 11.5719 18.209 10.1503C18.4486 9.99791 18.6355 9.75346 18.8356 9.54044C19.7569 8.56123 20.5924 7.48239 21.6126 6.62144C22.7538 5.65685 23.9433 4.74673 25.2802 4.0091C26.9731 3.07332 28.7168 2.33748 30.5681 1.81664C33.0857 1.10783 35.6604 0.854717 38.2505 1.0797C39.6862 1.20439 41.1111 1.56201 42.5182 1.90766C45.4381 2.62535 47.9733 4.11563 50.3633 5.92255C52.8919 7.83402 54.8092 10.2763 56.2911 13.0153C57.6016 15.438 58.4327 18.074 58.7999 20.8577C58.9604 22.0809 58.9604 23.2875 58.9956 24.5035C59.0373 25.939 58.7779 27.3476 58.4591 28.7292C57.8215 31.4892 56.7265 34.0864 55.1654 36.4368C53.745 38.5763 52.0607 40.5103 49.906 41.9668C49.3893 42.3168 48.855 42.6452 48.3471 43.0099C48.0766 43.2042 47.8018 43.4207 47.6061 43.6847C46.023 45.7988 44.0376 47.4476 41.8212 48.8371C41.6805 48.9243 41.5354 49.0245 41.4387 49.1542C40.1568 50.8992 38.5869 52.3717 36.8675 53.6394C35.5636 54.6014 34.1213 55.4262 32.6371 56.0742C31.0848 56.7527 29.4335 57.2593 27.7779 57.6304C26.4476 57.9289 25.0493 57.9128 24.0796 58Z" fill="#04145E"/>
<path d="M17.1998 13.2672C17.7846 13.1895 18.1012 13.1625 18.4091 13.1041C20.0427 12.7952 21.661 12.4347 23.3474 12.4537C24.8976 12.4714 26.4059 12.7033 27.934 12.938C30.8869 13.3924 33.4748 14.6922 35.999 16.1694C36.7509 16.6092 37.4699 17.1484 38.0944 17.7571C39.5037 19.1331 40.9352 20.4766 42.0587 22.1449C43.4571 24.2167 44.596 26.387 45.2601 28.7894C45.636 30.1532 46.0186 31.5534 46.0956 32.9538C46.1989 34.836 46.2913 36.7333 45.9307 38.6294C45.625 40.2386 45.2601 41.8159 44.684 43.3452C44.5894 43.5965 44.4905 43.8461 44.3432 44.2298C45.0688 43.8709 45.6075 43.5135 46.2011 43.3337C47.074 43.0688 47.6545 42.4659 48.0876 41.7593C48.7648 40.6589 49.3497 39.4984 49.917 38.3343C51.2165 35.6564 51.6958 32.7558 51.8651 29.8317C51.986 27.7446 51.4935 25.6848 50.957 23.6518C50.4403 21.6894 49.7037 19.8519 48.6154 18.1364C47.9139 17.0332 47.0961 16.0368 46.3067 15.0071C45.2887 13.6811 44.0398 12.6612 42.7293 11.6893C41.3089 10.6361 39.761 9.77337 38.1274 9.13852C35.9177 8.27912 33.6529 7.55238 31.2211 7.65135C30.003 7.70095 28.7827 7.6538 27.5646 7.68103C27.1535 7.69033 26.7379 7.76318 26.3355 7.86127C25.1284 8.15645 23.8972 8.39341 22.7296 8.81325C21.5577 9.23575 20.4495 9.84715 19.3172 10.385C19.1721 10.4539 19.0181 10.5544 18.9302 10.6831C18.3937 11.463 17.8748 12.2555 17.1998 13.2672ZM45.4601 35.2848C45.3414 34.0319 45.2865 32.7689 45.0864 31.529C44.9017 30.3789 44.662 29.2177 44.2706 28.1249C43.4945 25.9512 42.4632 23.898 41.0539 22.0497C39.772 20.3685 38.3186 18.8692 36.6278 17.6061C34.9788 16.3731 33.1824 15.409 31.2673 14.6621C29.1961 13.8545 27.0259 13.4889 24.836 13.2852C22.3998 13.0587 20.0296 13.6215 17.6571 14.0647C17.3141 14.1282 16.8876 14.3445 16.7227 14.6238C16.2961 15.3412 15.9157 16.1087 15.6629 16.903C15.3616 17.8519 15.2407 18.8574 14.9878 19.8242C14.4645 21.815 14.5041 23.8515 14.6822 25.8538C14.8098 27.2889 15.1374 28.7278 15.5815 30.1318C16.0652 31.6566 16.6369 33.1241 17.4262 34.5129C18.2178 35.9058 19.2028 37.1421 20.201 38.3885C21.1927 39.6237 22.3712 40.5861 23.6047 41.5225C25.6605 43.0832 27.9428 44.1716 30.4252 44.8213C31.7862 45.1778 33.1626 45.5786 34.5522 45.7009C37.2281 45.936 39.8732 45.6395 42.4611 44.8335C43.1493 44.6189 43.5297 44.242 43.7737 43.6253C44.8357 40.9508 45.414 38.183 45.4601 35.2848ZM20.6562 8.67529C21.3641 8.44145 22.0744 8.21534 22.7802 7.97221C24.9195 7.23392 27.0985 6.74145 29.3786 6.86677C29.6732 6.88294 29.9678 6.88007 30.2603 6.86745C32.747 6.75872 35.1129 7.23437 37.4655 8.07206C40.1832 9.03864 42.6238 10.4322 44.7829 12.3024C46.5903 13.8691 48.0722 15.7261 49.3343 17.7979C51.4099 21.2071 52.3356 24.9286 52.6742 28.8432C52.7512 29.7577 52.595 30.6743 52.4895 31.5939C52.2476 33.7255 51.8607 35.8035 50.9922 37.7696C50.4843 38.9186 49.939 40.0515 49.4113 41.1917C49.3783 41.2488 49.3453 41.306 49.3123 41.3631C49.3431 41.3044 49.3761 41.246 49.4069 41.1873C49.5652 41.143 49.7631 41.145 49.8752 41.0471C51.2011 39.8921 52.5093 38.703 53.569 37.3002C55.2665 35.0559 56.6033 32.6077 57.3092 29.8426C57.7533 28.1007 58.1711 26.3662 58.2304 24.5497C58.3029 22.3885 58.0039 20.2871 57.4609 18.2111C56.7529 15.5122 55.5875 13.0385 53.9231 10.7931C52.7951 9.26983 51.5287 7.88695 50.0665 6.69561C48.767 5.63845 47.3752 4.70244 45.8603 3.9934C44.3564 3.28921 42.8085 2.67362 41.1616 2.37535C40.1018 2.18313 39.042 1.91077 37.9734 1.87046C36.4783 1.81378 34.981 1.76042 33.477 2.0516C31.5575 2.42295 29.6292 2.69865 27.8724 3.6307C26.916 4.13689 25.9177 4.56603 24.9943 5.12362C23.3826 6.09506 21.8325 7.15886 20.6562 8.67615C20.6232 8.73108 20.588 8.78598 20.5528 8.84112C20.588 8.78576 20.621 8.73043 20.6562 8.67529ZM39.3235 50.3369C38.9277 50.4516 38.5077 50.5145 38.1405 50.6894C36.3134 51.5614 34.3389 51.8759 32.3711 52.0887C31.2431 52.2105 30.091 52.2625 28.9234 52.1819C26.628 52.0231 24.4029 51.6445 22.2437 50.8482C19.1039 49.6896 16.3467 47.9026 14.0094 45.5164C12.1625 43.6306 10.6717 41.4696 9.57233 39.0336C8.19152 35.9749 7.36919 32.8161 7.51209 29.4331C7.5517 28.463 7.39337 27.4606 7.58249 26.5248C8.17171 23.5752 8.87975 20.6496 10.5288 18.0665C10.5706 18.0025 10.553 17.9015 10.564 17.8178C10.5992 17.7604 10.6321 17.7029 10.6673 17.6455C10.6343 17.7046 10.6014 17.764 10.5706 17.8233C10.3507 17.9254 10.0759 17.9748 9.91975 18.1382C8.69944 19.4104 7.45495 20.6624 6.30938 22.0012C4.19643 24.4747 3.14763 27.4807 2.29011 30.564C2.15599 31.0441 2.02407 31.5483 2.03068 32.0397C2.06143 34.5202 1.71404 37.0169 2.26593 39.476C2.44844 40.2871 2.78923 41.0637 2.95413 41.8771C3.31913 43.6862 4.21181 45.2425 5.14847 46.7833C6.60184 49.1817 8.50152 51.183 10.7179 52.8664C12.3537 54.1093 14.1501 55.1018 16.0938 55.7728C17.7802 56.3543 19.4469 57.0629 21.2916 56.9493C23.3672 57.5507 25.467 57.136 27.4964 56.8324C29.572 56.5224 31.6235 55.8569 33.4858 54.7856C34.3169 54.3082 35.1459 53.8237 35.9462 53.298C37.2083 52.4714 38.4022 51.5613 39.3169 50.3321C39.3521 50.2765 39.3894 50.2209 39.4246 50.1653C39.3894 50.2227 39.3564 50.2798 39.3235 50.3369ZM42.6018 45.7644C42.272 45.8054 41.9378 45.83 41.6101 45.8902C40.513 46.0935 39.4224 46.4338 38.3164 46.4938C36.1507 46.6114 33.9893 46.539 31.8434 46.0547C29.7128 45.5742 27.6548 44.8782 25.7616 43.8419C22.8395 42.2422 20.289 40.1308 18.3013 37.402C16.8392 35.3922 15.6474 33.2075 14.9153 30.8386C14.0841 28.1488 13.6004 25.3691 13.8445 22.5229C13.9302 21.5264 14.049 20.5262 14.2513 19.5483C14.5789 17.9741 14.9109 16.3968 15.643 14.8273C15.1418 15.0246 14.7746 15.1233 14.4535 15.3045C13.6598 15.7522 12.7627 16.064 12.202 16.8468C10.0912 19.7997 8.79837 23.125 8.38063 26.6982C8.12337 28.8928 8.09699 31.1592 8.55872 33.3796C8.93469 35.1868 9.41183 36.957 10.1946 38.6315C11.5072 41.4402 13.3102 43.8709 15.6343 45.9254C18.1848 48.1803 21.0629 49.8012 24.35 50.6549C25.19 50.873 26.0695 50.9246 26.916 51.1212C28.8289 51.5652 30.7748 51.453 32.6723 51.2645C34.6357 51.0694 36.5839 50.5679 38.433 49.7674C40.3305 48.9458 41.9487 47.876 42.5974 45.7602C42.6304 45.7051 42.6655 45.6499 42.7007 45.5948C42.6677 45.6515 42.6348 45.708 42.6018 45.7644ZM45.8735 44.4876C44.607 44.9227 43.6168 45.8247 42.903 47.1938C44.0376 46.219 45.1325 45.5583 45.8823 44.4954C45.9197 44.4774 45.9614 44.4655 45.99 44.4389C46.0076 44.4216 46.0076 44.3833 46.0164 44.3543C45.9681 44.3988 45.9219 44.4431 45.8735 44.4876ZM16.8743 12.2347C16.2543 12.4895 15.0296 13.5173 14.337 14.3859C15.709 14.2161 16.5138 13.4927 16.87 12.23C16.9051 12.1703 16.9381 12.1104 16.9733 12.0507C16.9403 12.112 16.9073 12.1733 16.8743 12.2347ZM24.0796 58C18.6377 57.907 14.1061 56.4203 10.0803 53.3312C6.99101 50.962 4.59879 48.0346 3.02668 44.4898C2.02847 42.2396 1.2809 39.8746 1.20615 37.3564C1.18414 36.6483 0.979645 35.9405 1.00165 35.2372C1.1248 31.2387 2.01527 27.4187 4.02272 23.9481C5.09127 22.102 6.31601 20.3147 7.9123 18.8776C9.15236 17.7622 10.5332 16.8063 11.8502 15.779C12.013 15.6513 12.2152 15.5487 12.334 15.3866C13.9214 13.2185 15.9641 11.5719 18.209 10.1503C18.4486 9.99791 18.6355 9.75346 18.8356 9.54044C19.7569 8.56123 20.5924 7.48239 21.6126 6.62144C22.7538 5.65685 23.9433 4.74673 25.2802 4.0091C26.9731 3.07332 28.7168 2.33748 30.5681 1.81664C33.0857 1.10783 35.6604 0.854717 38.2505 1.0797C39.6862 1.20439 41.1111 1.56201 42.5182 1.90766C45.4381 2.62535 47.9733 4.11563 50.3633 5.92255C52.8919 7.83402 54.8092 10.2763 56.2911 13.0153C57.6016 15.438 58.4327 18.074 58.7999 20.8577C58.9604 22.0809 58.9604 23.2875 58.9956 24.5035C59.0373 25.939 58.7779 27.3476 58.4591 28.7292C57.8215 31.4892 56.7265 34.0864 55.1654 36.4368C53.745 38.5763 52.0607 40.5103 49.906 41.9668C49.3893 42.3168 48.855 42.6452 48.3471 43.0099C48.0766 43.2042 47.8018 43.4207 47.6061 43.6847C46.023 45.7988 44.0376 47.4476 41.8212 48.8371C41.6805 48.9243 41.5354 49.0245 41.4387 49.1542C40.1568 50.8992 38.5869 52.3717 36.8675 53.6394C35.5636 54.6014 34.1213 55.4262 32.6371 56.0742C31.0848 56.7527 29.4335 57.2593 27.7779 57.6304C26.4476 57.9289 25.0493 57.9128 24.0796 58Z" stroke="#04145E" stroke-width="2" mask="url(#path-1-outside-1_1_73)"/>
</svg>
