<svg width="59" height="59" viewBox="0 0 59 59" fill="none" xmlns="http://www.w3.org/2000/svg">
<path d="M29.8301 0.50293C37.8236 0.606757 44.6957 3.61612 50.2842 9.24805C55.1603 14.1625 58.7548 21.6376 58.4863 29.0186C58.5799 37.5157 55.601 44.343 50.083 49.9297C44.4406 55.6451 37.3893 58.5359 29.3145 58.5C21.3146 58.4647 14.3783 55.4618 8.81934 49.8389C3.28378 44.2398 0.47113 37.3423 0.5 29.3643C0.528487 21.5193 3.33803 14.7463 8.75586 9.22852C14.4651 3.41417 21.5843 0.395595 29.8301 0.50293ZM29.75 2.2959C14.4942 2.27312 2.36705 14.2673 2.29883 29.3994C2.26493 36.8988 4.95776 43.3647 10.2432 48.7012C15.5378 54.0468 22.1111 56.6998 29.54 56.6895C37.0181 56.679 43.6085 53.9605 48.8916 48.5439C54.0315 43.2742 56.6521 36.9299 56.7266 29.5098L56.7139 28.832C56.5142 21.8608 53.9899 15.7777 49.1172 10.6895C43.8588 5.19771 37.3006 2.30728 29.75 2.2959Z" fill="#04145E" stroke="#04145E"/>
<path d="M29.5962 6.24048C36.137 6.32593 41.7112 8.72807 46.2632 13.3997C50.6275 17.8786 52.8491 23.3477 52.8247 29.5471C52.8003 35.7928 50.5357 41.2975 46.0942 45.7717C41.4989 50.4018 35.8804 52.7126 29.3442 52.7366C25.4508 52.751 21.7927 51.7707 18.4028 49.9504C14.9518 48.098 12.1654 45.4767 9.9917 42.2122C7.44641 38.3897 6.21631 34.1176 6.18018 29.6282C6.1514 26.0532 6.90314 22.5128 8.57666 19.2375L8.99268 18.4553C11.1268 14.5936 14.0909 11.4833 17.9644 9.28638C21.5359 7.26053 25.4252 6.18661 29.5962 6.24048ZM29.6177 8.04907C17.8968 7.96835 8.04447 17.5964 8.05127 29.4387C8.05821 41.3681 17.6227 50.8893 29.4985 50.9387C35.6105 50.9639 40.9144 48.6786 45.0972 44.2288C48.9883 40.0889 51.0754 35.1794 50.978 31.5305L50.9771 31.5208C50.9256 23.6829 48.9152 18.7755 44.9136 14.6604C40.7134 10.342 35.6141 8.09079 29.6177 8.04907Z" fill="#04145E" stroke="#04145E"/>
<path d="M29.5928 11.9065C34.2693 11.9366 38.4935 13.6602 41.8301 16.9983C45.2741 20.444 47.0712 24.675 47.0781 29.6223C47.0911 38.8355 39.1961 47.2496 29.4082 46.9456C19.8374 47.0878 11.9392 39.1299 11.9326 29.4592C11.929 24.491 13.8487 20.1893 17.3877 16.7708C20.7425 13.5303 24.9621 11.8769 29.5928 11.9065ZM29.5098 13.7971C21.1847 13.6659 13.4894 20.7906 13.8848 29.5276L13.8857 29.5471L13.8848 29.5676C13.5707 38.1673 20.9731 45.1895 29.377 45.1868C33.8902 45.1852 37.7257 43.5802 40.8574 40.3762C43.8101 37.3556 45.2795 33.6215 45.2627 29.4543C45.2445 25.0142 43.5619 21.1298 40.2812 18.0647C37.2755 15.2562 33.6888 13.8629 29.5098 13.7971Z" fill="#04145E" stroke="#04145E"/>
<path d="M29.5298 17.6794C35.9966 17.6667 41.4542 23.0478 41.269 29.5496C41.3885 35.7701 36.287 41.3853 29.4536 41.2976C22.7415 41.2112 17.7339 36.2526 17.7271 29.4607C17.7202 22.8559 22.8925 17.6926 29.5298 17.6794ZM29.5396 19.4763C24.0136 19.4615 19.5791 23.6076 19.5103 29.5134C19.4463 35.0063 24.0815 39.6167 29.4507 39.3953L29.4761 39.3943L29.5005 39.3962C32.2118 39.55 34.7311 38.3706 36.5747 36.4958C38.4208 34.6185 39.5553 32.0766 39.5278 29.5642C39.466 23.9057 35.1435 19.4912 29.5396 19.4763Z" fill="#04145E" stroke="#04145E"/>
<path d="M29.6724 23.3982C32.9546 23.6362 35.6095 26.1516 35.6255 29.45C35.6402 32.5692 33.2129 35.5268 29.4526 35.5642H29.4517C26.1937 35.5955 23.2533 32.6455 23.5161 29.4021C23.3895 27.7173 24.268 26.1714 25.4546 25.0896C26.6477 24.002 28.2462 23.2947 29.6724 23.3982ZM29.5366 25.2371C28.2762 25.2894 27.2215 25.6954 26.4868 26.3904C25.7584 27.0795 25.3005 28.0935 25.2993 29.4539C25.2979 30.9097 25.7857 31.9631 26.5298 32.658C27.2802 33.3587 28.3388 33.7383 29.5493 33.7498C31.8048 33.771 33.7843 31.9755 33.7124 29.6218L33.7114 29.5925L33.7144 29.5632C33.8222 28.3168 33.3016 27.218 32.4771 26.4314C31.6457 25.6383 30.5376 25.1953 29.5366 25.2371Z" fill="#04145E" stroke="#04145E"/>
</svg>
