<svg width="59" height="60" viewBox="0 0 59 60" fill="none" xmlns="http://www.w3.org/2000/svg">
<path d="M15.8584 44.3738C14.4371 45.8344 13.0524 47.2883 11.6328 48.699C10.8968 49.4303 10.1442 50.1442 9.39844 50.8542C8.6511 51.5658 7.90915 52.2742 7.1875 52.9998C6.00326 54.1904 4.86046 55.4138 3.625 56.7234C16.6628 56.7234 29.4882 56.7249 42.3135 56.7234L42.5117 56.7136V44.3738H15.8584ZM7.97754 16.45C6.51764 16.4592 5.09431 16.4822 3.9834 16.5173C3.42761 16.5349 2.95322 16.556 2.59277 16.5789C2.495 16.5851 2.40668 16.593 2.32812 16.5994V55.3416C2.36388 55.3068 2.40116 55.2733 2.43652 55.238C6.21258 51.4656 9.97847 47.6737 13.7822 43.9226C14.0497 43.6588 14.2174 43.4129 14.3213 43.156C14.4256 42.8982 14.477 42.6015 14.4756 42.2214C14.4448 33.9407 14.457 25.6591 14.457 17.3806V16.5408C13.1992 16.4615 10.5523 16.4337 7.97754 16.45ZM49.7744 44.3083C48.3922 44.3176 47.034 44.3375 45.9639 44.3679C45.4285 44.3831 44.9676 44.4009 44.6133 44.4207C44.5148 44.4262 44.4274 44.4337 44.3506 44.4392V55.0525C47.9464 51.4615 51.5305 47.8815 55.0752 44.3416C53.7998 44.3056 51.775 44.295 49.7744 44.3083ZM16.4541 16.5046C16.4541 24.9829 16.4541 33.5357 16.4561 42.0886C16.4561 42.2412 16.4653 42.3939 16.4766 42.5564H41.6104C42.006 42.5563 42.2126 42.4568 42.3242 42.3435C42.4372 42.2289 42.5369 42.0148 42.5381 41.6082L42.5391 17.2634V16.4851C42.4905 16.48 42.4555 16.4763 42.4238 16.4763C33.7673 16.4838 25.1108 16.4926 16.4541 16.5046ZM44.3311 15.9363C44.2246 19.4656 44.1973 25.8927 44.2295 31.6042C44.2459 34.5126 44.2772 37.2322 44.3213 39.2849C44.3433 40.3115 44.3688 41.1687 44.3965 41.7986C44.4087 42.077 44.4226 42.3086 44.4355 42.489H56.6592V3.6189C52.561 7.71386 48.4792 11.7915 44.3311 15.9363ZM16.5127 14.4617C16.6257 14.4682 16.7255 14.4734 16.8301 14.4734C25.3992 14.4753 33.9704 14.4677 42.541 14.488C42.8053 14.4887 43.0048 14.4485 43.1748 14.3757C43.3457 14.3026 43.5141 14.1852 43.7021 13.9958C47.5613 10.1078 51.4408 6.2393 55.3125 2.36694H16.5127V14.4617ZM3.96875 14.4656C5.25805 14.5063 7.26058 14.5189 9.21973 14.5027C10.5549 14.4917 11.8586 14.4678 12.8838 14.4333C13.3968 14.4161 13.8375 14.3969 14.1758 14.3748C14.2649 14.3689 14.3441 14.361 14.4141 14.3552V4.02124C10.9364 7.4987 7.42978 11.0047 3.96875 14.4656ZM58.4824 2.3689C58.4824 15.7462 58.4749 29.1227 58.5 42.4988C58.5009 42.9792 58.4288 43.4117 58.2578 43.8171C58.087 44.2221 57.8285 44.5734 57.4912 44.907C53.252 49.0985 49.0378 53.3166 44.8418 57.5525C44.5254 57.8719 44.1902 58.1194 43.8027 58.2839C43.4147 58.4487 43.0006 58.5192 42.54 58.5183C35.8308 58.506 29.1214 58.502 22.4121 58.5007H0.6875L0.626953 58.0701C0.606121 57.9203 0.58416 57.8062 0.560547 57.6619C0.538722 57.5284 0.517578 57.3788 0.517578 57.2205C0.513026 43.4704 0.517772 29.7217 0.5 15.9724C0.499484 15.5903 0.565998 15.2494 0.709961 14.9324C0.852622 14.6182 1.0602 14.352 1.30859 14.1052C5.56721 9.87215 9.81514 5.62972 14.041 1.36597H14.042C14.6591 0.743635 15.316 0.517327 16.1436 0.518311C29.6862 0.535031 43.2289 0.530102 56.7725 0.532959C57.1505 0.533097 57.5523 0.571458 58.0088 0.595459L58.4824 0.619873V2.3689Z" fill="#04145E" stroke="#04145E"/>
</svg>
