<svg width="59" height="60" viewBox="0 0 59 60" fill="none" xmlns="http://www.w3.org/2000/svg">
<path d="M29.6064 0.917725C29.9652 1.09016 30.1978 1.32742 30.3105 1.63257C30.4073 1.89442 30.3935 2.17298 30.3945 2.29565C30.4235 5.7068 31.1337 9.00803 32.4199 12.1462C33.5686 14.9491 35.1825 17.5009 37.2295 19.8074C38.8059 21.584 40.5614 23.1134 42.5078 24.4226C45.3418 26.3291 48.4516 27.6584 51.8066 28.3757C53.0265 28.6368 54.1637 28.9035 55.3535 28.906L55.7012 28.9167C56.2843 28.9485 56.8775 29.0484 57.4277 29.1365L58.0635 29.2312L58.4844 29.2849L58.499 29.7097C58.5111 30.0591 58.4145 30.3859 58.1484 30.6111C57.9668 30.7647 57.7534 30.8285 57.5664 30.8542L57.3906 30.8699C56.7999 30.8928 56.207 30.8966 55.6162 30.8816C54.1107 30.8434 52.6968 31.2602 51.126 31.6033C49.3447 31.9923 47.6269 32.5721 46.0264 33.3787C44.3983 34.1995 42.8119 35.1391 41.3613 36.2175C38.7793 38.1372 36.6084 40.487 34.7998 43.1707C33.1198 45.6633 32.0068 48.425 31.1777 51.3181C30.8468 52.4733 30.7896 53.6881 30.6318 54.9929C30.5744 55.4689 30.535 55.9491 30.4961 56.4392C30.4768 56.6829 30.4577 56.9297 30.4365 57.1775L30.3652 57.9226C30.3414 58.1407 30.2319 58.3113 30.168 58.405C30.1344 58.4543 30.0948 58.5073 30.0713 58.5398C30.0434 58.5783 30.0276 58.6031 30.0166 58.6218L29.8047 58.9802L29.4141 58.8376C29.2063 58.7619 29.0274 58.6525 28.8896 58.4998C28.7502 58.345 28.6773 58.1721 28.6406 58.0095C28.6056 57.854 28.6029 57.7045 28.6055 57.5906C28.6088 57.4447 28.6156 57.4022 28.6152 57.3044C28.6074 55.3795 28.3102 53.4724 27.8574 51.5955C27.1935 48.844 26.1277 46.2408 24.6309 43.8171C23.6751 42.2697 22.5283 40.8805 21.3008 39.4958C20.1449 38.1918 18.8368 37.0569 17.4453 36.032C15.9637 34.9404 14.3605 34.0125 12.6484 33.2429C10.7222 32.3772 8.72315 31.7887 6.66309 31.3083C5.74575 31.0947 4.78997 30.9919 3.8125 30.9001C3.1397 30.8369 2.49269 30.881 1.73828 30.8757C1.52199 30.8741 1.2002 30.8539 0.931641 30.6667C0.61988 30.4495 0.499546 30.1019 0.5 29.7185L0.500977 29.2781L0.9375 29.2234C1.79479 29.1157 2.72814 28.9498 3.63965 28.8943L4.16895 28.8552C6.80948 28.627 9.33155 27.9104 11.8232 26.9207C13.6315 26.2025 15.2831 25.2062 16.9795 24.1824C17.4612 23.8916 17.8976 23.509 18.377 23.0984C20.3031 21.4483 22.0654 19.6906 23.5273 17.6296C24.78 15.8634 25.8462 14.0155 26.626 12.0457C27.3106 10.315 27.9299 8.59594 28.1504 6.77222C28.3227 5.34473 28.5703 4.01805 28.6182 2.66187L28.625 2.07788C28.6227 1.85245 28.7054 1.65863 28.7627 1.53394C28.8357 1.37512 28.8766 1.30818 28.9248 1.1853L29.1211 0.684326L29.6064 0.917725ZM29.5078 8.91772C28.2599 13.9064 25.8087 18.2728 22.1523 22.0085C18.3292 25.9145 13.783 28.5507 8.5332 29.9412C8.89934 30.0571 9.26684 30.172 9.6377 30.2859C10.5543 30.5674 11.4857 30.8573 12.4014 31.2253C14.2578 31.9715 15.9424 32.9484 17.5762 33.9949C19.2497 35.0667 20.7514 36.3528 22.1367 37.7429C23.5684 39.1795 24.7612 40.8044 25.8613 42.4578C26.9548 44.1008 27.8634 45.8614 28.5332 47.7214C28.8863 48.7026 29.2484 49.7115 29.5303 50.7556C30.315 47.767 31.5788 44.9811 33.2529 42.3601C35.2647 39.211 37.7982 36.562 40.832 34.405L41.4453 33.9802C44.1997 32.1216 47.1932 30.8261 50.3584 29.8855C47.181 28.983 44.2016 27.6784 41.4395 25.8142C38.0855 23.5505 35.3352 20.7282 33.1621 17.3425C31.4794 14.7207 30.244 11.9189 29.5078 8.91772Z" fill="#04145E" stroke="#04145E"/>
</svg>
